<?xml version="1.0" encoding="utf-8"?>
<svg xmlns="http://www.w3.org/2000/svg" xmlns:xlink="http://www.w3.org/1999/xlink" width="500" height="250" viewBox="0 0 2000 1000">
<defs>
  <clipPath id="clip070">
    <rect x="0" y="0" width="2000" height="1000"/>
  </clipPath>
</defs>
<path clip-path="url(#clip070)" d="M0 1000 L2000 1000 L2000 0 L0 0  Z" fill="#ffffff" fill-rule="evenodd" fill-opacity="1"/>
<defs>
  <clipPath id="clip071">
    <rect x="400" y="0" width="1401" height="1000"/>
  </clipPath>
</defs>
<path clip-path="url(#clip070)" d="M182.76 901.088 L1952.76 901.088 L1952.76 47.2441 L182.76 47.2441  Z" fill="#ffffff" fill-rule="evenodd" fill-opacity="1"/>
<defs>
  <clipPath id="clip072">
    <rect x="182" y="47" width="1771" height="855"/>
  </clipPath>
</defs>
<polyline clip-path="url(#clip072)" style="stroke:#000000; stroke-linecap:round; stroke-linejoin:round; stroke-width:2; stroke-opacity:0.1; fill:none" points="232.854,901.088 232.854,47.2441 "/>
<polyline clip-path="url(#clip072)" style="stroke:#000000; stroke-linecap:round; stroke-linejoin:round; stroke-width:2; stroke-opacity:0.1; fill:none" points="650.306,901.088 650.306,47.2441 "/>
<polyline clip-path="url(#clip072)" style="stroke:#000000; stroke-linecap:round; stroke-linejoin:round; stroke-width:2; stroke-opacity:0.1; fill:none" points="1067.76,901.088 1067.76,47.2441 "/>
<polyline clip-path="url(#clip072)" style="stroke:#000000; stroke-linecap:round; stroke-linejoin:round; stroke-width:2; stroke-opacity:0.1; fill:none" points="1485.21,901.088 1485.21,47.2441 "/>
<polyline clip-path="url(#clip072)" style="stroke:#000000; stroke-linecap:round; stroke-linejoin:round; stroke-width:2; stroke-opacity:0.1; fill:none" points="1902.66,901.088 1902.66,47.2441 "/>
<polyline clip-path="url(#clip072)" style="stroke:#000000; stroke-linecap:round; stroke-linejoin:round; stroke-width:2; stroke-opacity:0.1; fill:none" points="182.76,876.922 1952.76,876.922 "/>
<polyline clip-path="url(#clip072)" style="stroke:#000000; stroke-linecap:round; stroke-linejoin:round; stroke-width:2; stroke-opacity:0.1; fill:none" points="182.76,692.741 1952.76,692.741 "/>
<polyline clip-path="url(#clip072)" style="stroke:#000000; stroke-linecap:round; stroke-linejoin:round; stroke-width:2; stroke-opacity:0.1; fill:none" points="182.76,508.559 1952.76,508.559 "/>
<polyline clip-path="url(#clip072)" style="stroke:#000000; stroke-linecap:round; stroke-linejoin:round; stroke-width:2; stroke-opacity:0.1; fill:none" points="182.76,324.377 1952.76,324.377 "/>
<polyline clip-path="url(#clip072)" style="stroke:#000000; stroke-linecap:round; stroke-linejoin:round; stroke-width:2; stroke-opacity:0.1; fill:none" points="182.76,140.195 1952.76,140.195 "/>
<polyline clip-path="url(#clip070)" style="stroke:#000000; stroke-linecap:round; stroke-linejoin:round; stroke-width:4; stroke-opacity:1; fill:none" points="182.76,901.088 1952.76,901.088 "/>
<polyline clip-path="url(#clip070)" style="stroke:#000000; stroke-linecap:round; stroke-linejoin:round; stroke-width:4; stroke-opacity:1; fill:none" points="232.854,901.088 232.854,882.19 "/>
<polyline clip-path="url(#clip070)" style="stroke:#000000; stroke-linecap:round; stroke-linejoin:round; stroke-width:4; stroke-opacity:1; fill:none" points="650.306,901.088 650.306,882.19 "/>
<polyline clip-path="url(#clip070)" style="stroke:#000000; stroke-linecap:round; stroke-linejoin:round; stroke-width:4; stroke-opacity:1; fill:none" points="1067.76,901.088 1067.76,882.19 "/>
<polyline clip-path="url(#clip070)" style="stroke:#000000; stroke-linecap:round; stroke-linejoin:round; stroke-width:4; stroke-opacity:1; fill:none" points="1485.21,901.088 1485.21,882.19 "/>
<polyline clip-path="url(#clip070)" style="stroke:#000000; stroke-linecap:round; stroke-linejoin:round; stroke-width:4; stroke-opacity:1; fill:none" points="1902.66,901.088 1902.66,882.19 "/>
<path clip-path="url(#clip070)" d="M232.854 928.807 Q229.243 928.807 227.415 932.371 Q225.609 935.913 225.609 943.043 Q225.609 950.149 227.415 953.714 Q229.243 957.255 232.854 957.255 Q236.489 957.255 238.294 953.714 Q240.123 950.149 240.123 943.043 Q240.123 935.913 238.294 932.371 Q236.489 928.807 232.854 928.807 M232.854 925.103 Q238.664 925.103 241.72 929.709 Q244.799 934.293 244.799 943.043 Q244.799 951.769 241.72 956.376 Q238.664 960.959 232.854 960.959 Q227.044 960.959 223.965 956.376 Q220.91 951.769 220.91 943.043 Q220.91 934.293 223.965 929.709 Q227.044 925.103 232.854 925.103 Z" fill="#000000" fill-rule="nonzero" fill-opacity="1" /><path clip-path="url(#clip070)" d="M598.918 956.353 L615.237 956.353 L615.237 960.288 L593.293 960.288 L593.293 956.353 Q595.955 953.598 600.538 948.968 Q605.144 944.316 606.325 942.973 Q608.57 940.45 609.45 938.714 Q610.353 936.955 610.353 935.265 Q610.353 932.51 608.408 930.774 Q606.487 929.038 603.385 929.038 Q601.186 929.038 598.732 929.802 Q596.302 930.566 593.524 932.117 L593.524 927.395 Q596.348 926.26 598.802 925.682 Q601.256 925.103 603.293 925.103 Q608.663 925.103 611.857 927.788 Q615.052 930.473 615.052 934.964 Q615.052 937.094 614.242 939.015 Q613.455 940.913 611.348 943.506 Q610.769 944.177 607.668 947.394 Q604.566 950.589 598.918 956.353 Z" fill="#000000" fill-rule="nonzero" fill-opacity="1" /><path clip-path="url(#clip070)" d="M625.098 925.728 L643.454 925.728 L643.454 929.663 L629.38 929.663 L629.38 938.135 Q630.399 937.788 631.417 937.626 Q632.436 937.441 633.454 937.441 Q639.241 937.441 642.621 940.612 Q646.001 943.783 646.001 949.2 Q646.001 954.779 642.528 957.88 Q639.056 960.959 632.737 960.959 Q630.561 960.959 628.292 960.589 Q626.047 960.218 623.64 959.478 L623.64 954.779 Q625.723 955.913 627.945 956.468 Q630.167 957.024 632.644 957.024 Q636.649 957.024 638.987 954.918 Q641.325 952.811 641.325 949.2 Q641.325 945.589 638.987 943.482 Q636.649 941.376 632.644 941.376 Q630.769 941.376 628.894 941.793 Q627.042 942.209 625.098 943.089 L625.098 925.728 Z" fill="#000000" fill-rule="nonzero" fill-opacity="1" /><path clip-path="url(#clip070)" d="M665.213 928.807 Q661.602 928.807 659.774 932.371 Q657.968 935.913 657.968 943.043 Q657.968 950.149 659.774 953.714 Q661.602 957.255 665.213 957.255 Q668.848 957.255 670.653 953.714 Q672.482 950.149 672.482 943.043 Q672.482 935.913 670.653 932.371 Q668.848 928.807 665.213 928.807 M665.213 925.103 Q671.024 925.103 674.079 929.709 Q677.158 934.293 677.158 943.043 Q677.158 951.769 674.079 956.376 Q671.024 960.959 665.213 960.959 Q659.403 960.959 656.325 956.376 Q653.269 951.769 653.269 943.043 Q653.269 934.293 656.325 929.709 Q659.403 925.103 665.213 925.103 Z" fill="#000000" fill-rule="nonzero" fill-opacity="1" /><path clip-path="url(#clip070)" d="M695.375 928.807 Q691.764 928.807 689.936 932.371 Q688.13 935.913 688.13 943.043 Q688.13 950.149 689.936 953.714 Q691.764 957.255 695.375 957.255 Q699.01 957.255 700.815 953.714 Q702.644 950.149 702.644 943.043 Q702.644 935.913 700.815 932.371 Q699.01 928.807 695.375 928.807 M695.375 925.103 Q701.186 925.103 704.241 929.709 Q707.32 934.293 707.32 943.043 Q707.32 951.769 704.241 956.376 Q701.186 960.959 695.375 960.959 Q689.565 960.959 686.487 956.376 Q683.431 951.769 683.431 943.043 Q683.431 934.293 686.487 929.709 Q689.565 925.103 695.375 925.103 Z" fill="#000000" fill-rule="nonzero" fill-opacity="1" /><path clip-path="url(#clip070)" d="M1012.3 925.728 L1030.65 925.728 L1030.65 929.663 L1016.58 929.663 L1016.58 938.135 Q1017.6 937.788 1018.61 937.626 Q1019.63 937.441 1020.65 937.441 Q1026.44 937.441 1029.82 940.612 Q1033.2 943.783 1033.2 949.2 Q1033.2 954.779 1029.73 957.88 Q1026.25 960.959 1019.93 960.959 Q1017.76 960.959 1015.49 960.589 Q1013.24 960.218 1010.84 959.478 L1010.84 954.779 Q1012.92 955.913 1015.14 956.468 Q1017.36 957.024 1019.84 957.024 Q1023.85 957.024 1026.18 954.918 Q1028.52 952.811 1028.52 949.2 Q1028.52 945.589 1026.18 943.482 Q1023.85 941.376 1019.84 941.376 Q1017.97 941.376 1016.09 941.793 Q1014.24 942.209 1012.3 943.089 L1012.3 925.728 Z" fill="#000000" fill-rule="nonzero" fill-opacity="1" /><path clip-path="url(#clip070)" d="M1052.41 928.807 Q1048.8 928.807 1046.97 932.371 Q1045.17 935.913 1045.17 943.043 Q1045.17 950.149 1046.97 953.714 Q1048.8 957.255 1052.41 957.255 Q1056.05 957.255 1057.85 953.714 Q1059.68 950.149 1059.68 943.043 Q1059.68 935.913 1057.85 932.371 Q1056.05 928.807 1052.41 928.807 M1052.41 925.103 Q1058.22 925.103 1061.28 929.709 Q1064.36 934.293 1064.36 943.043 Q1064.36 951.769 1061.28 956.376 Q1058.22 960.959 1052.41 960.959 Q1046.6 960.959 1043.52 956.376 Q1040.47 951.769 1040.47 943.043 Q1040.47 934.293 1043.52 929.709 Q1046.6 925.103 1052.41 925.103 Z" fill="#000000" fill-rule="nonzero" fill-opacity="1" /><path clip-path="url(#clip070)" d="M1082.57 928.807 Q1078.96 928.807 1077.13 932.371 Q1075.33 935.913 1075.33 943.043 Q1075.33 950.149 1077.13 953.714 Q1078.96 957.255 1082.57 957.255 Q1086.21 957.255 1088.01 953.714 Q1089.84 950.149 1089.84 943.043 Q1089.84 935.913 1088.01 932.371 Q1086.21 928.807 1082.57 928.807 M1082.57 925.103 Q1088.38 925.103 1091.44 929.709 Q1094.52 934.293 1094.52 943.043 Q1094.52 951.769 1091.44 956.376 Q1088.38 960.959 1082.57 960.959 Q1076.76 960.959 1073.68 956.376 Q1070.63 951.769 1070.63 943.043 Q1070.63 934.293 1073.68 929.709 Q1076.76 925.103 1082.57 925.103 Z" fill="#000000" fill-rule="nonzero" fill-opacity="1" /><path clip-path="url(#clip070)" d="M1112.73 928.807 Q1109.12 928.807 1107.29 932.371 Q1105.49 935.913 1105.49 943.043 Q1105.49 950.149 1107.29 953.714 Q1109.12 957.255 1112.73 957.255 Q1116.37 957.255 1118.17 953.714 Q1120 950.149 1120 943.043 Q1120 935.913 1118.17 932.371 Q1116.37 928.807 1112.73 928.807 M1112.73 925.103 Q1118.54 925.103 1121.6 929.709 Q1124.68 934.293 1124.68 943.043 Q1124.68 951.769 1121.6 956.376 Q1118.54 960.959 1112.73 960.959 Q1106.92 960.959 1103.85 956.376 Q1100.79 951.769 1100.79 943.043 Q1100.79 934.293 1103.85 929.709 Q1106.92 925.103 1112.73 925.103 Z" fill="#000000" fill-rule="nonzero" fill-opacity="1" /><path clip-path="url(#clip070)" d="M1428.4 925.728 L1450.63 925.728 L1450.63 927.719 L1438.08 960.288 L1433.2 960.288 L1445 929.663 L1428.4 929.663 L1428.4 925.728 Z" fill="#000000" fill-rule="nonzero" fill-opacity="1" /><path clip-path="url(#clip070)" d="M1459.79 925.728 L1478.15 925.728 L1478.15 929.663 L1464.08 929.663 L1464.08 938.135 Q1465.09 937.788 1466.11 937.626 Q1467.13 937.441 1468.15 937.441 Q1473.94 937.441 1477.32 940.612 Q1480.7 943.783 1480.7 949.2 Q1480.7 954.779 1477.22 957.88 Q1473.75 960.959 1467.43 960.959 Q1465.26 960.959 1462.99 960.589 Q1460.74 960.218 1458.33 959.478 L1458.33 954.779 Q1460.42 955.913 1462.64 956.468 Q1464.86 957.024 1467.34 957.024 Q1471.34 957.024 1473.68 954.918 Q1476.02 952.811 1476.02 949.2 Q1476.02 945.589 1473.68 943.482 Q1471.34 941.376 1467.34 941.376 Q1465.46 941.376 1463.59 941.793 Q1461.74 942.209 1459.79 943.089 L1459.79 925.728 Z" fill="#000000" fill-rule="nonzero" fill-opacity="1" /><path clip-path="url(#clip070)" d="M1499.91 928.807 Q1496.3 928.807 1494.47 932.371 Q1492.66 935.913 1492.66 943.043 Q1492.66 950.149 1494.47 953.714 Q1496.3 957.255 1499.91 957.255 Q1503.54 957.255 1505.35 953.714 Q1507.18 950.149 1507.18 943.043 Q1507.18 935.913 1505.35 932.371 Q1503.54 928.807 1499.91 928.807 M1499.91 925.103 Q1505.72 925.103 1508.77 929.709 Q1511.85 934.293 1511.85 943.043 Q1511.85 951.769 1508.77 956.376 Q1505.72 960.959 1499.91 960.959 Q1494.1 960.959 1491.02 956.376 Q1487.96 951.769 1487.96 943.043 Q1487.96 934.293 1491.02 929.709 Q1494.1 925.103 1499.91 925.103 Z" fill="#000000" fill-rule="nonzero" fill-opacity="1" /><path clip-path="url(#clip070)" d="M1530.07 928.807 Q1526.46 928.807 1524.63 932.371 Q1522.83 935.913 1522.83 943.043 Q1522.83 950.149 1524.63 953.714 Q1526.46 957.255 1530.07 957.255 Q1533.7 957.255 1535.51 953.714 Q1537.34 950.149 1537.34 943.043 Q1537.34 935.913 1535.51 932.371 Q1533.7 928.807 1530.07 928.807 M1530.07 925.103 Q1535.88 925.103 1538.94 929.709 Q1542.02 934.293 1542.02 943.043 Q1542.02 951.769 1538.94 956.376 Q1535.88 960.959 1530.07 960.959 Q1524.26 960.959 1521.18 956.376 Q1518.13 951.769 1518.13 943.043 Q1518.13 934.293 1521.18 929.709 Q1524.26 925.103 1530.07 925.103 Z" fill="#000000" fill-rule="nonzero" fill-opacity="1" /><path clip-path="url(#clip070)" d="M1832.11 956.353 L1839.75 956.353 L1839.75 929.987 L1831.44 931.654 L1831.44 927.395 L1839.7 925.728 L1844.37 925.728 L1844.37 956.353 L1852.01 956.353 L1852.01 960.288 L1832.11 960.288 L1832.11 956.353 Z" fill="#000000" fill-rule="nonzero" fill-opacity="1" /><path clip-path="url(#clip070)" d="M1871.46 928.807 Q1867.85 928.807 1866.02 932.371 Q1864.21 935.913 1864.21 943.043 Q1864.21 950.149 1866.02 953.714 Q1867.85 957.255 1871.46 957.255 Q1875.09 957.255 1876.9 953.714 Q1878.73 950.149 1878.73 943.043 Q1878.73 935.913 1876.9 932.371 Q1875.09 928.807 1871.46 928.807 M1871.46 925.103 Q1877.27 925.103 1880.32 929.709 Q1883.4 934.293 1883.4 943.043 Q1883.4 951.769 1880.32 956.376 Q1877.27 960.959 1871.46 960.959 Q1865.65 960.959 1862.57 956.376 Q1859.51 951.769 1859.51 943.043 Q1859.51 934.293 1862.57 929.709 Q1865.65 925.103 1871.46 925.103 Z" fill="#000000" fill-rule="nonzero" fill-opacity="1" /><path clip-path="url(#clip070)" d="M1901.62 928.807 Q1898.01 928.807 1896.18 932.371 Q1894.37 935.913 1894.37 943.043 Q1894.37 950.149 1896.18 953.714 Q1898.01 957.255 1901.62 957.255 Q1905.25 957.255 1907.06 953.714 Q1908.89 950.149 1908.89 943.043 Q1908.89 935.913 1907.06 932.371 Q1905.25 928.807 1901.62 928.807 M1901.62 925.103 Q1907.43 925.103 1910.49 929.709 Q1913.56 934.293 1913.56 943.043 Q1913.56 951.769 1910.49 956.376 Q1907.43 960.959 1901.62 960.959 Q1895.81 960.959 1892.73 956.376 Q1889.68 951.769 1889.68 943.043 Q1889.68 934.293 1892.73 929.709 Q1895.81 925.103 1901.62 925.103 Z" fill="#000000" fill-rule="nonzero" fill-opacity="1" /><path clip-path="url(#clip070)" d="M1931.78 928.807 Q1928.17 928.807 1926.34 932.371 Q1924.54 935.913 1924.54 943.043 Q1924.54 950.149 1926.34 953.714 Q1928.17 957.255 1931.78 957.255 Q1935.42 957.255 1937.22 953.714 Q1939.05 950.149 1939.05 943.043 Q1939.05 935.913 1937.22 932.371 Q1935.42 928.807 1931.78 928.807 M1931.78 925.103 Q1937.59 925.103 1940.65 929.709 Q1943.73 934.293 1943.73 943.043 Q1943.73 951.769 1940.65 956.376 Q1937.59 960.959 1931.78 960.959 Q1925.97 960.959 1922.89 956.376 Q1919.84 951.769 1919.84 943.043 Q1919.84 934.293 1922.89 929.709 Q1925.97 925.103 1931.78 925.103 Z" fill="#000000" fill-rule="nonzero" fill-opacity="1" /><path clip-path="url(#clip070)" d="M1961.94 928.807 Q1958.33 928.807 1956.5 932.371 Q1954.7 935.913 1954.7 943.043 Q1954.7 950.149 1956.5 953.714 Q1958.33 957.255 1961.94 957.255 Q1965.58 957.255 1967.38 953.714 Q1969.21 950.149 1969.21 943.043 Q1969.21 935.913 1967.38 932.371 Q1965.58 928.807 1961.94 928.807 M1961.94 925.103 Q1967.75 925.103 1970.81 929.709 Q1973.89 934.293 1973.89 943.043 Q1973.89 951.769 1970.81 956.376 Q1967.75 960.959 1961.94 960.959 Q1956.13 960.959 1953.05 956.376 Q1950 951.769 1950 943.043 Q1950 934.293 1953.05 929.709 Q1956.13 925.103 1961.94 925.103 Z" fill="#000000" fill-rule="nonzero" fill-opacity="1" /><polyline clip-path="url(#clip070)" style="stroke:#000000; stroke-linecap:round; stroke-linejoin:round; stroke-width:4; stroke-opacity:1; fill:none" points="182.76,901.088 182.76,47.2441 "/>
<polyline clip-path="url(#clip070)" style="stroke:#000000; stroke-linecap:round; stroke-linejoin:round; stroke-width:4; stroke-opacity:1; fill:none" points="182.76,876.922 201.658,876.922 "/>
<polyline clip-path="url(#clip070)" style="stroke:#000000; stroke-linecap:round; stroke-linejoin:round; stroke-width:4; stroke-opacity:1; fill:none" points="182.76,692.741 201.658,692.741 "/>
<polyline clip-path="url(#clip070)" style="stroke:#000000; stroke-linecap:round; stroke-linejoin:round; stroke-width:4; stroke-opacity:1; fill:none" points="182.76,508.559 201.658,508.559 "/>
<polyline clip-path="url(#clip070)" style="stroke:#000000; stroke-linecap:round; stroke-linejoin:round; stroke-width:4; stroke-opacity:1; fill:none" points="182.76,324.377 201.658,324.377 "/>
<polyline clip-path="url(#clip070)" style="stroke:#000000; stroke-linecap:round; stroke-linejoin:round; stroke-width:4; stroke-opacity:1; fill:none" points="182.76,140.195 201.658,140.195 "/>
<path clip-path="url(#clip070)" d="M65.4226 862.721 Q61.8115 862.721 59.9828 866.286 Q58.1773 869.828 58.1773 876.957 Q58.1773 884.064 59.9828 887.628 Q61.8115 891.17 65.4226 891.17 Q69.0569 891.17 70.8624 887.628 Q72.6911 884.064 72.6911 876.957 Q72.6911 869.828 70.8624 866.286 Q69.0569 862.721 65.4226 862.721 M65.4226 859.017 Q71.2328 859.017 74.2883 863.624 Q77.367 868.207 77.367 876.957 Q77.367 885.684 74.2883 890.29 Q71.2328 894.874 65.4226 894.874 Q59.6125 894.874 56.5338 890.29 Q53.4782 885.684 53.4782 876.957 Q53.4782 868.207 56.5338 863.624 Q59.6125 859.017 65.4226 859.017 Z" fill="#000000" fill-rule="nonzero" fill-opacity="1" /><path clip-path="url(#clip070)" d="M85.5845 888.323 L90.4688 888.323 L90.4688 894.202 L85.5845 894.202 L85.5845 888.323 Z" fill="#000000" fill-rule="nonzero" fill-opacity="1" /><path clip-path="url(#clip070)" d="M110.654 862.721 Q107.043 862.721 105.214 866.286 Q103.409 869.828 103.409 876.957 Q103.409 884.064 105.214 887.628 Q107.043 891.17 110.654 891.17 Q114.288 891.17 116.094 887.628 Q117.922 884.064 117.922 876.957 Q117.922 869.828 116.094 866.286 Q114.288 862.721 110.654 862.721 M110.654 859.017 Q116.464 859.017 119.52 863.624 Q122.598 868.207 122.598 876.957 Q122.598 885.684 119.52 890.29 Q116.464 894.874 110.654 894.874 Q104.844 894.874 101.765 890.29 Q98.7095 885.684 98.7095 876.957 Q98.7095 868.207 101.765 863.624 Q104.844 859.017 110.654 859.017 Z" fill="#000000" fill-rule="nonzero" fill-opacity="1" /><path clip-path="url(#clip070)" d="M140.816 862.721 Q137.205 862.721 135.376 866.286 Q133.57 869.828 133.57 876.957 Q133.57 884.064 135.376 887.628 Q137.205 891.17 140.816 891.17 Q144.45 891.17 146.256 887.628 Q148.084 884.064 148.084 876.957 Q148.084 869.828 146.256 866.286 Q144.45 862.721 140.816 862.721 M140.816 859.017 Q146.626 859.017 149.681 863.624 Q152.76 868.207 152.76 876.957 Q152.76 885.684 149.681 890.29 Q146.626 894.874 140.816 894.874 Q135.006 894.874 131.927 890.29 Q128.871 885.684 128.871 876.957 Q128.871 868.207 131.927 863.624 Q135.006 859.017 140.816 859.017 Z" fill="#000000" fill-rule="nonzero" fill-opacity="1" /><path clip-path="url(#clip070)" d="M67.0198 678.539 Q63.4087 678.539 61.58 682.104 Q59.7745 685.646 59.7745 692.775 Q59.7745 699.882 61.58 703.447 Q63.4087 706.988 67.0198 706.988 Q70.6541 706.988 72.4596 703.447 Q74.2883 699.882 74.2883 692.775 Q74.2883 685.646 72.4596 682.104 Q70.6541 678.539 67.0198 678.539 M67.0198 674.836 Q72.83 674.836 75.8855 679.442 Q78.9642 684.025 78.9642 692.775 Q78.9642 701.502 75.8855 706.109 Q72.83 710.692 67.0198 710.692 Q61.2097 710.692 58.131 706.109 Q55.0754 701.502 55.0754 692.775 Q55.0754 684.025 58.131 679.442 Q61.2097 674.836 67.0198 674.836 Z" fill="#000000" fill-rule="nonzero" fill-opacity="1" /><path clip-path="url(#clip070)" d="M87.1818 704.141 L92.066 704.141 L92.066 710.021 L87.1818 710.021 L87.1818 704.141 Z" fill="#000000" fill-rule="nonzero" fill-opacity="1" /><path clip-path="url(#clip070)" d="M112.251 678.539 Q108.64 678.539 106.811 682.104 Q105.006 685.646 105.006 692.775 Q105.006 699.882 106.811 703.447 Q108.64 706.988 112.251 706.988 Q115.885 706.988 117.691 703.447 Q119.52 699.882 119.52 692.775 Q119.52 685.646 117.691 682.104 Q115.885 678.539 112.251 678.539 M112.251 674.836 Q118.061 674.836 121.117 679.442 Q124.195 684.025 124.195 692.775 Q124.195 701.502 121.117 706.109 Q118.061 710.692 112.251 710.692 Q106.441 710.692 103.362 706.109 Q100.307 701.502 100.307 692.775 Q100.307 684.025 103.362 679.442 Q106.441 674.836 112.251 674.836 Z" fill="#000000" fill-rule="nonzero" fill-opacity="1" /><path clip-path="url(#clip070)" d="M136.441 706.085 L152.76 706.085 L152.76 710.021 L130.816 710.021 L130.816 706.085 Q133.478 703.331 138.061 698.701 Q142.668 694.049 143.848 692.706 Q146.093 690.183 146.973 688.447 Q147.876 686.687 147.876 684.998 Q147.876 682.243 145.931 680.507 Q144.01 678.771 140.908 678.771 Q138.709 678.771 136.256 679.535 Q133.825 680.299 131.047 681.85 L131.047 677.127 Q133.871 675.993 136.325 675.414 Q138.779 674.836 140.816 674.836 Q146.186 674.836 149.38 677.521 Q152.575 680.206 152.575 684.697 Q152.575 686.826 151.765 688.748 Q150.978 690.646 148.871 693.238 Q148.293 693.91 145.191 697.127 Q142.089 700.322 136.441 706.085 Z" fill="#000000" fill-rule="nonzero" fill-opacity="1" /><path clip-path="url(#clip070)" d="M64.9365 494.358 Q61.3254 494.358 59.4967 497.922 Q57.6912 501.464 57.6912 508.594 Q57.6912 515.7 59.4967 519.265 Q61.3254 522.806 64.9365 522.806 Q68.5707 522.806 70.3763 519.265 Q72.205 515.7 72.205 508.594 Q72.205 501.464 70.3763 497.922 Q68.5707 494.358 64.9365 494.358 M64.9365 490.654 Q70.7467 490.654 73.8022 495.26 Q76.8809 499.844 76.8809 508.594 Q76.8809 517.32 73.8022 521.927 Q70.7467 526.51 64.9365 526.51 Q59.1264 526.51 56.0477 521.927 Q52.9921 517.32 52.9921 508.594 Q52.9921 499.844 56.0477 495.26 Q59.1264 490.654 64.9365 490.654 Z" fill="#000000" fill-rule="nonzero" fill-opacity="1" /><path clip-path="url(#clip070)" d="M85.0984 519.959 L89.9827 519.959 L89.9827 525.839 L85.0984 525.839 L85.0984 519.959 Z" fill="#000000" fill-rule="nonzero" fill-opacity="1" /><path clip-path="url(#clip070)" d="M110.168 494.358 Q106.557 494.358 104.728 497.922 Q102.922 501.464 102.922 508.594 Q102.922 515.7 104.728 519.265 Q106.557 522.806 110.168 522.806 Q113.802 522.806 115.608 519.265 Q117.436 515.7 117.436 508.594 Q117.436 501.464 115.608 497.922 Q113.802 494.358 110.168 494.358 M110.168 490.654 Q115.978 490.654 119.033 495.26 Q122.112 499.844 122.112 508.594 Q122.112 517.32 119.033 521.927 Q115.978 526.51 110.168 526.51 Q104.358 526.51 101.279 521.927 Q98.2234 517.32 98.2234 508.594 Q98.2234 499.844 101.279 495.26 Q104.358 490.654 110.168 490.654 Z" fill="#000000" fill-rule="nonzero" fill-opacity="1" /><path clip-path="url(#clip070)" d="M143.177 495.353 L131.371 513.802 L143.177 513.802 L143.177 495.353 M141.95 491.279 L147.83 491.279 L147.83 513.802 L152.76 513.802 L152.76 517.691 L147.83 517.691 L147.83 525.839 L143.177 525.839 L143.177 517.691 L127.575 517.691 L127.575 513.177 L141.95 491.279 Z" fill="#000000" fill-rule="nonzero" fill-opacity="1" /><path clip-path="url(#clip070)" d="M65.2606 310.176 Q61.6495 310.176 59.8208 313.74 Q58.0152 317.282 58.0152 324.412 Q58.0152 331.518 59.8208 335.083 Q61.6495 338.625 65.2606 338.625 Q68.8948 338.625 70.7004 335.083 Q72.5291 331.518 72.5291 324.412 Q72.5291 317.282 70.7004 313.74 Q68.8948 310.176 65.2606 310.176 M65.2606 306.472 Q71.0707 306.472 74.1263 311.078 Q77.205 315.662 77.205 324.412 Q77.205 333.139 74.1263 337.745 Q71.0707 342.328 65.2606 342.328 Q59.4504 342.328 56.3717 337.745 Q53.3162 333.139 53.3162 324.412 Q53.3162 315.662 56.3717 311.078 Q59.4504 306.472 65.2606 306.472 Z" fill="#000000" fill-rule="nonzero" fill-opacity="1" /><path clip-path="url(#clip070)" d="M85.4225 335.777 L90.3067 335.777 L90.3067 341.657 L85.4225 341.657 L85.4225 335.777 Z" fill="#000000" fill-rule="nonzero" fill-opacity="1" /><path clip-path="url(#clip070)" d="M110.492 310.176 Q106.881 310.176 105.052 313.74 Q103.246 317.282 103.246 324.412 Q103.246 331.518 105.052 335.083 Q106.881 338.625 110.492 338.625 Q114.126 338.625 115.932 335.083 Q117.76 331.518 117.76 324.412 Q117.76 317.282 115.932 313.74 Q114.126 310.176 110.492 310.176 M110.492 306.472 Q116.302 306.472 119.358 311.078 Q122.436 315.662 122.436 324.412 Q122.436 333.139 119.358 337.745 Q116.302 342.328 110.492 342.328 Q104.682 342.328 101.603 337.745 Q98.5474 333.139 98.5474 324.412 Q98.5474 315.662 101.603 311.078 Q104.682 306.472 110.492 306.472 Z" fill="#000000" fill-rule="nonzero" fill-opacity="1" /><path clip-path="url(#clip070)" d="M141.232 322.514 Q138.084 322.514 136.232 324.666 Q134.404 326.819 134.404 330.569 Q134.404 334.296 136.232 336.472 Q138.084 338.625 141.232 338.625 Q144.381 338.625 146.209 336.472 Q148.061 334.296 148.061 330.569 Q148.061 326.819 146.209 324.666 Q144.381 322.514 141.232 322.514 M150.515 307.861 L150.515 312.12 Q148.756 311.287 146.95 310.847 Q145.168 310.407 143.408 310.407 Q138.779 310.407 136.325 313.532 Q133.894 316.657 133.547 322.977 Q134.913 320.963 136.973 319.898 Q139.033 318.81 141.51 318.81 Q146.718 318.81 149.728 321.981 Q152.76 325.129 152.76 330.569 Q152.76 335.893 149.612 339.111 Q146.464 342.328 141.232 342.328 Q135.237 342.328 132.066 337.745 Q128.894 333.139 128.894 324.412 Q128.894 316.217 132.783 311.356 Q136.672 306.472 143.223 306.472 Q144.982 306.472 146.765 306.819 Q148.57 307.166 150.515 307.861 Z" fill="#000000" fill-rule="nonzero" fill-opacity="1" /><path clip-path="url(#clip070)" d="M65.5152 125.994 Q61.9041 125.994 60.0754 129.559 Q58.2699 133.1 58.2699 140.23 Q58.2699 147.336 60.0754 150.901 Q61.9041 154.443 65.5152 154.443 Q69.1494 154.443 70.955 150.901 Q72.7837 147.336 72.7837 140.23 Q72.7837 133.1 70.955 129.559 Q69.1494 125.994 65.5152 125.994 M65.5152 122.29 Q71.3254 122.29 74.3809 126.897 Q77.4596 131.48 77.4596 140.23 Q77.4596 148.957 74.3809 153.563 Q71.3254 158.146 65.5152 158.146 Q59.7051 158.146 56.6264 153.563 Q53.5708 148.957 53.5708 140.23 Q53.5708 131.48 56.6264 126.897 Q59.7051 122.29 65.5152 122.29 Z" fill="#000000" fill-rule="nonzero" fill-opacity="1" /><path clip-path="url(#clip070)" d="M85.6771 151.596 L90.5614 151.596 L90.5614 157.475 L85.6771 157.475 L85.6771 151.596 Z" fill="#000000" fill-rule="nonzero" fill-opacity="1" /><path clip-path="url(#clip070)" d="M110.746 125.994 Q107.135 125.994 105.307 129.559 Q103.501 133.1 103.501 140.23 Q103.501 147.336 105.307 150.901 Q107.135 154.443 110.746 154.443 Q114.381 154.443 116.186 150.901 Q118.015 147.336 118.015 140.23 Q118.015 133.1 116.186 129.559 Q114.381 125.994 110.746 125.994 M110.746 122.29 Q116.557 122.29 119.612 126.897 Q122.691 131.48 122.691 140.23 Q122.691 148.957 119.612 153.563 Q116.557 158.146 110.746 158.146 Q104.936 158.146 101.858 153.563 Q98.8021 148.957 98.8021 140.23 Q98.8021 131.48 101.858 126.897 Q104.936 122.29 110.746 122.29 Z" fill="#000000" fill-rule="nonzero" fill-opacity="1" /><path clip-path="url(#clip070)" d="M140.908 141.063 Q137.575 141.063 135.654 142.846 Q133.756 144.628 133.756 147.753 Q133.756 150.878 135.654 152.66 Q137.575 154.443 140.908 154.443 Q144.242 154.443 146.163 152.66 Q148.084 150.855 148.084 147.753 Q148.084 144.628 146.163 142.846 Q144.265 141.063 140.908 141.063 M136.232 139.073 Q133.223 138.332 131.533 136.272 Q129.867 134.211 129.867 131.248 Q129.867 127.105 132.807 124.698 Q135.769 122.29 140.908 122.29 Q146.07 122.29 149.01 124.698 Q151.95 127.105 151.95 131.248 Q151.95 134.211 150.26 136.272 Q148.593 138.332 145.607 139.073 Q148.987 139.86 150.862 142.151 Q152.76 144.443 152.76 147.753 Q152.76 152.776 149.681 155.461 Q146.626 158.146 140.908 158.146 Q135.191 158.146 132.112 155.461 Q129.057 152.776 129.057 147.753 Q129.057 144.443 130.955 142.151 Q132.853 139.86 136.232 139.073 M134.519 131.688 Q134.519 134.373 136.186 135.878 Q137.876 137.383 140.908 137.383 Q143.918 137.383 145.607 135.878 Q147.32 134.373 147.32 131.688 Q147.32 129.003 145.607 127.498 Q143.918 125.994 140.908 125.994 Q137.876 125.994 136.186 127.498 Q134.519 129.003 134.519 131.688 Z" fill="#000000" fill-rule="nonzero" fill-opacity="1" /><polyline clip-path="url(#clip072)" style="stroke:#009af9; stroke-linecap:round; stroke-linejoin:round; stroke-width:4; stroke-opacity:1; fill:none" points="232.854,876.922 1067.76,483.168 1902.66,106.63 "/>
<polyline clip-path="url(#clip072)" style="stroke:#e26f46; stroke-linecap:round; stroke-linejoin:round; stroke-width:4; stroke-opacity:1; fill:none" points="232.854,876.922 1067.76,474.166 1902.66,71.4095 "/>
<path clip-path="url(#clip070)" d="M241.76 231.226 L705.101 231.226 L705.101 75.7056 L241.76 75.7056  Z" fill="#ffffff" fill-rule="evenodd" fill-opacity="1"/>
<polyline clip-path="url(#clip070)" style="stroke:#000000; stroke-linecap:round; stroke-linejoin:round; stroke-width:4; stroke-opacity:1; fill:none" points="241.76,231.226 705.101,231.226 705.101,75.7056 241.76,75.7056 241.76,231.226 "/>
<polyline clip-path="url(#clip070)" style="stroke:#009af9; stroke-linecap:round; stroke-linejoin:round; stroke-width:4; stroke-opacity:1; fill:none" points="261.427,127.546 379.426,127.546 "/>
<path clip-path="url(#clip070)" d="M414.718 126.191 Q418.074 126.909 419.949 129.177 Q421.847 131.446 421.847 134.779 Q421.847 139.895 418.329 142.696 Q414.81 145.497 408.329 145.497 Q406.153 145.497 403.838 145.057 Q401.547 144.64 399.093 143.784 L399.093 139.27 Q401.037 140.404 403.352 140.983 Q405.667 141.562 408.19 141.562 Q412.588 141.562 414.88 139.826 Q417.195 138.089 417.195 134.779 Q417.195 131.724 415.042 130.011 Q412.912 128.275 409.093 128.275 L405.065 128.275 L405.065 124.432 L409.278 124.432 Q412.727 124.432 414.556 123.066 Q416.385 121.678 416.385 119.085 Q416.385 116.423 414.486 115.011 Q412.611 113.576 409.093 113.576 Q407.172 113.576 404.973 113.992 Q402.773 114.409 400.135 115.289 L400.135 111.122 Q402.797 110.381 405.111 110.011 Q407.449 109.641 409.51 109.641 Q414.834 109.641 417.935 112.071 Q421.037 114.478 421.037 118.599 Q421.037 121.469 419.394 123.46 Q417.75 125.428 414.718 126.191 Z" fill="#000000" fill-rule="nonzero" fill-opacity="1" /><path clip-path="url(#clip070)" d="M440.713 113.344 Q437.102 113.344 435.273 116.909 Q433.468 120.451 433.468 127.58 Q433.468 134.687 435.273 138.252 Q437.102 141.793 440.713 141.793 Q444.347 141.793 446.153 138.252 Q447.982 134.687 447.982 127.58 Q447.982 120.451 446.153 116.909 Q444.347 113.344 440.713 113.344 M440.713 109.641 Q446.523 109.641 449.579 114.247 Q452.657 118.83 452.657 127.58 Q452.657 136.307 449.579 140.914 Q446.523 145.497 440.713 145.497 Q434.903 145.497 431.824 140.914 Q428.769 136.307 428.769 127.58 Q428.769 118.83 431.824 114.247 Q434.903 109.641 440.713 109.641 Z" fill="#000000" fill-rule="nonzero" fill-opacity="1" /><path clip-path="url(#clip070)" d="M470.875 113.344 Q467.264 113.344 465.435 116.909 Q463.63 120.451 463.63 127.58 Q463.63 134.687 465.435 138.252 Q467.264 141.793 470.875 141.793 Q474.509 141.793 476.315 138.252 Q478.143 134.687 478.143 127.58 Q478.143 120.451 476.315 116.909 Q474.509 113.344 470.875 113.344 M470.875 109.641 Q476.685 109.641 479.741 114.247 Q482.819 118.83 482.819 127.58 Q482.819 136.307 479.741 140.914 Q476.685 145.497 470.875 145.497 Q465.065 145.497 461.986 140.914 Q458.931 136.307 458.931 127.58 Q458.931 118.83 461.986 114.247 Q465.065 109.641 470.875 109.641 Z" fill="#000000" fill-rule="nonzero" fill-opacity="1" /><path clip-path="url(#clip070)" d="M490.62 110.266 L495.296 110.266 L495.296 124.872 L510.805 110.266 L516.824 110.266 L499.671 126.377 L518.051 144.826 L511.893 144.826 L495.296 128.182 L495.296 144.826 L490.62 144.826 L490.62 110.266 Z" fill="#000000" fill-rule="nonzero" fill-opacity="1" /><polyline clip-path="url(#clip070)" style="stroke:#e26f46; stroke-linecap:round; stroke-linejoin:round; stroke-width:4; stroke-opacity:1; fill:none" points="261.427,179.386 379.426,179.386 "/>
<path clip-path="url(#clip070)" d="M399.093 162.106 L428.329 162.106 L428.329 166.041 L416.06 166.041 L416.06 196.666 L411.361 196.666 L411.361 166.041 L399.093 166.041 L399.093 162.106 Z" fill="#000000" fill-rule="nonzero" fill-opacity="1" /><path clip-path="url(#clip070)" d="M436.593 183.633 Q431.431 183.633 429.44 184.814 Q427.449 185.994 427.449 188.842 Q427.449 191.11 428.931 192.453 Q430.435 193.772 433.005 193.772 Q436.546 193.772 438.676 191.272 Q440.829 188.749 440.829 184.582 L440.829 183.633 L436.593 183.633 M445.088 181.874 L445.088 196.666 L440.829 196.666 L440.829 192.73 Q439.37 195.091 437.195 196.226 Q435.019 197.337 431.871 197.337 Q427.889 197.337 425.528 195.115 Q423.19 192.869 423.19 189.119 Q423.19 184.744 426.107 182.522 Q429.046 180.3 434.857 180.3 L440.829 180.3 L440.829 179.883 Q440.829 176.943 438.884 175.346 Q436.963 173.726 433.468 173.726 Q431.246 173.726 429.139 174.258 Q427.033 174.791 425.088 175.855 L425.088 171.92 Q427.426 171.018 429.625 170.578 Q431.824 170.115 433.908 170.115 Q439.533 170.115 442.31 173.031 Q445.088 175.948 445.088 181.874 Z" fill="#000000" fill-rule="nonzero" fill-opacity="1" /><path clip-path="url(#clip070)" d="M475.412 181.017 L475.412 196.666 L471.153 196.666 L471.153 181.156 Q471.153 177.476 469.718 175.647 Q468.282 173.818 465.412 173.818 Q461.963 173.818 459.972 176.018 Q457.982 178.217 457.982 182.013 L457.982 196.666 L453.699 196.666 L453.699 170.74 L457.982 170.74 L457.982 174.768 Q459.509 172.43 461.569 171.272 Q463.653 170.115 466.361 170.115 Q470.829 170.115 473.12 172.893 Q475.412 175.647 475.412 181.017 Z" fill="#000000" fill-rule="nonzero" fill-opacity="1" /><path clip-path="url(#clip070)" d="M500.967 183.402 Q500.967 178.772 499.046 176.226 Q497.148 173.68 493.699 173.68 Q490.273 173.68 488.352 176.226 Q486.454 178.772 486.454 183.402 Q486.454 188.008 488.352 190.554 Q490.273 193.101 493.699 193.101 Q497.148 193.101 499.046 190.554 Q500.967 188.008 500.967 183.402 M505.227 193.448 Q505.227 200.068 502.287 203.286 Q499.347 206.527 493.282 206.527 Q491.037 206.527 489.046 206.179 Q487.055 205.855 485.18 205.161 L485.18 201.017 Q487.055 202.036 488.884 202.522 Q490.713 203.008 492.611 203.008 Q496.801 203.008 498.884 200.809 Q500.967 198.633 500.967 194.212 L500.967 192.105 Q499.648 194.397 497.588 195.531 Q495.528 196.666 492.657 196.666 Q487.889 196.666 484.972 193.031 Q482.055 189.397 482.055 183.402 Q482.055 177.383 484.972 173.749 Q487.889 170.115 492.657 170.115 Q495.528 170.115 497.588 171.249 Q499.648 172.383 500.967 174.675 L500.967 170.74 L505.227 170.74 L505.227 193.448 Z" fill="#000000" fill-rule="nonzero" fill-opacity="1" /><path clip-path="url(#clip070)" d="M536.176 182.638 L536.176 184.721 L516.592 184.721 Q516.87 189.119 519.231 191.434 Q521.615 193.726 525.852 193.726 Q528.305 193.726 530.597 193.124 Q532.912 192.522 535.18 191.318 L535.18 195.346 Q532.889 196.318 530.481 196.828 Q528.074 197.337 525.597 197.337 Q519.393 197.337 515.759 193.726 Q512.148 190.115 512.148 183.957 Q512.148 177.592 515.574 173.865 Q519.023 170.115 524.856 170.115 Q530.088 170.115 533.12 173.494 Q536.176 176.851 536.176 182.638 M531.916 181.388 Q531.87 177.893 529.949 175.809 Q528.051 173.726 524.902 173.726 Q521.338 173.726 519.185 175.74 Q517.055 177.754 516.731 181.411 L531.916 181.388 Z" fill="#000000" fill-rule="nonzero" fill-opacity="1" /><path clip-path="url(#clip070)" d="M564.717 181.017 L564.717 196.666 L560.458 196.666 L560.458 181.156 Q560.458 177.476 559.023 175.647 Q557.587 173.818 554.717 173.818 Q551.268 173.818 549.277 176.018 Q547.287 178.217 547.287 182.013 L547.287 196.666 L543.004 196.666 L543.004 170.74 L547.287 170.74 L547.287 174.768 Q548.814 172.43 550.875 171.272 Q552.958 170.115 555.666 170.115 Q560.134 170.115 562.425 172.893 Q564.717 175.647 564.717 181.017 Z" fill="#000000" fill-rule="nonzero" fill-opacity="1" /><path clip-path="url(#clip070)" d="M577.425 163.379 L577.425 170.74 L586.198 170.74 L586.198 174.05 L577.425 174.05 L577.425 188.124 Q577.425 191.295 578.282 192.198 Q579.161 193.101 581.823 193.101 L586.198 193.101 L586.198 196.666 L581.823 196.666 Q576.893 196.666 575.018 194.837 Q573.143 192.985 573.143 188.124 L573.143 174.05 L570.018 174.05 L570.018 170.74 L573.143 170.74 L573.143 163.379 L577.425 163.379 Z" fill="#000000" fill-rule="nonzero" fill-opacity="1" /><path clip-path="url(#clip070)" d="M606.87 160.647 L611.129 160.647 L611.129 196.666 L606.87 196.666 L606.87 160.647 Z" fill="#000000" fill-rule="nonzero" fill-opacity="1" /><path clip-path="url(#clip070)" d="M620.041 170.74 L624.3 170.74 L624.3 196.666 L620.041 196.666 L620.041 170.74 M620.041 160.647 L624.3 160.647 L624.3 166.041 L620.041 166.041 L620.041 160.647 Z" fill="#000000" fill-rule="nonzero" fill-opacity="1" /><path clip-path="url(#clip070)" d="M654.763 181.017 L654.763 196.666 L650.504 196.666 L650.504 181.156 Q650.504 177.476 649.068 175.647 Q647.633 173.818 644.763 173.818 Q641.314 173.818 639.323 176.018 Q637.332 178.217 637.332 182.013 L637.332 196.666 L633.05 196.666 L633.05 170.74 L637.332 170.74 L637.332 174.768 Q638.86 172.43 640.92 171.272 Q643.004 170.115 645.712 170.115 Q650.18 170.115 652.471 172.893 Q654.763 175.647 654.763 181.017 Z" fill="#000000" fill-rule="nonzero" fill-opacity="1" /><path clip-path="url(#clip070)" d="M685.434 182.638 L685.434 184.721 L665.851 184.721 Q666.129 189.119 668.49 191.434 Q670.874 193.726 675.11 193.726 Q677.564 193.726 679.855 193.124 Q682.17 192.522 684.439 191.318 L684.439 195.346 Q682.147 196.318 679.74 196.828 Q677.332 197.337 674.855 197.337 Q668.652 197.337 665.017 193.726 Q661.406 190.115 661.406 183.957 Q661.406 177.592 664.832 173.865 Q668.281 170.115 674.115 170.115 Q679.346 170.115 682.378 173.494 Q685.434 176.851 685.434 182.638 M681.175 181.388 Q681.128 177.893 679.207 175.809 Q677.309 173.726 674.161 173.726 Q670.596 173.726 668.443 175.74 Q666.314 177.754 665.99 181.411 L681.175 181.388 Z" fill="#000000" fill-rule="nonzero" fill-opacity="1" /></svg>
