<?xml version="1.0" encoding="utf-8"?>
<svg xmlns="http://www.w3.org/2000/svg" xmlns:xlink="http://www.w3.org/1999/xlink" width="600" height="300" viewBox="0 0 2400 1200">
<defs>
  <clipPath id="clip100">
    <rect x="0" y="0" width="2400" height="1200"/>
  </clipPath>
</defs>
<path clip-path="url(#clip100)" d="M0 1200 L2400 1200 L2400 0 L0 0  Z" fill="#ffffff" fill-rule="evenodd" fill-opacity="1"/>
<defs>
  <clipPath id="clip101">
    <rect x="395" y="47" width="1958" height="1001"/>
  </clipPath>
</defs>
<path clip-path="url(#clip100)" d="M395.995 1047.7 L2352.76 1047.7 L2352.76 47.2441 L395.995 47.2441  Z" fill="#ffffff" fill-rule="evenodd" fill-opacity="1"/>
<polyline clip-path="url(#clip101)" style="stroke:#000000; stroke-linecap:round; stroke-linejoin:round; stroke-width:2; stroke-opacity:0.1; fill:none" points="451.375,1047.7 451.375,47.2441 "/>
<polyline clip-path="url(#clip101)" style="stroke:#000000; stroke-linecap:round; stroke-linejoin:round; stroke-width:2; stroke-opacity:0.1; fill:none" points="952.543,1047.7 952.543,47.2441 "/>
<polyline clip-path="url(#clip101)" style="stroke:#000000; stroke-linecap:round; stroke-linejoin:round; stroke-width:2; stroke-opacity:0.1; fill:none" points="1453.71,1047.7 1453.71,47.2441 "/>
<polyline clip-path="url(#clip101)" style="stroke:#000000; stroke-linecap:round; stroke-linejoin:round; stroke-width:2; stroke-opacity:0.1; fill:none" points="1954.88,1047.7 1954.88,47.2441 "/>
<polyline clip-path="url(#clip101)" style="stroke:#000000; stroke-linecap:round; stroke-linejoin:round; stroke-width:2; stroke-opacity:0.1; fill:none" points="395.995,969.626 2352.76,969.626 "/>
<polyline clip-path="url(#clip101)" style="stroke:#000000; stroke-linecap:round; stroke-linejoin:round; stroke-width:2; stroke-opacity:0.1; fill:none" points="395.995,806.429 2352.76,806.429 "/>
<polyline clip-path="url(#clip101)" style="stroke:#000000; stroke-linecap:round; stroke-linejoin:round; stroke-width:2; stroke-opacity:0.1; fill:none" points="395.995,643.232 2352.76,643.232 "/>
<polyline clip-path="url(#clip101)" style="stroke:#000000; stroke-linecap:round; stroke-linejoin:round; stroke-width:2; stroke-opacity:0.1; fill:none" points="395.995,480.035 2352.76,480.035 "/>
<polyline clip-path="url(#clip101)" style="stroke:#000000; stroke-linecap:round; stroke-linejoin:round; stroke-width:2; stroke-opacity:0.1; fill:none" points="395.995,316.838 2352.76,316.838 "/>
<polyline clip-path="url(#clip101)" style="stroke:#000000; stroke-linecap:round; stroke-linejoin:round; stroke-width:2; stroke-opacity:0.1; fill:none" points="395.995,153.641 2352.76,153.641 "/>
<polyline clip-path="url(#clip100)" style="stroke:#000000; stroke-linecap:round; stroke-linejoin:round; stroke-width:4; stroke-opacity:1; fill:none" points="395.995,1047.7 2352.76,1047.7 "/>
<polyline clip-path="url(#clip100)" style="stroke:#000000; stroke-linecap:round; stroke-linejoin:round; stroke-width:4; stroke-opacity:1; fill:none" points="451.375,1047.7 451.375,1028.8 "/>
<polyline clip-path="url(#clip100)" style="stroke:#000000; stroke-linecap:round; stroke-linejoin:round; stroke-width:4; stroke-opacity:1; fill:none" points="952.543,1047.7 952.543,1028.8 "/>
<polyline clip-path="url(#clip100)" style="stroke:#000000; stroke-linecap:round; stroke-linejoin:round; stroke-width:4; stroke-opacity:1; fill:none" points="1453.71,1047.7 1453.71,1028.8 "/>
<polyline clip-path="url(#clip100)" style="stroke:#000000; stroke-linecap:round; stroke-linejoin:round; stroke-width:4; stroke-opacity:1; fill:none" points="1954.88,1047.7 1954.88,1028.8 "/>
<path clip-path="url(#clip100)" d="M451.375 1078.62 Q447.763 1078.62 445.935 1082.18 Q444.129 1085.72 444.129 1092.85 Q444.129 1099.96 445.935 1103.53 Q447.763 1107.07 451.375 1107.07 Q455.009 1107.07 456.814 1103.53 Q458.643 1099.96 458.643 1092.85 Q458.643 1085.72 456.814 1082.18 Q455.009 1078.62 451.375 1078.62 M451.375 1074.91 Q457.185 1074.91 460.24 1079.52 Q463.319 1084.1 463.319 1092.85 Q463.319 1101.58 460.24 1106.19 Q457.185 1110.77 451.375 1110.77 Q445.564 1110.77 442.486 1106.19 Q439.43 1101.58 439.43 1092.85 Q439.43 1084.1 442.486 1079.52 Q445.564 1074.91 451.375 1074.91 Z" fill="#000000" fill-rule="nonzero" fill-opacity="1" /><path clip-path="url(#clip100)" d="M947.196 1106.16 L963.515 1106.16 L963.515 1110.1 L941.571 1110.1 L941.571 1106.16 Q944.233 1103.41 948.816 1098.78 Q953.423 1094.13 954.603 1092.79 Q956.849 1090.26 957.728 1088.53 Q958.631 1086.77 958.631 1085.08 Q958.631 1082.32 956.686 1080.59 Q954.765 1078.85 951.663 1078.85 Q949.464 1078.85 947.011 1079.61 Q944.58 1080.38 941.802 1081.93 L941.802 1077.21 Q944.626 1076.07 947.08 1075.49 Q949.534 1074.91 951.571 1074.91 Q956.941 1074.91 960.136 1077.6 Q963.33 1080.29 963.33 1084.78 Q963.33 1086.91 962.52 1088.83 Q961.733 1090.72 959.626 1093.32 Q959.048 1093.99 955.946 1097.21 Q952.844 1100.4 947.196 1106.16 Z" fill="#000000" fill-rule="nonzero" fill-opacity="1" /><path clip-path="url(#clip100)" d="M1456.72 1079.61 L1444.92 1098.06 L1456.72 1098.06 L1456.72 1079.61 M1455.49 1075.54 L1461.37 1075.54 L1461.37 1098.06 L1466.3 1098.06 L1466.3 1101.95 L1461.37 1101.95 L1461.37 1110.1 L1456.72 1110.1 L1456.72 1101.95 L1441.12 1101.95 L1441.12 1097.44 L1455.49 1075.54 Z" fill="#000000" fill-rule="nonzero" fill-opacity="1" /><path clip-path="url(#clip100)" d="M1955.28 1090.96 Q1952.14 1090.96 1950.28 1093.11 Q1948.46 1095.26 1948.46 1099.01 Q1948.46 1102.74 1950.28 1104.91 Q1952.14 1107.07 1955.28 1107.07 Q1958.43 1107.07 1960.26 1104.91 Q1962.11 1102.74 1962.11 1099.01 Q1962.11 1095.26 1960.26 1093.11 Q1958.43 1090.96 1955.28 1090.96 M1964.57 1076.3 L1964.57 1080.56 Q1962.81 1079.73 1961 1079.29 Q1959.22 1078.85 1957.46 1078.85 Q1952.83 1078.85 1950.38 1081.97 Q1947.95 1085.1 1947.6 1091.42 Q1948.97 1089.41 1951.03 1088.34 Q1953.09 1087.25 1955.56 1087.25 Q1960.77 1087.25 1963.78 1090.42 Q1966.81 1093.57 1966.81 1099.01 Q1966.81 1104.34 1963.66 1107.55 Q1960.52 1110.77 1955.28 1110.77 Q1949.29 1110.77 1946.12 1106.19 Q1942.95 1101.58 1942.95 1092.85 Q1942.95 1084.66 1946.84 1079.8 Q1950.72 1074.91 1957.28 1074.91 Q1959.03 1074.91 1960.82 1075.26 Q1962.62 1075.61 1964.57 1076.3 Z" fill="#000000" fill-rule="nonzero" fill-opacity="1" /><path clip-path="url(#clip100)" d="M1104.71 1145.04 L1111.14 1145.04 L1111.14 1187.15 L1134.28 1187.15 L1134.28 1192.56 L1104.71 1192.56 L1104.71 1145.04 Z" fill="#000000" fill-rule="nonzero" fill-opacity="1" /><path clip-path="url(#clip100)" d="M1153.44 1161.02 Q1148.73 1161.02 1145.99 1164.71 Q1143.25 1168.37 1143.25 1174.77 Q1143.25 1181.17 1145.96 1184.86 Q1148.69 1188.52 1153.44 1188.52 Q1158.12 1188.52 1160.85 1184.83 Q1163.59 1181.14 1163.59 1174.77 Q1163.59 1168.44 1160.85 1164.75 Q1158.12 1161.02 1153.44 1161.02 M1153.44 1156.06 Q1161.08 1156.06 1165.44 1161.02 Q1169.8 1165.99 1169.8 1174.77 Q1169.8 1183.52 1165.44 1188.52 Q1161.08 1193.49 1153.44 1193.49 Q1145.77 1193.49 1141.41 1188.52 Q1137.08 1183.52 1137.08 1174.77 Q1137.08 1165.99 1141.41 1161.02 Q1145.77 1156.06 1153.44 1156.06 Z" fill="#000000" fill-rule="nonzero" fill-opacity="1" /><path clip-path="url(#clip100)" d="M1195.71 1174.64 Q1188.61 1174.64 1185.87 1176.27 Q1183.13 1177.89 1183.13 1181.81 Q1183.13 1184.92 1185.17 1186.77 Q1187.24 1188.59 1190.77 1188.59 Q1195.64 1188.59 1198.57 1185.15 Q1201.53 1181.68 1201.53 1175.95 L1201.53 1174.64 L1195.71 1174.64 M1207.39 1172.23 L1207.39 1192.56 L1201.53 1192.56 L1201.53 1187.15 Q1199.53 1190.4 1196.53 1191.96 Q1193.54 1193.49 1189.21 1193.49 Q1183.74 1193.49 1180.49 1190.43 Q1177.28 1187.34 1177.28 1182.19 Q1177.28 1176.17 1181.29 1173.12 Q1185.33 1170.06 1193.32 1170.06 L1201.53 1170.06 L1201.53 1169.49 Q1201.53 1165.45 1198.86 1163.25 Q1196.21 1161.02 1191.41 1161.02 Q1188.35 1161.02 1185.46 1161.75 Q1182.56 1162.49 1179.89 1163.95 L1179.89 1158.54 Q1183.1 1157.3 1186.13 1156.69 Q1189.15 1156.06 1192.01 1156.06 Q1199.75 1156.06 1203.57 1160.07 Q1207.39 1164.08 1207.39 1172.23 Z" fill="#000000" fill-rule="nonzero" fill-opacity="1" /><path clip-path="url(#clip100)" d="M1242.91 1162.33 L1242.91 1143.04 L1248.76 1143.04 L1248.76 1192.56 L1242.91 1192.56 L1242.91 1187.22 Q1241.06 1190.4 1238.23 1191.96 Q1235.43 1193.49 1231.48 1193.49 Q1225.02 1193.49 1220.95 1188.33 Q1216.9 1183.17 1216.9 1174.77 Q1216.9 1166.37 1220.95 1161.21 Q1225.02 1156.06 1231.48 1156.06 Q1235.43 1156.06 1238.23 1157.62 Q1241.06 1159.14 1242.91 1162.33 M1222.95 1174.77 Q1222.95 1181.23 1225.59 1184.92 Q1228.27 1188.59 1232.91 1188.59 Q1237.56 1188.59 1240.23 1184.92 Q1242.91 1181.23 1242.91 1174.77 Q1242.91 1168.31 1240.23 1164.65 Q1237.56 1160.96 1232.91 1160.96 Q1228.27 1160.96 1225.59 1164.65 Q1222.95 1168.31 1222.95 1174.77 Z" fill="#000000" fill-rule="nonzero" fill-opacity="1" /><path clip-path="url(#clip100)" d="M1260.83 1156.92 L1266.68 1156.92 L1266.68 1192.56 L1260.83 1192.56 L1260.83 1156.92 M1260.83 1143.04 L1266.68 1143.04 L1266.68 1150.45 L1260.83 1150.45 L1260.83 1143.04 Z" fill="#000000" fill-rule="nonzero" fill-opacity="1" /><path clip-path="url(#clip100)" d="M1308.57 1171.05 L1308.57 1192.56 L1302.71 1192.56 L1302.71 1171.24 Q1302.71 1166.18 1300.74 1163.66 Q1298.77 1161.15 1294.82 1161.15 Q1290.08 1161.15 1287.34 1164.17 Q1284.6 1167.2 1284.6 1172.42 L1284.6 1192.56 L1278.71 1192.56 L1278.71 1156.92 L1284.6 1156.92 L1284.6 1162.45 Q1286.7 1159.24 1289.54 1157.65 Q1292.4 1156.06 1296.12 1156.06 Q1302.27 1156.06 1305.42 1159.88 Q1308.57 1163.66 1308.57 1171.05 Z" fill="#000000" fill-rule="nonzero" fill-opacity="1" /><path clip-path="url(#clip100)" d="M1343.71 1174.33 Q1343.71 1167.96 1341.07 1164.46 Q1338.46 1160.96 1333.71 1160.96 Q1329 1160.96 1326.36 1164.46 Q1323.75 1167.96 1323.75 1174.33 Q1323.75 1180.66 1326.36 1184.16 Q1329 1187.66 1333.71 1187.66 Q1338.46 1187.66 1341.07 1184.16 Q1343.71 1180.66 1343.71 1174.33 M1349.56 1188.14 Q1349.56 1197.24 1345.52 1201.67 Q1341.48 1206.12 1333.14 1206.12 Q1330.05 1206.12 1327.32 1205.65 Q1324.58 1205.2 1322 1204.24 L1322 1198.55 Q1324.58 1199.95 1327.09 1200.62 Q1329.61 1201.28 1332.22 1201.28 Q1337.98 1201.28 1340.84 1198.26 Q1343.71 1195.27 1343.71 1189.19 L1343.71 1186.29 Q1341.89 1189.44 1339.06 1191 Q1336.23 1192.56 1332.28 1192.56 Q1325.73 1192.56 1321.71 1187.57 Q1317.7 1182.57 1317.7 1174.33 Q1317.7 1166.05 1321.71 1161.05 Q1325.73 1156.06 1332.28 1156.06 Q1336.23 1156.06 1339.06 1157.62 Q1341.89 1159.18 1343.71 1162.33 L1343.71 1156.92 L1349.56 1156.92 L1349.56 1188.14 Z" fill="#000000" fill-rule="nonzero" fill-opacity="1" /><path clip-path="url(#clip100)" d="M1396.42 1143.1 Q1392.15 1150.42 1390.08 1157.58 Q1388.01 1164.75 1388.01 1172.1 Q1388.01 1179.45 1390.08 1186.68 Q1392.18 1193.87 1396.42 1201.16 L1391.32 1201.16 Q1386.55 1193.68 1384.16 1186.45 Q1381.81 1179.23 1381.81 1172.1 Q1381.81 1165 1384.16 1157.81 Q1386.52 1150.61 1391.32 1143.1 L1396.42 1143.1 Z" fill="#000000" fill-rule="nonzero" fill-opacity="1" /><path clip-path="url(#clip100)" d="M1435.53 1163.76 Q1437.73 1159.81 1440.79 1157.93 Q1443.84 1156.06 1447.98 1156.06 Q1453.55 1156.06 1456.57 1159.97 Q1459.6 1163.85 1459.6 1171.05 L1459.6 1192.56 L1453.71 1192.56 L1453.71 1171.24 Q1453.71 1166.11 1451.89 1163.63 Q1450.08 1161.15 1446.36 1161.15 Q1441.8 1161.15 1439.16 1164.17 Q1436.52 1167.2 1436.52 1172.42 L1436.52 1192.56 L1430.63 1192.56 L1430.63 1171.24 Q1430.63 1166.08 1428.82 1163.63 Q1427 1161.15 1423.22 1161.15 Q1418.73 1161.15 1416.09 1164.2 Q1413.44 1167.23 1413.44 1172.42 L1413.44 1192.56 L1407.56 1192.56 L1407.56 1156.92 L1413.44 1156.92 L1413.44 1162.45 Q1415.45 1159.18 1418.25 1157.62 Q1421.05 1156.06 1424.9 1156.06 Q1428.79 1156.06 1431.49 1158.03 Q1434.23 1160 1435.53 1163.76 Z" fill="#000000" fill-rule="nonzero" fill-opacity="1" /><path clip-path="url(#clip100)" d="M1485.09 1161.02 Q1480.38 1161.02 1477.64 1164.71 Q1474.91 1168.37 1474.91 1174.77 Q1474.91 1181.17 1477.61 1184.86 Q1480.35 1188.52 1485.09 1188.52 Q1489.77 1188.52 1492.51 1184.83 Q1495.24 1181.14 1495.24 1174.77 Q1495.24 1168.44 1492.51 1164.75 Q1489.77 1161.02 1485.09 1161.02 M1485.09 1156.06 Q1492.73 1156.06 1497.09 1161.02 Q1501.45 1165.99 1501.45 1174.77 Q1501.45 1183.52 1497.09 1188.52 Q1492.73 1193.49 1485.09 1193.49 Q1477.42 1193.49 1473.06 1188.52 Q1468.73 1183.52 1468.73 1174.77 Q1468.73 1165.99 1473.06 1161.02 Q1477.42 1156.06 1485.09 1156.06 Z" fill="#000000" fill-rule="nonzero" fill-opacity="1" /><path clip-path="url(#clip100)" d="M1511.16 1143.04 L1517.01 1143.04 L1517.01 1192.56 L1511.16 1192.56 L1511.16 1143.04 Z" fill="#000000" fill-rule="nonzero" fill-opacity="1" /><path clip-path="url(#clip100)" d="M1539.68 1145.04 L1545.09 1145.04 L1528.54 1198.61 L1523.13 1198.61 L1539.68 1145.04 Z" fill="#000000" fill-rule="nonzero" fill-opacity="1" /><path clip-path="url(#clip100)" d="M1551.01 1143.04 L1556.9 1143.04 L1556.9 1172.29 L1574.37 1156.92 L1581.85 1156.92 L1562.94 1173.59 L1582.65 1192.56 L1575.01 1192.56 L1556.9 1175.15 L1556.9 1192.56 L1551.01 1192.56 L1551.01 1143.04 Z" fill="#000000" fill-rule="nonzero" fill-opacity="1" /><path clip-path="url(#clip100)" d="M1612.44 1174.33 Q1612.44 1167.96 1609.79 1164.46 Q1607.19 1160.96 1602.44 1160.96 Q1597.73 1160.96 1595.09 1164.46 Q1592.48 1167.96 1592.48 1174.33 Q1592.48 1180.66 1595.09 1184.16 Q1597.73 1187.66 1602.44 1187.66 Q1607.19 1187.66 1609.79 1184.16 Q1612.44 1180.66 1612.44 1174.33 M1618.29 1188.14 Q1618.29 1197.24 1614.25 1201.67 Q1610.21 1206.12 1601.87 1206.12 Q1598.78 1206.12 1596.05 1205.65 Q1593.31 1205.2 1590.73 1204.24 L1590.73 1198.55 Q1593.31 1199.95 1595.82 1200.62 Q1598.34 1201.28 1600.95 1201.28 Q1606.71 1201.28 1609.57 1198.26 Q1612.44 1195.27 1612.44 1189.19 L1612.44 1186.29 Q1610.62 1189.44 1607.79 1191 Q1604.96 1192.56 1601.01 1192.56 Q1594.45 1192.56 1590.44 1187.57 Q1586.43 1182.57 1586.43 1174.33 Q1586.43 1166.05 1590.44 1161.05 Q1594.45 1156.06 1601.01 1156.06 Q1604.96 1156.06 1607.79 1157.62 Q1610.62 1159.18 1612.44 1162.33 L1612.44 1156.92 L1618.29 1156.92 L1618.29 1188.14 Z" fill="#000000" fill-rule="nonzero" fill-opacity="1" /><path clip-path="url(#clip100)" d="M1629.43 1143.1 L1634.53 1143.1 Q1639.3 1150.61 1641.66 1157.81 Q1644.04 1165 1644.04 1172.1 Q1644.04 1179.23 1641.66 1186.45 Q1639.3 1193.68 1634.53 1201.16 L1629.43 1201.16 Q1633.67 1193.87 1635.74 1186.68 Q1637.84 1179.45 1637.84 1172.1 Q1637.84 1164.75 1635.74 1157.58 Q1633.67 1150.42 1629.43 1143.1 Z" fill="#000000" fill-rule="nonzero" fill-opacity="1" /><polyline clip-path="url(#clip100)" style="stroke:#000000; stroke-linecap:round; stroke-linejoin:round; stroke-width:4; stroke-opacity:1; fill:none" points="395.995,1047.7 395.995,47.2441 "/>
<polyline clip-path="url(#clip100)" style="stroke:#000000; stroke-linecap:round; stroke-linejoin:round; stroke-width:4; stroke-opacity:1; fill:none" points="395.995,969.626 414.892,969.626 "/>
<polyline clip-path="url(#clip100)" style="stroke:#000000; stroke-linecap:round; stroke-linejoin:round; stroke-width:4; stroke-opacity:1; fill:none" points="395.995,806.429 414.892,806.429 "/>
<polyline clip-path="url(#clip100)" style="stroke:#000000; stroke-linecap:round; stroke-linejoin:round; stroke-width:4; stroke-opacity:1; fill:none" points="395.995,643.232 414.892,643.232 "/>
<polyline clip-path="url(#clip100)" style="stroke:#000000; stroke-linecap:round; stroke-linejoin:round; stroke-width:4; stroke-opacity:1; fill:none" points="395.995,480.035 414.892,480.035 "/>
<polyline clip-path="url(#clip100)" style="stroke:#000000; stroke-linecap:round; stroke-linejoin:round; stroke-width:4; stroke-opacity:1; fill:none" points="395.995,316.838 414.892,316.838 "/>
<polyline clip-path="url(#clip100)" style="stroke:#000000; stroke-linecap:round; stroke-linejoin:round; stroke-width:4; stroke-opacity:1; fill:none" points="395.995,153.641 414.892,153.641 "/>
<path clip-path="url(#clip100)" d="M102.38 976.525 L132.056 976.525 L132.056 980.461 L102.38 980.461 L102.38 976.525 Z" fill="#000000" fill-rule="nonzero" fill-opacity="1" /><path clip-path="url(#clip100)" d="M154.996 962.868 L143.19 981.317 L154.996 981.317 L154.996 962.868 M153.769 958.794 L159.648 958.794 L159.648 981.317 L164.579 981.317 L164.579 985.206 L159.648 985.206 L159.648 993.354 L154.996 993.354 L154.996 985.206 L139.394 985.206 L139.394 980.692 L153.769 958.794 Z" fill="#000000" fill-rule="nonzero" fill-opacity="1" /><path clip-path="url(#clip100)" d="M172.31 987.474 L177.195 987.474 L177.195 993.354 L172.31 993.354 L172.31 987.474 Z" fill="#000000" fill-rule="nonzero" fill-opacity="1" /><path clip-path="url(#clip100)" d="M197.38 961.873 Q193.769 961.873 191.94 965.438 Q190.134 968.979 190.134 976.109 Q190.134 983.215 191.94 986.78 Q193.769 990.322 197.38 990.322 Q201.014 990.322 202.819 986.78 Q204.648 983.215 204.648 976.109 Q204.648 968.979 202.819 965.438 Q201.014 961.873 197.38 961.873 M197.38 958.169 Q203.19 958.169 206.245 962.776 Q209.324 967.359 209.324 976.109 Q209.324 984.836 206.245 989.442 Q203.19 994.025 197.38 994.025 Q191.569 994.025 188.491 989.442 Q185.435 984.836 185.435 976.109 Q185.435 967.359 188.491 962.776 Q191.569 958.169 197.38 958.169 Z" fill="#000000" fill-rule="nonzero" fill-opacity="1" /><path clip-path="url(#clip100)" d="M227.542 961.873 Q223.93 961.873 222.102 965.438 Q220.296 968.979 220.296 976.109 Q220.296 983.215 222.102 986.78 Q223.93 990.322 227.542 990.322 Q231.176 990.322 232.981 986.78 Q234.81 983.215 234.81 976.109 Q234.81 968.979 232.981 965.438 Q231.176 961.873 227.542 961.873 M227.542 958.169 Q233.352 958.169 236.407 962.776 Q239.486 967.359 239.486 976.109 Q239.486 984.836 236.407 989.442 Q233.352 994.025 227.542 994.025 Q221.731 994.025 218.653 989.442 Q215.597 984.836 215.597 976.109 Q215.597 967.359 218.653 962.776 Q221.731 958.169 227.542 958.169 Z" fill="#000000" fill-rule="nonzero" fill-opacity="1" /><path clip-path="url(#clip100)" d="M275.875 967.891 L265.296 978.516 L275.875 989.095 L273.12 991.896 L262.495 981.271 L251.87 991.896 L249.139 989.095 L259.694 978.516 L249.139 967.891 L251.87 965.09 L262.495 975.715 L273.12 965.09 L275.875 967.891 Z" fill="#000000" fill-rule="nonzero" fill-opacity="1" /><path clip-path="url(#clip100)" d="M288.236 989.419 L295.874 989.419 L295.874 963.053 L287.564 964.72 L287.564 960.461 L295.828 958.794 L300.504 958.794 L300.504 989.419 L308.143 989.419 L308.143 993.354 L288.236 993.354 L288.236 989.419 Z" fill="#000000" fill-rule="nonzero" fill-opacity="1" /><path clip-path="url(#clip100)" d="M327.587 961.873 Q323.976 961.873 322.147 965.438 Q320.342 968.979 320.342 976.109 Q320.342 983.215 322.147 986.78 Q323.976 990.322 327.587 990.322 Q331.222 990.322 333.027 986.78 Q334.856 983.215 334.856 976.109 Q334.856 968.979 333.027 965.438 Q331.222 961.873 327.587 961.873 M327.587 958.169 Q333.397 958.169 336.453 962.776 Q339.532 967.359 339.532 976.109 Q339.532 984.836 336.453 989.442 Q333.397 994.025 327.587 994.025 Q321.777 994.025 318.698 989.442 Q315.643 984.836 315.643 976.109 Q315.643 967.359 318.698 962.776 Q321.777 958.169 327.587 958.169 Z" fill="#000000" fill-rule="nonzero" fill-opacity="1" /><path clip-path="url(#clip100)" d="M352.208 941.174 L342.616 956.164 L352.208 956.164 L352.208 941.174 M351.211 937.864 L355.988 937.864 L355.988 956.164 L359.995 956.164 L359.995 959.323 L355.988 959.323 L355.988 965.944 L352.208 965.944 L352.208 959.323 L339.532 959.323 L339.532 955.656 L351.211 937.864 Z" fill="#000000" fill-rule="nonzero" fill-opacity="1" /><path clip-path="url(#clip100)" d="M102.38 813.328 L132.056 813.328 L132.056 817.263 L102.38 817.263 L102.38 813.328 Z" fill="#000000" fill-rule="nonzero" fill-opacity="1" /><path clip-path="url(#clip100)" d="M156.315 811.523 Q159.672 812.24 161.547 814.509 Q163.445 816.777 163.445 820.111 Q163.445 825.226 159.926 828.027 Q156.408 830.828 149.926 830.828 Q147.75 830.828 145.435 830.388 Q143.144 829.972 140.69 829.115 L140.69 824.601 Q142.635 825.736 144.949 826.314 Q147.264 826.893 149.787 826.893 Q154.185 826.893 156.477 825.157 Q158.792 823.421 158.792 820.111 Q158.792 817.055 156.639 815.342 Q154.51 813.606 150.69 813.606 L146.662 813.606 L146.662 809.763 L150.875 809.763 Q154.324 809.763 156.153 808.398 Q157.982 807.009 157.982 804.416 Q157.982 801.754 156.084 800.342 Q154.209 798.907 150.69 798.907 Q148.769 798.907 146.57 799.324 Q144.371 799.74 141.732 800.62 L141.732 796.453 Q144.394 795.713 146.709 795.342 Q149.047 794.972 151.107 794.972 Q156.431 794.972 159.533 797.402 Q162.634 799.81 162.634 803.93 Q162.634 806.801 160.991 808.791 Q159.347 810.759 156.315 811.523 Z" fill="#000000" fill-rule="nonzero" fill-opacity="1" /><path clip-path="url(#clip100)" d="M172.31 824.277 L177.195 824.277 L177.195 830.157 L172.31 830.157 L172.31 824.277 Z" fill="#000000" fill-rule="nonzero" fill-opacity="1" /><path clip-path="url(#clip100)" d="M187.426 795.597 L205.782 795.597 L205.782 799.532 L191.708 799.532 L191.708 808.004 Q192.727 807.657 193.745 807.495 Q194.764 807.31 195.782 807.31 Q201.569 807.31 204.949 810.481 Q208.329 813.652 208.329 819.069 Q208.329 824.648 204.856 827.749 Q201.384 830.828 195.065 830.828 Q192.889 830.828 190.62 830.458 Q188.375 830.087 185.968 829.347 L185.968 824.648 Q188.051 825.782 190.273 826.337 Q192.495 826.893 194.972 826.893 Q198.977 826.893 201.315 824.787 Q203.653 822.68 203.653 819.069 Q203.653 815.458 201.315 813.351 Q198.977 811.245 194.972 811.245 Q193.097 811.245 191.222 811.662 Q189.37 812.078 187.426 812.958 L187.426 795.597 Z" fill="#000000" fill-rule="nonzero" fill-opacity="1" /><path clip-path="url(#clip100)" d="M227.542 798.676 Q223.93 798.676 222.102 802.24 Q220.296 805.782 220.296 812.912 Q220.296 820.018 222.102 823.583 Q223.93 827.124 227.542 827.124 Q231.176 827.124 232.981 823.583 Q234.81 820.018 234.81 812.912 Q234.81 805.782 232.981 802.24 Q231.176 798.676 227.542 798.676 M227.542 794.972 Q233.352 794.972 236.407 799.578 Q239.486 804.162 239.486 812.912 Q239.486 821.638 236.407 826.245 Q233.352 830.828 227.542 830.828 Q221.731 830.828 218.653 826.245 Q215.597 821.638 215.597 812.912 Q215.597 804.162 218.653 799.578 Q221.731 794.972 227.542 794.972 Z" fill="#000000" fill-rule="nonzero" fill-opacity="1" /><path clip-path="url(#clip100)" d="M275.875 804.694 L265.296 815.319 L275.875 825.898 L273.12 828.699 L262.495 818.074 L251.87 828.699 L249.139 825.898 L259.694 815.319 L249.139 804.694 L251.87 801.893 L262.495 812.518 L273.12 801.893 L275.875 804.694 Z" fill="#000000" fill-rule="nonzero" fill-opacity="1" /><path clip-path="url(#clip100)" d="M288.236 826.222 L295.874 826.222 L295.874 799.856 L287.564 801.523 L287.564 797.264 L295.828 795.597 L300.504 795.597 L300.504 826.222 L308.143 826.222 L308.143 830.157 L288.236 830.157 L288.236 826.222 Z" fill="#000000" fill-rule="nonzero" fill-opacity="1" /><path clip-path="url(#clip100)" d="M327.587 798.676 Q323.976 798.676 322.147 802.24 Q320.342 805.782 320.342 812.912 Q320.342 820.018 322.147 823.583 Q323.976 827.124 327.587 827.124 Q331.222 827.124 333.027 823.583 Q334.856 820.018 334.856 812.912 Q334.856 805.782 333.027 802.24 Q331.222 798.676 327.587 798.676 M327.587 794.972 Q333.397 794.972 336.453 799.578 Q339.532 804.162 339.532 812.912 Q339.532 821.638 336.453 826.245 Q333.397 830.828 327.587 830.828 Q321.777 830.828 318.698 826.245 Q315.643 821.638 315.643 812.912 Q315.643 804.162 318.698 799.578 Q321.777 794.972 327.587 794.972 Z" fill="#000000" fill-rule="nonzero" fill-opacity="1" /><path clip-path="url(#clip100)" d="M352.208 777.977 L342.616 792.966 L352.208 792.966 L352.208 777.977 M351.211 774.666 L355.988 774.666 L355.988 792.966 L359.995 792.966 L359.995 796.126 L355.988 796.126 L355.988 802.746 L352.208 802.746 L352.208 796.126 L339.532 796.126 L339.532 792.459 L351.211 774.666 Z" fill="#000000" fill-rule="nonzero" fill-opacity="1" /><path clip-path="url(#clip100)" d="M102.38 650.131 L132.056 650.131 L132.056 654.066 L102.38 654.066 L102.38 650.131 Z" fill="#000000" fill-rule="nonzero" fill-opacity="1" /><path clip-path="url(#clip100)" d="M156.315 648.326 Q159.672 649.043 161.547 651.312 Q163.445 653.58 163.445 656.913 Q163.445 662.029 159.926 664.83 Q156.408 667.631 149.926 667.631 Q147.75 667.631 145.435 667.191 Q143.144 666.775 140.69 665.918 L140.69 661.404 Q142.635 662.538 144.949 663.117 Q147.264 663.696 149.787 663.696 Q154.185 663.696 156.477 661.96 Q158.792 660.224 158.792 656.913 Q158.792 653.858 156.639 652.145 Q154.51 650.409 150.69 650.409 L146.662 650.409 L146.662 646.566 L150.875 646.566 Q154.324 646.566 156.153 645.201 Q157.982 643.812 157.982 641.219 Q157.982 638.557 156.084 637.145 Q154.209 635.71 150.69 635.71 Q148.769 635.71 146.57 636.127 Q144.371 636.543 141.732 637.423 L141.732 633.256 Q144.394 632.515 146.709 632.145 Q149.047 631.775 151.107 631.775 Q156.431 631.775 159.533 634.205 Q162.634 636.613 162.634 640.733 Q162.634 643.603 160.991 645.594 Q159.347 647.562 156.315 648.326 Z" fill="#000000" fill-rule="nonzero" fill-opacity="1" /><path clip-path="url(#clip100)" d="M172.31 661.08 L177.195 661.08 L177.195 666.96 L172.31 666.96 L172.31 661.08 Z" fill="#000000" fill-rule="nonzero" fill-opacity="1" /><path clip-path="url(#clip100)" d="M197.38 635.478 Q193.769 635.478 191.94 639.043 Q190.134 642.585 190.134 649.714 Q190.134 656.821 191.94 660.386 Q193.769 663.927 197.38 663.927 Q201.014 663.927 202.819 660.386 Q204.648 656.821 204.648 649.714 Q204.648 642.585 202.819 639.043 Q201.014 635.478 197.38 635.478 M197.38 631.775 Q203.19 631.775 206.245 636.381 Q209.324 640.964 209.324 649.714 Q209.324 658.441 206.245 663.048 Q203.19 667.631 197.38 667.631 Q191.569 667.631 188.491 663.048 Q185.435 658.441 185.435 649.714 Q185.435 640.964 188.491 636.381 Q191.569 631.775 197.38 631.775 Z" fill="#000000" fill-rule="nonzero" fill-opacity="1" /><path clip-path="url(#clip100)" d="M227.542 635.478 Q223.93 635.478 222.102 639.043 Q220.296 642.585 220.296 649.714 Q220.296 656.821 222.102 660.386 Q223.93 663.927 227.542 663.927 Q231.176 663.927 232.981 660.386 Q234.81 656.821 234.81 649.714 Q234.81 642.585 232.981 639.043 Q231.176 635.478 227.542 635.478 M227.542 631.775 Q233.352 631.775 236.407 636.381 Q239.486 640.964 239.486 649.714 Q239.486 658.441 236.407 663.048 Q233.352 667.631 227.542 667.631 Q221.731 667.631 218.653 663.048 Q215.597 658.441 215.597 649.714 Q215.597 640.964 218.653 636.381 Q221.731 631.775 227.542 631.775 Z" fill="#000000" fill-rule="nonzero" fill-opacity="1" /><path clip-path="url(#clip100)" d="M275.875 641.497 L265.296 652.122 L275.875 662.7 L273.12 665.501 L262.495 654.876 L251.87 665.501 L249.139 662.7 L259.694 652.122 L249.139 641.497 L251.87 638.696 L262.495 649.321 L273.12 638.696 L275.875 641.497 Z" fill="#000000" fill-rule="nonzero" fill-opacity="1" /><path clip-path="url(#clip100)" d="M288.236 663.025 L295.874 663.025 L295.874 636.659 L287.564 638.326 L287.564 634.066 L295.828 632.4 L300.504 632.4 L300.504 663.025 L308.143 663.025 L308.143 666.96 L288.236 666.96 L288.236 663.025 Z" fill="#000000" fill-rule="nonzero" fill-opacity="1" /><path clip-path="url(#clip100)" d="M327.587 635.478 Q323.976 635.478 322.147 639.043 Q320.342 642.585 320.342 649.714 Q320.342 656.821 322.147 660.386 Q323.976 663.927 327.587 663.927 Q331.222 663.927 333.027 660.386 Q334.856 656.821 334.856 649.714 Q334.856 642.585 333.027 639.043 Q331.222 635.478 327.587 635.478 M327.587 631.775 Q333.397 631.775 336.453 636.381 Q339.532 640.964 339.532 649.714 Q339.532 658.441 336.453 663.048 Q333.397 667.631 327.587 667.631 Q321.777 667.631 318.698 663.048 Q315.643 658.441 315.643 649.714 Q315.643 640.964 318.698 636.381 Q321.777 631.775 327.587 631.775 Z" fill="#000000" fill-rule="nonzero" fill-opacity="1" /><path clip-path="url(#clip100)" d="M352.208 614.779 L342.616 629.769 L352.208 629.769 L352.208 614.779 M351.211 611.469 L355.988 611.469 L355.988 629.769 L359.995 629.769 L359.995 632.929 L355.988 632.929 L355.988 639.549 L352.208 639.549 L352.208 632.929 L339.532 632.929 L339.532 629.261 L351.211 611.469 Z" fill="#000000" fill-rule="nonzero" fill-opacity="1" /><path clip-path="url(#clip100)" d="M102.38 486.934 L132.056 486.934 L132.056 490.869 L102.38 490.869 L102.38 486.934 Z" fill="#000000" fill-rule="nonzero" fill-opacity="1" /><path clip-path="url(#clip100)" d="M146.176 499.827 L162.496 499.827 L162.496 503.763 L140.551 503.763 L140.551 499.827 Q143.213 497.073 147.797 492.443 Q152.403 487.79 153.584 486.448 Q155.829 483.925 156.709 482.189 Q157.611 480.429 157.611 478.74 Q157.611 475.985 155.667 474.249 Q153.746 472.513 150.644 472.513 Q148.445 472.513 145.991 473.277 Q143.56 474.04 140.783 475.591 L140.783 470.869 Q143.607 469.735 146.06 469.156 Q148.514 468.578 150.551 468.578 Q155.922 468.578 159.116 471.263 Q162.31 473.948 162.31 478.439 Q162.31 480.568 161.5 482.489 Q160.713 484.388 158.607 486.98 Q158.028 487.652 154.926 490.869 Q151.824 494.064 146.176 499.827 Z" fill="#000000" fill-rule="nonzero" fill-opacity="1" /><path clip-path="url(#clip100)" d="M172.31 497.883 L177.195 497.883 L177.195 503.763 L172.31 503.763 L172.31 497.883 Z" fill="#000000" fill-rule="nonzero" fill-opacity="1" /><path clip-path="url(#clip100)" d="M187.426 469.203 L205.782 469.203 L205.782 473.138 L191.708 473.138 L191.708 481.61 Q192.727 481.263 193.745 481.101 Q194.764 480.915 195.782 480.915 Q201.569 480.915 204.949 484.087 Q208.329 487.258 208.329 492.675 Q208.329 498.253 204.856 501.355 Q201.384 504.434 195.065 504.434 Q192.889 504.434 190.62 504.063 Q188.375 503.693 185.968 502.952 L185.968 498.253 Q188.051 499.388 190.273 499.943 Q192.495 500.499 194.972 500.499 Q198.977 500.499 201.315 498.392 Q203.653 496.286 203.653 492.675 Q203.653 489.064 201.315 486.957 Q198.977 484.851 194.972 484.851 Q193.097 484.851 191.222 485.267 Q189.37 485.684 187.426 486.564 L187.426 469.203 Z" fill="#000000" fill-rule="nonzero" fill-opacity="1" /><path clip-path="url(#clip100)" d="M227.542 472.281 Q223.93 472.281 222.102 475.846 Q220.296 479.388 220.296 486.517 Q220.296 493.624 222.102 497.188 Q223.93 500.73 227.542 500.73 Q231.176 500.73 232.981 497.188 Q234.81 493.624 234.81 486.517 Q234.81 479.388 232.981 475.846 Q231.176 472.281 227.542 472.281 M227.542 468.578 Q233.352 468.578 236.407 473.184 Q239.486 477.767 239.486 486.517 Q239.486 495.244 236.407 499.851 Q233.352 504.434 227.542 504.434 Q221.731 504.434 218.653 499.851 Q215.597 495.244 215.597 486.517 Q215.597 477.767 218.653 473.184 Q221.731 468.578 227.542 468.578 Z" fill="#000000" fill-rule="nonzero" fill-opacity="1" /><path clip-path="url(#clip100)" d="M275.875 478.3 L265.296 488.925 L275.875 499.503 L273.12 502.304 L262.495 491.679 L251.87 502.304 L249.139 499.503 L259.694 488.925 L249.139 478.3 L251.87 475.499 L262.495 486.124 L273.12 475.499 L275.875 478.3 Z" fill="#000000" fill-rule="nonzero" fill-opacity="1" /><path clip-path="url(#clip100)" d="M288.236 499.827 L295.874 499.827 L295.874 473.462 L287.564 475.128 L287.564 470.869 L295.828 469.203 L300.504 469.203 L300.504 499.827 L308.143 499.827 L308.143 503.763 L288.236 503.763 L288.236 499.827 Z" fill="#000000" fill-rule="nonzero" fill-opacity="1" /><path clip-path="url(#clip100)" d="M327.587 472.281 Q323.976 472.281 322.147 475.846 Q320.342 479.388 320.342 486.517 Q320.342 493.624 322.147 497.188 Q323.976 500.73 327.587 500.73 Q331.222 500.73 333.027 497.188 Q334.856 493.624 334.856 486.517 Q334.856 479.388 333.027 475.846 Q331.222 472.281 327.587 472.281 M327.587 468.578 Q333.397 468.578 336.453 473.184 Q339.532 477.767 339.532 486.517 Q339.532 495.244 336.453 499.851 Q333.397 504.434 327.587 504.434 Q321.777 504.434 318.698 499.851 Q315.643 495.244 315.643 486.517 Q315.643 477.767 318.698 473.184 Q321.777 468.578 327.587 468.578 Z" fill="#000000" fill-rule="nonzero" fill-opacity="1" /><path clip-path="url(#clip100)" d="M352.208 451.582 L342.616 466.572 L352.208 466.572 L352.208 451.582 M351.211 448.272 L355.988 448.272 L355.988 466.572 L359.995 466.572 L359.995 469.732 L355.988 469.732 L355.988 476.352 L352.208 476.352 L352.208 469.732 L339.532 469.732 L339.532 466.064 L351.211 448.272 Z" fill="#000000" fill-rule="nonzero" fill-opacity="1" /><path clip-path="url(#clip100)" d="M102.38 323.737 L132.056 323.737 L132.056 327.672 L102.38 327.672 L102.38 323.737 Z" fill="#000000" fill-rule="nonzero" fill-opacity="1" /><path clip-path="url(#clip100)" d="M146.176 336.63 L162.496 336.63 L162.496 340.565 L140.551 340.565 L140.551 336.63 Q143.213 333.876 147.797 329.246 Q152.403 324.593 153.584 323.251 Q155.829 320.727 156.709 318.991 Q157.611 317.232 157.611 315.542 Q157.611 312.788 155.667 311.052 Q153.746 309.316 150.644 309.316 Q148.445 309.316 145.991 310.079 Q143.56 310.843 140.783 312.394 L140.783 307.672 Q143.607 306.538 146.06 305.959 Q148.514 305.38 150.551 305.38 Q155.922 305.38 159.116 308.066 Q162.31 310.751 162.31 315.241 Q162.31 317.371 161.5 319.292 Q160.713 321.19 158.607 323.783 Q158.028 324.454 154.926 327.672 Q151.824 330.866 146.176 336.63 Z" fill="#000000" fill-rule="nonzero" fill-opacity="1" /><path clip-path="url(#clip100)" d="M172.31 334.686 L177.195 334.686 L177.195 340.565 L172.31 340.565 L172.31 334.686 Z" fill="#000000" fill-rule="nonzero" fill-opacity="1" /><path clip-path="url(#clip100)" d="M197.38 309.084 Q193.769 309.084 191.94 312.649 Q190.134 316.19 190.134 323.32 Q190.134 330.427 191.94 333.991 Q193.769 337.533 197.38 337.533 Q201.014 337.533 202.819 333.991 Q204.648 330.427 204.648 323.32 Q204.648 316.19 202.819 312.649 Q201.014 309.084 197.38 309.084 M197.38 305.38 Q203.19 305.38 206.245 309.987 Q209.324 314.57 209.324 323.32 Q209.324 332.047 206.245 336.653 Q203.19 341.237 197.38 341.237 Q191.569 341.237 188.491 336.653 Q185.435 332.047 185.435 323.32 Q185.435 314.57 188.491 309.987 Q191.569 305.38 197.38 305.38 Z" fill="#000000" fill-rule="nonzero" fill-opacity="1" /><path clip-path="url(#clip100)" d="M227.542 309.084 Q223.93 309.084 222.102 312.649 Q220.296 316.19 220.296 323.32 Q220.296 330.427 222.102 333.991 Q223.93 337.533 227.542 337.533 Q231.176 337.533 232.981 333.991 Q234.81 330.427 234.81 323.32 Q234.81 316.19 232.981 312.649 Q231.176 309.084 227.542 309.084 M227.542 305.38 Q233.352 305.38 236.407 309.987 Q239.486 314.57 239.486 323.32 Q239.486 332.047 236.407 336.653 Q233.352 341.237 227.542 341.237 Q221.731 341.237 218.653 336.653 Q215.597 332.047 215.597 323.32 Q215.597 314.57 218.653 309.987 Q221.731 305.38 227.542 305.38 Z" fill="#000000" fill-rule="nonzero" fill-opacity="1" /><path clip-path="url(#clip100)" d="M275.875 315.103 L265.296 325.727 L275.875 336.306 L273.12 339.107 L262.495 328.482 L251.87 339.107 L249.139 336.306 L259.694 325.727 L249.139 315.103 L251.87 312.302 L262.495 322.927 L273.12 312.302 L275.875 315.103 Z" fill="#000000" fill-rule="nonzero" fill-opacity="1" /><path clip-path="url(#clip100)" d="M288.236 336.63 L295.874 336.63 L295.874 310.265 L287.564 311.931 L287.564 307.672 L295.828 306.005 L300.504 306.005 L300.504 336.63 L308.143 336.63 L308.143 340.565 L288.236 340.565 L288.236 336.63 Z" fill="#000000" fill-rule="nonzero" fill-opacity="1" /><path clip-path="url(#clip100)" d="M327.587 309.084 Q323.976 309.084 322.147 312.649 Q320.342 316.19 320.342 323.32 Q320.342 330.427 322.147 333.991 Q323.976 337.533 327.587 337.533 Q331.222 337.533 333.027 333.991 Q334.856 330.427 334.856 323.32 Q334.856 316.19 333.027 312.649 Q331.222 309.084 327.587 309.084 M327.587 305.38 Q333.397 305.38 336.453 309.987 Q339.532 314.57 339.532 323.32 Q339.532 332.047 336.453 336.653 Q333.397 341.237 327.587 341.237 Q321.777 341.237 318.698 336.653 Q315.643 332.047 315.643 323.32 Q315.643 314.57 318.698 309.987 Q321.777 305.38 327.587 305.38 Z" fill="#000000" fill-rule="nonzero" fill-opacity="1" /><path clip-path="url(#clip100)" d="M352.208 288.385 L342.616 303.375 L352.208 303.375 L352.208 288.385 M351.211 285.075 L355.988 285.075 L355.988 303.375 L359.995 303.375 L359.995 306.535 L355.988 306.535 L355.988 313.155 L352.208 313.155 L352.208 306.535 L339.532 306.535 L339.532 302.867 L351.211 285.075 Z" fill="#000000" fill-rule="nonzero" fill-opacity="1" /><path clip-path="url(#clip100)" d="M102.38 160.54 L132.056 160.54 L132.056 164.475 L102.38 164.475 L102.38 160.54 Z" fill="#000000" fill-rule="nonzero" fill-opacity="1" /><path clip-path="url(#clip100)" d="M142.959 173.433 L150.597 173.433 L150.597 147.067 L142.287 148.734 L142.287 144.475 L150.551 142.808 L155.227 142.808 L155.227 173.433 L162.866 173.433 L162.866 177.368 L142.959 177.368 L142.959 173.433 Z" fill="#000000" fill-rule="nonzero" fill-opacity="1" /><path clip-path="url(#clip100)" d="M172.31 171.489 L177.195 171.489 L177.195 177.368 L172.31 177.368 L172.31 171.489 Z" fill="#000000" fill-rule="nonzero" fill-opacity="1" /><path clip-path="url(#clip100)" d="M187.426 142.808 L205.782 142.808 L205.782 146.743 L191.708 146.743 L191.708 155.216 Q192.727 154.868 193.745 154.706 Q194.764 154.521 195.782 154.521 Q201.569 154.521 204.949 157.692 Q208.329 160.864 208.329 166.28 Q208.329 171.859 204.856 174.961 Q201.384 178.039 195.065 178.039 Q192.889 178.039 190.62 177.669 Q188.375 177.299 185.968 176.558 L185.968 171.859 Q188.051 172.993 190.273 173.549 Q192.495 174.104 194.972 174.104 Q198.977 174.104 201.315 171.998 Q203.653 169.891 203.653 166.28 Q203.653 162.669 201.315 160.563 Q198.977 158.456 194.972 158.456 Q193.097 158.456 191.222 158.873 Q189.37 159.29 187.426 160.169 L187.426 142.808 Z" fill="#000000" fill-rule="nonzero" fill-opacity="1" /><path clip-path="url(#clip100)" d="M227.542 145.887 Q223.93 145.887 222.102 149.452 Q220.296 152.993 220.296 160.123 Q220.296 167.229 222.102 170.794 Q223.93 174.336 227.542 174.336 Q231.176 174.336 232.981 170.794 Q234.81 167.229 234.81 160.123 Q234.81 152.993 232.981 149.452 Q231.176 145.887 227.542 145.887 M227.542 142.183 Q233.352 142.183 236.407 146.79 Q239.486 151.373 239.486 160.123 Q239.486 168.85 236.407 173.456 Q233.352 178.039 227.542 178.039 Q221.731 178.039 218.653 173.456 Q215.597 168.85 215.597 160.123 Q215.597 151.373 218.653 146.79 Q221.731 142.183 227.542 142.183 Z" fill="#000000" fill-rule="nonzero" fill-opacity="1" /><path clip-path="url(#clip100)" d="M275.875 151.905 L265.296 162.53 L275.875 173.109 L273.12 175.91 L262.495 165.285 L251.87 175.91 L249.139 173.109 L259.694 162.53 L249.139 151.905 L251.87 149.104 L262.495 159.729 L273.12 149.104 L275.875 151.905 Z" fill="#000000" fill-rule="nonzero" fill-opacity="1" /><path clip-path="url(#clip100)" d="M288.236 173.433 L295.874 173.433 L295.874 147.067 L287.564 148.734 L287.564 144.475 L295.828 142.808 L300.504 142.808 L300.504 173.433 L308.143 173.433 L308.143 177.368 L288.236 177.368 L288.236 173.433 Z" fill="#000000" fill-rule="nonzero" fill-opacity="1" /><path clip-path="url(#clip100)" d="M327.587 145.887 Q323.976 145.887 322.147 149.452 Q320.342 152.993 320.342 160.123 Q320.342 167.229 322.147 170.794 Q323.976 174.336 327.587 174.336 Q331.222 174.336 333.027 170.794 Q334.856 167.229 334.856 160.123 Q334.856 152.993 333.027 149.452 Q331.222 145.887 327.587 145.887 M327.587 142.183 Q333.397 142.183 336.453 146.79 Q339.532 151.373 339.532 160.123 Q339.532 168.85 336.453 173.456 Q333.397 178.039 327.587 178.039 Q321.777 178.039 318.698 173.456 Q315.643 168.85 315.643 160.123 Q315.643 151.373 318.698 146.79 Q321.777 142.183 327.587 142.183 Z" fill="#000000" fill-rule="nonzero" fill-opacity="1" /><path clip-path="url(#clip100)" d="M352.208 125.188 L342.616 140.178 L352.208 140.178 L352.208 125.188 M351.211 121.878 L355.988 121.878 L355.988 140.178 L359.995 140.178 L359.995 143.337 L355.988 143.337 L355.988 149.958 L352.208 149.958 L352.208 143.337 L339.532 143.337 L339.532 139.67 L351.211 121.878 Z" fill="#000000" fill-rule="nonzero" fill-opacity="1" /><path clip-path="url(#clip100)" d="M4.60416 882.992 L4.60416 876.563 L52.1242 876.563 L52.1242 882.992 L4.60416 882.992 Z" fill="#000000" fill-rule="nonzero" fill-opacity="1" /><path clip-path="url(#clip100)" d="M17.5265 841.297 L23.0647 841.297 Q21.7916 843.78 21.155 846.453 Q20.5184 849.127 20.5184 851.991 Q20.5184 856.352 21.8552 858.548 Q23.192 860.712 25.8656 860.712 Q27.9026 860.712 29.0803 859.153 Q30.2261 857.593 31.2765 852.883 L31.7221 850.877 Q33.0589 844.639 35.5097 842.029 Q37.9286 839.387 42.2891 839.387 Q47.2544 839.387 50.1508 843.334 Q53.0472 847.249 53.0472 854.124 Q53.0472 856.989 52.4743 860.108 Q51.9332 863.195 50.8192 866.633 L44.7718 866.633 Q46.4587 863.386 47.318 860.235 Q48.1456 857.084 48.1456 853.997 Q48.1456 849.859 46.7451 847.631 Q45.3129 845.403 42.7347 845.403 Q40.3476 845.403 39.0745 847.026 Q37.8013 848.618 36.6237 854.06 L36.1462 856.097 Q35.0004 861.54 32.6451 863.959 Q30.258 866.378 26.1202 866.378 Q21.0913 866.378 18.3541 862.813 Q15.6168 859.248 15.6168 852.692 Q15.6168 849.445 16.0943 846.581 Q16.5717 843.716 17.5265 841.297 Z" fill="#000000" fill-rule="nonzero" fill-opacity="1" /><path clip-path="url(#clip100)" d="M20.5821 816.248 Q20.5821 820.959 24.2742 823.696 Q27.9345 826.433 34.332 826.433 Q40.7295 826.433 44.4217 823.728 Q48.0819 820.99 48.0819 816.248 Q48.0819 811.569 44.3898 808.832 Q40.6977 806.095 34.332 806.095 Q27.9981 806.095 24.306 808.832 Q20.5821 811.569 20.5821 816.248 M15.6168 816.248 Q15.6168 808.609 20.5821 804.249 Q25.5473 799.888 34.332 799.888 Q43.0849 799.888 48.0819 804.249 Q53.0472 808.609 53.0472 816.248 Q53.0472 823.919 48.0819 828.279 Q43.0849 832.608 34.332 832.608 Q25.5473 832.608 20.5821 828.279 Q15.6168 823.919 15.6168 816.248 Z" fill="#000000" fill-rule="nonzero" fill-opacity="1" /><path clip-path="url(#clip100)" d="M17.5265 767.455 L23.0647 767.455 Q21.7916 769.938 21.155 772.611 Q20.5184 775.285 20.5184 778.149 Q20.5184 782.51 21.8552 784.706 Q23.192 786.87 25.8656 786.87 Q27.9026 786.87 29.0803 785.311 Q30.2261 783.751 31.2765 779.04 L31.7221 777.035 Q33.0589 770.797 35.5097 768.187 Q37.9286 765.545 42.2891 765.545 Q47.2544 765.545 50.1508 769.492 Q53.0472 773.407 53.0472 780.282 Q53.0472 783.146 52.4743 786.266 Q51.9332 789.353 50.8192 792.79 L44.7718 792.79 Q46.4587 789.544 47.318 786.393 Q48.1456 783.242 48.1456 780.154 Q48.1456 776.017 46.7451 773.789 Q45.3129 771.561 42.7347 771.561 Q40.3476 771.561 39.0745 773.184 Q37.8013 774.775 36.6237 780.218 L36.1462 782.255 Q35.0004 787.698 32.6451 790.117 Q30.258 792.536 26.1202 792.536 Q21.0913 792.536 18.3541 788.971 Q15.6168 785.406 15.6168 778.849 Q15.6168 775.603 16.0943 772.738 Q16.5717 769.874 17.5265 767.455 Z" fill="#000000" fill-rule="nonzero" fill-opacity="1" /><path clip-path="url(#clip100)" d="M6.35473 750.427 L16.4762 750.427 L16.4762 738.364 L21.0277 738.364 L21.0277 750.427 L40.3794 750.427 Q44.7399 750.427 45.9813 749.249 Q47.2226 748.039 47.2226 744.379 L47.2226 738.364 L52.1242 738.364 L52.1242 744.379 Q52.1242 751.159 49.6097 753.737 Q47.0634 756.315 40.3794 756.315 L21.0277 756.315 L21.0277 760.612 L16.4762 760.612 L16.4762 756.315 L6.35473 756.315 L6.35473 750.427 Z" fill="#000000" fill-rule="nonzero" fill-opacity="1" /><path clip-path="url(#clip100)" d="M32.8361 700.169 L35.7006 700.169 L35.7006 727.096 Q41.7481 726.714 44.9309 723.468 Q48.0819 720.19 48.0819 714.365 Q48.0819 710.991 47.2544 707.84 Q46.4269 704.657 44.7718 701.538 L50.3099 701.538 Q51.6467 704.689 52.347 707.999 Q53.0472 711.309 53.0472 714.715 Q53.0472 723.245 48.0819 728.242 Q43.1167 733.207 34.6503 733.207 Q25.8974 733.207 20.7731 728.497 Q15.6168 723.754 15.6168 715.734 Q15.6168 708.54 20.2638 704.371 Q24.8789 700.169 32.8361 700.169 M31.1173 706.026 Q26.3112 706.089 23.4466 708.731 Q20.5821 711.341 20.5821 715.67 Q20.5821 720.571 23.3512 723.531 Q26.1202 726.46 31.1492 726.905 L31.1173 706.026 Z" fill="#000000" fill-rule="nonzero" fill-opacity="1" /><path clip-path="url(#clip100)" d="M21.9507 669.9 Q21.3778 670.887 21.1232 672.065 Q20.8367 673.211 20.8367 674.611 Q20.8367 679.576 24.0832 682.25 Q27.2979 684.892 33.3453 684.892 L52.1242 684.892 L52.1242 690.78 L16.4762 690.78 L16.4762 684.892 L22.0144 684.892 Q18.7679 683.046 17.2083 680.086 Q15.6168 677.125 15.6168 672.892 Q15.6168 672.288 15.7123 671.556 Q15.776 670.823 15.9351 669.932 L21.9507 669.9 Z" fill="#000000" fill-rule="nonzero" fill-opacity="1" /><path clip-path="url(#clip100)" d="M16.4762 663.758 L16.4762 657.901 L52.1242 657.901 L52.1242 663.758 L16.4762 663.758 M2.59896 663.758 L2.59896 657.901 L10.015 657.901 L10.015 663.758 L2.59896 663.758 Z" fill="#000000" fill-rule="nonzero" fill-opacity="1" /><path clip-path="url(#clip100)" d="M17.8448 619.993 L23.3193 619.993 Q21.9507 622.476 21.2823 624.99 Q20.5821 627.473 20.5821 630.019 Q20.5821 635.717 24.2105 638.868 Q27.8072 642.019 34.332 642.019 Q40.8569 642.019 44.4853 638.868 Q48.0819 635.717 48.0819 630.019 Q48.0819 627.473 47.4135 624.99 Q46.7133 622.476 45.3447 619.993 L50.7555 619.993 Q51.9014 622.444 52.4743 625.086 Q53.0472 627.696 53.0472 630.656 Q53.0472 638.708 47.9864 643.451 Q42.9257 648.193 34.332 648.193 Q25.611 648.193 20.6139 643.419 Q15.6168 638.613 15.6168 630.274 Q15.6168 627.568 16.1897 624.99 Q16.7308 622.412 17.8448 619.993 Z" fill="#000000" fill-rule="nonzero" fill-opacity="1" /><path clip-path="url(#clip100)" d="M4.60416 588.833 L4.60416 582.404 L24.0832 582.404 L24.0832 559.042 L4.60416 559.042 L4.60416 552.612 L52.1242 552.612 L52.1242 559.042 L29.4941 559.042 L29.4941 582.404 L52.1242 582.404 L52.1242 588.833 L4.60416 588.833 Z" fill="#000000" fill-rule="nonzero" fill-opacity="1" /><path clip-path="url(#clip100)" d="M32.8361 509.58 L35.7006 509.58 L35.7006 536.507 Q41.7481 536.125 44.9309 532.879 Q48.0819 529.6 48.0819 523.776 Q48.0819 520.402 47.2544 517.251 Q46.4269 514.068 44.7718 510.949 L50.3099 510.949 Q51.6467 514.1 52.347 517.41 Q53.0472 520.72 53.0472 524.126 Q53.0472 532.656 48.0819 537.653 Q43.1167 542.618 34.6503 542.618 Q25.8974 542.618 20.7731 537.907 Q15.6168 533.165 15.6168 525.144 Q15.6168 517.951 20.2638 513.781 Q24.8789 509.58 32.8361 509.58 M31.1173 515.437 Q26.3112 515.5 23.4466 518.142 Q20.5821 520.752 20.5821 525.081 Q20.5821 529.982 23.3512 532.942 Q26.1202 535.87 31.1492 536.316 L31.1173 515.437 Z" fill="#000000" fill-rule="nonzero" fill-opacity="1" /><path clip-path="url(#clip100)" d="M34.2047 483.767 Q34.2047 490.865 35.8279 493.602 Q37.4512 496.339 41.3661 496.339 Q44.4853 496.339 46.3314 494.302 Q48.1456 492.234 48.1456 488.701 Q48.1456 483.831 44.7081 480.903 Q41.2388 477.943 35.5097 477.943 L34.2047 477.943 L34.2047 483.767 M31.7857 472.086 L52.1242 472.086 L52.1242 477.943 L46.7133 477.943 Q49.9598 479.948 51.5194 482.94 Q53.0472 485.931 53.0472 490.26 Q53.0472 495.735 49.9916 498.981 Q46.9043 502.196 41.7481 502.196 Q35.7325 502.196 32.6769 498.185 Q29.6214 494.143 29.6214 486.154 L29.6214 477.943 L29.0485 477.943 Q25.0062 477.943 22.8101 480.616 Q20.5821 483.258 20.5821 488.064 Q20.5821 491.12 21.3141 494.016 Q22.0462 496.912 23.5103 499.586 L18.0995 499.586 Q16.8581 496.371 16.2534 493.348 Q15.6168 490.324 15.6168 487.459 Q15.6168 479.725 19.6272 475.906 Q23.6376 472.086 31.7857 472.086 Z" fill="#000000" fill-rule="nonzero" fill-opacity="1" /><path clip-path="url(#clip100)" d="M6.35473 454.23 L16.4762 454.23 L16.4762 442.167 L21.0277 442.167 L21.0277 454.23 L40.3794 454.23 Q44.7399 454.23 45.9813 453.053 Q47.2226 451.843 47.2226 448.183 L47.2226 442.167 L52.1242 442.167 L52.1242 448.183 Q52.1242 454.962 49.6097 457.54 Q47.0634 460.119 40.3794 460.119 L21.0277 460.119 L21.0277 464.415 L16.4762 464.415 L16.4762 460.119 L6.35473 460.119 L6.35473 454.23 Z" fill="#000000" fill-rule="nonzero" fill-opacity="1" /><path clip-path="url(#clip100)" d="M2.66262 399.676 Q9.98318 403.941 17.1446 406.01 Q24.306 408.079 31.6584 408.079 Q39.0108 408.079 46.2359 406.01 Q53.4291 403.909 60.7179 399.676 L60.7179 404.769 Q53.2382 409.543 46.0131 411.93 Q38.788 414.285 31.6584 414.285 Q24.5606 414.285 17.3674 411.93 Q10.1742 409.575 2.66262 404.769 L2.66262 399.676 Z" fill="#000000" fill-rule="nonzero" fill-opacity="1" /><path clip-path="url(#clip100)" d="M4.60416 388.059 L4.60416 381.629 L48.814 381.629 Q57.4077 381.629 61.2908 384.908 Q65.1739 388.154 65.1739 395.379 L65.1739 397.83 L59.763 397.83 L59.763 395.825 Q59.763 391.56 57.3759 389.809 Q54.9887 388.059 48.814 388.059 L4.60416 388.059 Z" fill="#000000" fill-rule="nonzero" fill-opacity="1" /><path clip-path="url(#clip100)" d="M4.60416 358.681 L4.60416 353.27 L58.1716 369.821 L58.1716 375.232 L4.60416 358.681 Z" fill="#000000" fill-rule="nonzero" fill-opacity="1" /><path clip-path="url(#clip100)" d="M23.3193 319.373 Q19.3726 317.177 17.4947 314.121 Q15.6168 311.066 15.6168 306.928 Q15.6168 301.358 19.5317 298.334 Q23.4148 295.31 30.6081 295.31 L52.1242 295.31 L52.1242 301.199 L30.799 301.199 Q25.6746 301.199 23.192 303.013 Q20.7094 304.827 20.7094 308.551 Q20.7094 313.103 23.7331 315.744 Q26.7568 318.386 31.9767 318.386 L52.1242 318.386 L52.1242 324.274 L30.799 324.274 Q25.6428 324.274 23.192 326.089 Q20.7094 327.903 20.7094 331.69 Q20.7094 336.178 23.7649 338.82 Q26.7886 341.462 31.9767 341.462 L52.1242 341.462 L52.1242 347.35 L16.4762 347.35 L16.4762 341.462 L22.0144 341.462 Q18.736 339.457 17.1764 336.656 Q15.6168 333.855 15.6168 330.004 Q15.6168 326.12 17.5902 323.415 Q19.5636 320.678 23.3193 319.373 Z" fill="#000000" fill-rule="nonzero" fill-opacity="1" /><path clip-path="url(#clip100)" d="M20.5821 269.816 Q20.5821 274.526 24.2742 277.264 Q27.9345 280.001 34.332 280.001 Q40.7295 280.001 44.4217 277.295 Q48.0819 274.558 48.0819 269.816 Q48.0819 265.137 44.3898 262.4 Q40.6977 259.662 34.332 259.662 Q27.9981 259.662 24.306 262.4 Q20.5821 265.137 20.5821 269.816 M15.6168 269.816 Q15.6168 262.177 20.5821 257.816 Q25.5473 253.456 34.332 253.456 Q43.0849 253.456 48.0819 257.816 Q53.0472 262.177 53.0472 269.816 Q53.0472 277.486 48.0819 281.847 Q43.0849 286.176 34.332 286.176 Q25.5473 286.176 20.5821 281.847 Q15.6168 277.486 15.6168 269.816 Z" fill="#000000" fill-rule="nonzero" fill-opacity="1" /><path clip-path="url(#clip100)" d="M2.59896 243.748 L2.59896 237.892 L52.1242 237.892 L52.1242 243.748 L2.59896 243.748 Z" fill="#000000" fill-rule="nonzero" fill-opacity="1" /><path clip-path="url(#clip100)" d="M2.66262 226.561 L2.66262 221.468 Q10.1742 216.694 17.3674 214.339 Q24.5606 211.951 31.6584 211.951 Q38.788 211.951 46.0131 214.339 Q53.2382 216.694 60.7179 221.468 L60.7179 226.561 Q53.4291 222.328 46.2359 220.259 Q39.0108 218.158 31.6584 218.158 Q24.306 218.158 17.1446 220.259 Q9.98318 222.328 2.66262 226.561 Z" fill="#000000" fill-rule="nonzero" fill-opacity="1" /><circle clip-path="url(#clip101)" cx="451.375" cy="75.5589" r="14.4" fill="#ffffff" fill-rule="evenodd" fill-opacity="1" stroke="#8470ff" stroke-opacity="1" stroke-width="2.4"/>
<circle clip-path="url(#clip101)" cx="458.586" cy="75.5589" r="14.4" fill="#ffffff" fill-rule="evenodd" fill-opacity="1" stroke="#8470ff" stroke-opacity="1" stroke-width="2.4"/>
<circle clip-path="url(#clip101)" cx="468.883" cy="75.5589" r="14.4" fill="#ffffff" fill-rule="evenodd" fill-opacity="1" stroke="#8470ff" stroke-opacity="1" stroke-width="2.4"/>
<circle clip-path="url(#clip101)" cx="477.969" cy="75.5589" r="14.4" fill="#ffffff" fill-rule="evenodd" fill-opacity="1" stroke="#8470ff" stroke-opacity="1" stroke-width="2.4"/>
<circle clip-path="url(#clip101)" cx="486.421" cy="75.5589" r="14.4" fill="#ffffff" fill-rule="evenodd" fill-opacity="1" stroke="#8470ff" stroke-opacity="1" stroke-width="2.4"/>
<circle clip-path="url(#clip101)" cx="496.645" cy="75.5589" r="14.4" fill="#ffffff" fill-rule="evenodd" fill-opacity="1" stroke="#8470ff" stroke-opacity="1" stroke-width="2.4"/>
<circle clip-path="url(#clip101)" cx="504.518" cy="75.5589" r="14.4" fill="#ffffff" fill-rule="evenodd" fill-opacity="1" stroke="#8470ff" stroke-opacity="1" stroke-width="2.4"/>
<circle clip-path="url(#clip101)" cx="512.918" cy="75.5589" r="14.4" fill="#ffffff" fill-rule="evenodd" fill-opacity="1" stroke="#8470ff" stroke-opacity="1" stroke-width="2.4"/>
<circle clip-path="url(#clip101)" cx="521.262" cy="75.5589" r="14.4" fill="#ffffff" fill-rule="evenodd" fill-opacity="1" stroke="#8470ff" stroke-opacity="1" stroke-width="2.4"/>
<circle clip-path="url(#clip101)" cx="531.226" cy="75.5589" r="14.4" fill="#ffffff" fill-rule="evenodd" fill-opacity="1" stroke="#8470ff" stroke-opacity="1" stroke-width="2.4"/>
<circle clip-path="url(#clip101)" cx="557.033" cy="75.5589" r="14.4" fill="#ffffff" fill-rule="evenodd" fill-opacity="1" stroke="#8470ff" stroke-opacity="1" stroke-width="2.4"/>
<circle clip-path="url(#clip101)" cx="584.375" cy="75.5589" r="14.4" fill="#ffffff" fill-rule="evenodd" fill-opacity="1" stroke="#8470ff" stroke-opacity="1" stroke-width="2.4"/>
<circle clip-path="url(#clip101)" cx="613.077" cy="75.5589" r="14.4" fill="#ffffff" fill-rule="evenodd" fill-opacity="1" stroke="#8470ff" stroke-opacity="1" stroke-width="2.4"/>
<circle clip-path="url(#clip101)" cx="641.282" cy="75.5589" r="14.4" fill="#ffffff" fill-rule="evenodd" fill-opacity="1" stroke="#8470ff" stroke-opacity="1" stroke-width="2.4"/>
<circle clip-path="url(#clip101)" cx="671.741" cy="75.5589" r="14.4" fill="#ffffff" fill-rule="evenodd" fill-opacity="1" stroke="#8470ff" stroke-opacity="1" stroke-width="2.4"/>
<circle clip-path="url(#clip101)" cx="704.066" cy="75.5589" r="14.4" fill="#ffffff" fill-rule="evenodd" fill-opacity="1" stroke="#8470ff" stroke-opacity="1" stroke-width="2.4"/>
<circle clip-path="url(#clip101)" cx="736.627" cy="75.5589" r="14.4" fill="#ffffff" fill-rule="evenodd" fill-opacity="1" stroke="#8470ff" stroke-opacity="1" stroke-width="2.4"/>
<circle clip-path="url(#clip101)" cx="769.14" cy="75.5589" r="14.4" fill="#ffffff" fill-rule="evenodd" fill-opacity="1" stroke="#8470ff" stroke-opacity="1" stroke-width="2.4"/>
<circle clip-path="url(#clip101)" cx="804.946" cy="75.5589" r="14.4" fill="#ffffff" fill-rule="evenodd" fill-opacity="1" stroke="#8470ff" stroke-opacity="1" stroke-width="2.4"/>
<circle clip-path="url(#clip101)" cx="841.344" cy="75.5589" r="14.4" fill="#ffffff" fill-rule="evenodd" fill-opacity="1" stroke="#8470ff" stroke-opacity="1" stroke-width="2.4"/>
<circle clip-path="url(#clip101)" cx="877.618" cy="75.5589" r="14.4" fill="#ffffff" fill-rule="evenodd" fill-opacity="1" stroke="#8470ff" stroke-opacity="1" stroke-width="2.4"/>
<circle clip-path="url(#clip101)" cx="916.344" cy="75.5589" r="14.4" fill="#ffffff" fill-rule="evenodd" fill-opacity="1" stroke="#8470ff" stroke-opacity="1" stroke-width="2.4"/>
<circle clip-path="url(#clip101)" cx="955.718" cy="75.5589" r="14.4" fill="#ffffff" fill-rule="evenodd" fill-opacity="1" stroke="#8470ff" stroke-opacity="1" stroke-width="2.4"/>
<circle clip-path="url(#clip101)" cx="995.42" cy="75.5589" r="14.4" fill="#ffffff" fill-rule="evenodd" fill-opacity="1" stroke="#8470ff" stroke-opacity="1" stroke-width="2.4"/>
<circle clip-path="url(#clip101)" cx="1034.16" cy="75.5589" r="14.4" fill="#ffffff" fill-rule="evenodd" fill-opacity="1" stroke="#8470ff" stroke-opacity="1" stroke-width="2.4"/>
<circle clip-path="url(#clip101)" cx="1075.04" cy="75.5589" r="14.4" fill="#ffffff" fill-rule="evenodd" fill-opacity="1" stroke="#8470ff" stroke-opacity="1" stroke-width="2.4"/>
<circle clip-path="url(#clip101)" cx="1114.71" cy="75.5589" r="14.4" fill="#ffffff" fill-rule="evenodd" fill-opacity="1" stroke="#8470ff" stroke-opacity="1" stroke-width="2.4"/>
<circle clip-path="url(#clip101)" cx="1151.76" cy="75.5589" r="14.4" fill="#ffffff" fill-rule="evenodd" fill-opacity="1" stroke="#8470ff" stroke-opacity="1" stroke-width="2.4"/>
<circle clip-path="url(#clip101)" cx="1191.21" cy="75.5589" r="14.4" fill="#ffffff" fill-rule="evenodd" fill-opacity="1" stroke="#8470ff" stroke-opacity="1" stroke-width="2.4"/>
<circle clip-path="url(#clip101)" cx="1228.56" cy="75.5589" r="14.4" fill="#ffffff" fill-rule="evenodd" fill-opacity="1" stroke="#8470ff" stroke-opacity="1" stroke-width="2.4"/>
<circle clip-path="url(#clip101)" cx="1265.71" cy="75.5589" r="14.4" fill="#ffffff" fill-rule="evenodd" fill-opacity="1" stroke="#8470ff" stroke-opacity="1" stroke-width="2.4"/>
<circle clip-path="url(#clip101)" cx="1299.35" cy="75.5589" r="14.4" fill="#ffffff" fill-rule="evenodd" fill-opacity="1" stroke="#8470ff" stroke-opacity="1" stroke-width="2.4"/>
<circle clip-path="url(#clip101)" cx="1332.87" cy="75.5589" r="14.4" fill="#ffffff" fill-rule="evenodd" fill-opacity="1" stroke="#8470ff" stroke-opacity="1" stroke-width="2.4"/>
<circle clip-path="url(#clip101)" cx="1365.44" cy="75.5589" r="14.4" fill="#ffffff" fill-rule="evenodd" fill-opacity="1" stroke="#8470ff" stroke-opacity="1" stroke-width="2.4"/>
<circle clip-path="url(#clip101)" cx="1394.51" cy="75.5589" r="14.4" fill="#ffffff" fill-rule="evenodd" fill-opacity="1" stroke="#8470ff" stroke-opacity="1" stroke-width="2.4"/>
<circle clip-path="url(#clip101)" cx="1423.34" cy="75.5589" r="14.4" fill="#ffffff" fill-rule="evenodd" fill-opacity="1" stroke="#8470ff" stroke-opacity="1" stroke-width="2.4"/>
<circle clip-path="url(#clip101)" cx="1451.4" cy="75.5589" r="14.4" fill="#ffffff" fill-rule="evenodd" fill-opacity="1" stroke="#8470ff" stroke-opacity="1" stroke-width="2.4"/>
<circle clip-path="url(#clip101)" cx="1477.83" cy="75.5589" r="14.4" fill="#ffffff" fill-rule="evenodd" fill-opacity="1" stroke="#8470ff" stroke-opacity="1" stroke-width="2.4"/>
<circle clip-path="url(#clip101)" cx="1501.26" cy="75.5589" r="14.4" fill="#ffffff" fill-rule="evenodd" fill-opacity="1" stroke="#8470ff" stroke-opacity="1" stroke-width="2.4"/>
<circle clip-path="url(#clip101)" cx="1525.23" cy="75.5589" r="14.4" fill="#ffffff" fill-rule="evenodd" fill-opacity="1" stroke="#8470ff" stroke-opacity="1" stroke-width="2.4"/>
<circle clip-path="url(#clip101)" cx="1673.03" cy="75.5589" r="14.4" fill="#ffffff" fill-rule="evenodd" fill-opacity="1" stroke="#8470ff" stroke-opacity="1" stroke-width="2.4"/>
<circle clip-path="url(#clip101)" cx="1774.18" cy="75.5589" r="14.4" fill="#ffffff" fill-rule="evenodd" fill-opacity="1" stroke="#8470ff" stroke-opacity="1" stroke-width="2.4"/>
<circle clip-path="url(#clip101)" cx="1846.63" cy="75.5589" r="14.4" fill="#ffffff" fill-rule="evenodd" fill-opacity="1" stroke="#8470ff" stroke-opacity="1" stroke-width="2.4"/>
<circle clip-path="url(#clip101)" cx="1901.93" cy="75.5589" r="14.4" fill="#ffffff" fill-rule="evenodd" fill-opacity="1" stroke="#8470ff" stroke-opacity="1" stroke-width="2.4"/>
<circle clip-path="url(#clip101)" cx="1946.04" cy="75.5589" r="14.4" fill="#ffffff" fill-rule="evenodd" fill-opacity="1" stroke="#8470ff" stroke-opacity="1" stroke-width="2.4"/>
<circle clip-path="url(#clip101)" cx="1981.98" cy="75.5589" r="14.4" fill="#ffffff" fill-rule="evenodd" fill-opacity="1" stroke="#8470ff" stroke-opacity="1" stroke-width="2.4"/>
<circle clip-path="url(#clip101)" cx="2012.61" cy="75.5589" r="14.4" fill="#ffffff" fill-rule="evenodd" fill-opacity="1" stroke="#8470ff" stroke-opacity="1" stroke-width="2.4"/>
<circle clip-path="url(#clip101)" cx="2039.07" cy="75.5589" r="14.4" fill="#ffffff" fill-rule="evenodd" fill-opacity="1" stroke="#8470ff" stroke-opacity="1" stroke-width="2.4"/>
<circle clip-path="url(#clip101)" cx="2062.3" cy="75.5589" r="14.4" fill="#ffffff" fill-rule="evenodd" fill-opacity="1" stroke="#8470ff" stroke-opacity="1" stroke-width="2.4"/>
<circle clip-path="url(#clip101)" cx="2082.82" cy="75.5589" r="14.4" fill="#ffffff" fill-rule="evenodd" fill-opacity="1" stroke="#8470ff" stroke-opacity="1" stroke-width="2.4"/>
<circle clip-path="url(#clip101)" cx="2101.03" cy="75.5589" r="14.4" fill="#ffffff" fill-rule="evenodd" fill-opacity="1" stroke="#8470ff" stroke-opacity="1" stroke-width="2.4"/>
<circle clip-path="url(#clip101)" cx="2117.67" cy="75.5589" r="14.4" fill="#ffffff" fill-rule="evenodd" fill-opacity="1" stroke="#8470ff" stroke-opacity="1" stroke-width="2.4"/>
<circle clip-path="url(#clip101)" cx="2132.88" cy="75.5589" r="14.4" fill="#ffffff" fill-rule="evenodd" fill-opacity="1" stroke="#8470ff" stroke-opacity="1" stroke-width="2.4"/>
<circle clip-path="url(#clip101)" cx="2146.77" cy="75.5589" r="14.4" fill="#ffffff" fill-rule="evenodd" fill-opacity="1" stroke="#8470ff" stroke-opacity="1" stroke-width="2.4"/>
<circle clip-path="url(#clip101)" cx="2159.68" cy="75.5589" r="14.4" fill="#ffffff" fill-rule="evenodd" fill-opacity="1" stroke="#8470ff" stroke-opacity="1" stroke-width="2.4"/>
<circle clip-path="url(#clip101)" cx="2171.16" cy="75.5589" r="14.4" fill="#ffffff" fill-rule="evenodd" fill-opacity="1" stroke="#8470ff" stroke-opacity="1" stroke-width="2.4"/>
<circle clip-path="url(#clip101)" cx="2181.98" cy="75.5589" r="14.4" fill="#ffffff" fill-rule="evenodd" fill-opacity="1" stroke="#8470ff" stroke-opacity="1" stroke-width="2.4"/>
<circle clip-path="url(#clip101)" cx="2192.15" cy="75.5589" r="14.4" fill="#ffffff" fill-rule="evenodd" fill-opacity="1" stroke="#8470ff" stroke-opacity="1" stroke-width="2.4"/>
<circle clip-path="url(#clip101)" cx="2201.65" cy="75.5589" r="14.4" fill="#ffffff" fill-rule="evenodd" fill-opacity="1" stroke="#8470ff" stroke-opacity="1" stroke-width="2.4"/>
<circle clip-path="url(#clip101)" cx="2209.78" cy="75.5589" r="14.4" fill="#ffffff" fill-rule="evenodd" fill-opacity="1" stroke="#8470ff" stroke-opacity="1" stroke-width="2.4"/>
<circle clip-path="url(#clip101)" cx="2218.43" cy="75.5589" r="14.4" fill="#ffffff" fill-rule="evenodd" fill-opacity="1" stroke="#8470ff" stroke-opacity="1" stroke-width="2.4"/>
<circle clip-path="url(#clip101)" cx="2225.79" cy="75.5589" r="14.4" fill="#ffffff" fill-rule="evenodd" fill-opacity="1" stroke="#8470ff" stroke-opacity="1" stroke-width="2.4"/>
<circle clip-path="url(#clip101)" cx="2232.83" cy="75.5589" r="14.4" fill="#ffffff" fill-rule="evenodd" fill-opacity="1" stroke="#8470ff" stroke-opacity="1" stroke-width="2.4"/>
<circle clip-path="url(#clip101)" cx="2239.72" cy="75.5589" r="14.4" fill="#ffffff" fill-rule="evenodd" fill-opacity="1" stroke="#8470ff" stroke-opacity="1" stroke-width="2.4"/>
<circle clip-path="url(#clip101)" cx="2245.55" cy="75.5589" r="14.4" fill="#ffffff" fill-rule="evenodd" fill-opacity="1" stroke="#8470ff" stroke-opacity="1" stroke-width="2.4"/>
<circle clip-path="url(#clip101)" cx="2251.82" cy="75.5589" r="14.4" fill="#ffffff" fill-rule="evenodd" fill-opacity="1" stroke="#8470ff" stroke-opacity="1" stroke-width="2.4"/>
<circle clip-path="url(#clip101)" cx="2257.79" cy="75.5589" r="14.4" fill="#ffffff" fill-rule="evenodd" fill-opacity="1" stroke="#8470ff" stroke-opacity="1" stroke-width="2.4"/>
<circle clip-path="url(#clip101)" cx="2262.93" cy="75.5589" r="14.4" fill="#ffffff" fill-rule="evenodd" fill-opacity="1" stroke="#8470ff" stroke-opacity="1" stroke-width="2.4"/>
<circle clip-path="url(#clip101)" cx="2267.91" cy="75.5589" r="14.4" fill="#ffffff" fill-rule="evenodd" fill-opacity="1" stroke="#8470ff" stroke-opacity="1" stroke-width="2.4"/>
<circle clip-path="url(#clip101)" cx="2271.97" cy="75.5589" r="14.4" fill="#ffffff" fill-rule="evenodd" fill-opacity="1" stroke="#8470ff" stroke-opacity="1" stroke-width="2.4"/>
<circle clip-path="url(#clip101)" cx="2277.9" cy="75.5589" r="14.4" fill="#ffffff" fill-rule="evenodd" fill-opacity="1" stroke="#8470ff" stroke-opacity="1" stroke-width="2.4"/>
<circle clip-path="url(#clip101)" cx="2282.06" cy="75.5589" r="14.4" fill="#ffffff" fill-rule="evenodd" fill-opacity="1" stroke="#8470ff" stroke-opacity="1" stroke-width="2.4"/>
<circle clip-path="url(#clip101)" cx="2286.11" cy="75.5589" r="14.4" fill="#ffffff" fill-rule="evenodd" fill-opacity="1" stroke="#8470ff" stroke-opacity="1" stroke-width="2.4"/>
<circle clip-path="url(#clip101)" cx="2290.1" cy="75.5589" r="14.4" fill="#ffffff" fill-rule="evenodd" fill-opacity="1" stroke="#8470ff" stroke-opacity="1" stroke-width="2.4"/>
<circle clip-path="url(#clip101)" cx="2293.91" cy="75.5589" r="14.4" fill="#ffffff" fill-rule="evenodd" fill-opacity="1" stroke="#8470ff" stroke-opacity="1" stroke-width="2.4"/>
<circle clip-path="url(#clip101)" cx="2297.38" cy="75.5589" r="14.4" fill="#ffffff" fill-rule="evenodd" fill-opacity="1" stroke="#8470ff" stroke-opacity="1" stroke-width="2.4"/>
<path clip-path="url(#clip101)" d="M444.131 1007.39 L444.131 1031.39 L468.131 1031.39 L468.131 1007.39 L444.131 1007.39 Z" fill="#ffffff" fill-rule="evenodd" fill-opacity="1" stroke="#00ee76" stroke-opacity="1" stroke-width="2.4"/>
<path clip-path="url(#clip101)" d="M451.017 1007.39 L451.017 1031.39 L475.017 1031.39 L475.017 1007.39 L451.017 1007.39 Z" fill="#ffffff" fill-rule="evenodd" fill-opacity="1" stroke="#00ee76" stroke-opacity="1" stroke-width="2.4"/>
<path clip-path="url(#clip101)" d="M457.018 1007.39 L457.018 1031.39 L481.018 1031.39 L481.018 1007.39 L457.018 1007.39 Z" fill="#ffffff" fill-rule="evenodd" fill-opacity="1" stroke="#00ee76" stroke-opacity="1" stroke-width="2.4"/>
<path clip-path="url(#clip101)" d="M462.601 1007.39 L462.601 1031.39 L486.601 1031.39 L486.601 1007.39 L462.601 1007.39 Z" fill="#ffffff" fill-rule="evenodd" fill-opacity="1" stroke="#00ee76" stroke-opacity="1" stroke-width="2.4"/>
<path clip-path="url(#clip101)" d="M468.971 1007.39 L468.971 1031.39 L492.971 1031.39 L492.971 1007.39 L468.971 1007.39 Z" fill="#ffffff" fill-rule="evenodd" fill-opacity="1" stroke="#00ee76" stroke-opacity="1" stroke-width="2.4"/>
<path clip-path="url(#clip101)" d="M474.098 1007.39 L474.098 1031.39 L498.098 1031.39 L498.098 1007.39 L474.098 1007.39 Z" fill="#ffffff" fill-rule="evenodd" fill-opacity="1" stroke="#00ee76" stroke-opacity="1" stroke-width="2.4"/>
<path clip-path="url(#clip101)" d="M479.902 1007.39 L479.902 1031.39 L503.902 1031.39 L503.902 1007.39 L479.902 1007.39 Z" fill="#ffffff" fill-rule="evenodd" fill-opacity="1" stroke="#00ee76" stroke-opacity="1" stroke-width="2.4"/>
<path clip-path="url(#clip101)" d="M485.136 1007.39 L485.136 1031.39 L509.136 1031.39 L509.136 1007.39 L485.136 1007.39 Z" fill="#ffffff" fill-rule="evenodd" fill-opacity="1" stroke="#00ee76" stroke-opacity="1" stroke-width="2.4"/>
<path clip-path="url(#clip101)" d="M491.268 1007.39 L491.268 1031.39 L515.268 1031.39 L515.268 1007.39 L491.268 1007.39 Z" fill="#ffffff" fill-rule="evenodd" fill-opacity="1" stroke="#00ee76" stroke-opacity="1" stroke-width="2.4"/>
<path clip-path="url(#clip101)" d="M507.067 1007.39 L507.067 1031.39 L531.067 1031.39 L531.067 1007.39 L507.067 1007.39 Z" fill="#ffffff" fill-rule="evenodd" fill-opacity="1" stroke="#00ee76" stroke-opacity="1" stroke-width="2.4"/>
<path clip-path="url(#clip101)" d="M524.032 1007.39 L524.032 1031.39 L548.032 1031.39 L548.032 1007.39 L524.032 1007.39 Z" fill="#ffffff" fill-rule="evenodd" fill-opacity="1" stroke="#00ee76" stroke-opacity="1" stroke-width="2.4"/>
<path clip-path="url(#clip101)" d="M540.4 1007.39 L540.4 1031.39 L564.4 1031.39 L564.4 1007.39 L540.4 1007.39 Z" fill="#ffffff" fill-rule="evenodd" fill-opacity="1" stroke="#00ee76" stroke-opacity="1" stroke-width="2.4"/>
<path clip-path="url(#clip101)" d="M556.28 1007.39 L556.28 1031.39 L580.28 1031.39 L580.28 1007.39 L556.28 1007.39 Z" fill="#ffffff" fill-rule="evenodd" fill-opacity="1" stroke="#00ee76" stroke-opacity="1" stroke-width="2.4"/>
<path clip-path="url(#clip101)" d="M573.204 1007.39 L573.204 1031.39 L597.204 1031.39 L597.204 1007.39 L573.204 1007.39 Z" fill="#ffffff" fill-rule="evenodd" fill-opacity="1" stroke="#00ee76" stroke-opacity="1" stroke-width="2.4"/>
<path clip-path="url(#clip101)" d="M590.169 1007.39 L590.169 1031.39 L614.169 1031.39 L614.169 1007.39 L590.169 1007.39 Z" fill="#ffffff" fill-rule="evenodd" fill-opacity="1" stroke="#00ee76" stroke-opacity="1" stroke-width="2.4"/>
<path clip-path="url(#clip101)" d="M607.088 1007.39 L607.088 1031.39 L631.088 1031.39 L631.088 1007.39 L607.088 1007.39 Z" fill="#ffffff" fill-rule="evenodd" fill-opacity="1" stroke="#00ee76" stroke-opacity="1" stroke-width="2.4"/>
<path clip-path="url(#clip101)" d="M623.83 1007.39 L623.83 1031.39 L647.83 1031.39 L647.83 1007.39 L623.83 1007.39 Z" fill="#ffffff" fill-rule="evenodd" fill-opacity="1" stroke="#00ee76" stroke-opacity="1" stroke-width="2.4"/>
<path clip-path="url(#clip101)" d="M641.2 1007.39 L641.2 1031.39 L665.2 1031.39 L665.2 1007.39 L641.2 1007.39 Z" fill="#ffffff" fill-rule="evenodd" fill-opacity="1" stroke="#00ee76" stroke-opacity="1" stroke-width="2.4"/>
<path clip-path="url(#clip101)" d="M658.929 1007.39 L658.929 1031.39 L682.929 1031.39 L682.929 1007.39 L658.929 1007.39 Z" fill="#ffffff" fill-rule="evenodd" fill-opacity="1" stroke="#00ee76" stroke-opacity="1" stroke-width="2.4"/>
<path clip-path="url(#clip101)" d="M675.961 1007.39 L675.961 1031.39 L699.961 1031.39 L699.961 1007.39 L675.961 1007.39 Z" fill="#ffffff" fill-rule="evenodd" fill-opacity="1" stroke="#00ee76" stroke-opacity="1" stroke-width="2.4"/>
<path clip-path="url(#clip101)" d="M694.364 1007.39 L694.364 1031.39 L718.364 1031.39 L718.364 1007.39 L694.364 1007.39 Z" fill="#ffffff" fill-rule="evenodd" fill-opacity="1" stroke="#00ee76" stroke-opacity="1" stroke-width="2.4"/>
<path clip-path="url(#clip101)" d="M712.306 1007.39 L712.306 1031.39 L736.306 1031.39 L736.306 1007.39 L712.306 1007.39 Z" fill="#ffffff" fill-rule="evenodd" fill-opacity="1" stroke="#00ee76" stroke-opacity="1" stroke-width="2.4"/>
<path clip-path="url(#clip101)" d="M730.832 1007.39 L730.832 1031.39 L754.832 1031.39 L754.832 1007.39 L730.832 1007.39 Z" fill="#ffffff" fill-rule="evenodd" fill-opacity="1" stroke="#00ee76" stroke-opacity="1" stroke-width="2.4"/>
<path clip-path="url(#clip101)" d="M748.733 1007.39 L748.733 1031.39 L772.733 1031.39 L772.733 1007.39 L748.733 1007.39 Z" fill="#ffffff" fill-rule="evenodd" fill-opacity="1" stroke="#00ee76" stroke-opacity="1" stroke-width="2.4"/>
<path clip-path="url(#clip101)" d="M767.334 1007.39 L767.334 1031.39 L791.334 1031.39 L791.334 1007.39 L767.334 1007.39 Z" fill="#ffffff" fill-rule="evenodd" fill-opacity="1" stroke="#00ee76" stroke-opacity="1" stroke-width="2.4"/>
<path clip-path="url(#clip101)" d="M786.539 1007.39 L786.539 1031.39 L810.539 1031.39 L810.539 1007.39 L786.539 1007.39 Z" fill="#ffffff" fill-rule="evenodd" fill-opacity="1" stroke="#00ee76" stroke-opacity="1" stroke-width="2.4"/>
<path clip-path="url(#clip101)" d="M804.706 1007.39 L804.706 1031.39 L828.706 1031.39 L828.706 1007.39 L804.706 1007.39 Z" fill="#ffffff" fill-rule="evenodd" fill-opacity="1" stroke="#00ee76" stroke-opacity="1" stroke-width="2.4"/>
<path clip-path="url(#clip101)" d="M824.32 1007.39 L824.32 1031.39 L848.32 1031.39 L848.32 1007.39 L824.32 1007.39 Z" fill="#ffffff" fill-rule="evenodd" fill-opacity="1" stroke="#00ee76" stroke-opacity="1" stroke-width="2.4"/>
<path clip-path="url(#clip101)" d="M843.251 1007.39 L843.251 1031.39 L867.251 1031.39 L867.251 1007.39 L843.251 1007.39 Z" fill="#ffffff" fill-rule="evenodd" fill-opacity="1" stroke="#00ee76" stroke-opacity="1" stroke-width="2.4"/>
<path clip-path="url(#clip101)" d="M862.937 1007.39 L862.937 1031.39 L886.937 1031.39 L886.937 1007.39 L862.937 1007.39 Z" fill="#ffffff" fill-rule="evenodd" fill-opacity="1" stroke="#00ee76" stroke-opacity="1" stroke-width="2.4"/>
<path clip-path="url(#clip101)" d="M881.468 1007.39 L881.468 1031.39 L905.468 1031.39 L905.468 1007.39 L881.468 1007.39 Z" fill="#ffffff" fill-rule="evenodd" fill-opacity="1" stroke="#00ee76" stroke-opacity="1" stroke-width="2.4"/>
<path clip-path="url(#clip101)" d="M901.199 1007.39 L901.199 1031.39 L925.199 1031.39 L925.199 1007.39 L901.199 1007.39 Z" fill="#ffffff" fill-rule="evenodd" fill-opacity="1" stroke="#00ee76" stroke-opacity="1" stroke-width="2.4"/>
<path clip-path="url(#clip101)" d="M920.887 1007.39 L920.887 1031.39 L944.887 1031.39 L944.887 1007.39 L920.887 1007.39 Z" fill="#ffffff" fill-rule="evenodd" fill-opacity="1" stroke="#00ee76" stroke-opacity="1" stroke-width="2.4"/>
<path clip-path="url(#clip101)" d="M939.866 1007.39 L939.866 1031.39 L963.866 1031.39 L963.866 1007.39 L939.866 1007.39 Z" fill="#ffffff" fill-rule="evenodd" fill-opacity="1" stroke="#00ee76" stroke-opacity="1" stroke-width="2.4"/>
<path clip-path="url(#clip101)" d="M959.452 1007.39 L959.452 1031.39 L983.452 1031.39 L983.452 1007.39 L959.452 1007.39 Z" fill="#ffffff" fill-rule="evenodd" fill-opacity="1" stroke="#00ee76" stroke-opacity="1" stroke-width="2.4"/>
<path clip-path="url(#clip101)" d="M979.597 1007.39 L979.597 1031.39 L1003.6 1031.39 L1003.6 1007.39 L979.597 1007.39 Z" fill="#ffffff" fill-rule="evenodd" fill-opacity="1" stroke="#00ee76" stroke-opacity="1" stroke-width="2.4"/>
<path clip-path="url(#clip101)" d="M999.014 1007.39 L999.014 1031.39 L1023.01 1031.39 L1023.01 1007.39 L999.014 1007.39 Z" fill="#ffffff" fill-rule="evenodd" fill-opacity="1" stroke="#00ee76" stroke-opacity="1" stroke-width="2.4"/>
<path clip-path="url(#clip101)" d="M1017.7 1007.39 L1017.7 1031.39 L1041.7 1031.39 L1041.7 1007.39 L1017.7 1007.39 Z" fill="#ffffff" fill-rule="evenodd" fill-opacity="1" stroke="#00ee76" stroke-opacity="1" stroke-width="2.4"/>
<path clip-path="url(#clip101)" d="M1037.38 1007.39 L1037.38 1031.39 L1061.38 1031.39 L1061.38 1007.39 L1037.38 1007.39 Z" fill="#ffffff" fill-rule="evenodd" fill-opacity="1" stroke="#00ee76" stroke-opacity="1" stroke-width="2.4"/>
<path clip-path="url(#clip101)" d="M1189.77 1007.39 L1189.77 1031.39 L1213.77 1031.39 L1213.77 1007.39 L1189.77 1007.39 Z" fill="#ffffff" fill-rule="evenodd" fill-opacity="1" stroke="#00ee76" stroke-opacity="1" stroke-width="2.4"/>
<path clip-path="url(#clip101)" d="M1327.94 1007.39 L1327.94 1031.39 L1351.94 1031.39 L1351.94 1007.39 L1327.94 1007.39 Z" fill="#ffffff" fill-rule="evenodd" fill-opacity="1" stroke="#00ee76" stroke-opacity="1" stroke-width="2.4"/>
<path clip-path="url(#clip101)" d="M1445.47 1007.39 L1445.47 1031.39 L1469.47 1031.39 L1469.47 1007.39 L1445.47 1007.39 Z" fill="#ffffff" fill-rule="evenodd" fill-opacity="1" stroke="#00ee76" stroke-opacity="1" stroke-width="2.4"/>
<path clip-path="url(#clip101)" d="M1542.78 1007.39 L1542.78 1031.39 L1566.78 1031.39 L1566.78 1007.39 L1542.78 1007.39 Z" fill="#ffffff" fill-rule="evenodd" fill-opacity="1" stroke="#00ee76" stroke-opacity="1" stroke-width="2.4"/>
<path clip-path="url(#clip101)" d="M1623.95 1007.39 L1623.95 1031.39 L1647.95 1031.39 L1647.95 1007.39 L1623.95 1007.39 Z" fill="#ffffff" fill-rule="evenodd" fill-opacity="1" stroke="#00ee76" stroke-opacity="1" stroke-width="2.4"/>
<path clip-path="url(#clip101)" d="M1691.41 1007.39 L1691.41 1031.39 L1715.41 1031.39 L1715.41 1007.39 L1691.41 1007.39 Z" fill="#ffffff" fill-rule="evenodd" fill-opacity="1" stroke="#00ee76" stroke-opacity="1" stroke-width="2.4"/>
<path clip-path="url(#clip101)" d="M1748.24 1007.39 L1748.24 1031.39 L1772.24 1031.39 L1772.24 1007.39 L1748.24 1007.39 Z" fill="#ffffff" fill-rule="evenodd" fill-opacity="1" stroke="#00ee76" stroke-opacity="1" stroke-width="2.4"/>
<path clip-path="url(#clip101)" d="M1797.06 1007.39 L1797.06 1031.39 L1821.06 1031.39 L1821.06 1007.39 L1797.06 1007.39 Z" fill="#ffffff" fill-rule="evenodd" fill-opacity="1" stroke="#00ee76" stroke-opacity="1" stroke-width="2.4"/>
<path clip-path="url(#clip101)" d="M1839.74 1007.39 L1839.74 1031.39 L1863.74 1031.39 L1863.74 1007.39 L1839.74 1007.39 Z" fill="#ffffff" fill-rule="evenodd" fill-opacity="1" stroke="#00ee76" stroke-opacity="1" stroke-width="2.4"/>
<path clip-path="url(#clip101)" d="M1876.66 1007.39 L1876.66 1031.39 L1900.66 1031.39 L1900.66 1007.39 L1876.66 1007.39 Z" fill="#ffffff" fill-rule="evenodd" fill-opacity="1" stroke="#00ee76" stroke-opacity="1" stroke-width="2.4"/>
<path clip-path="url(#clip101)" d="M1909.35 1007.39 L1909.35 1031.39 L1933.35 1031.39 L1933.35 1007.39 L1909.35 1007.39 Z" fill="#ffffff" fill-rule="evenodd" fill-opacity="1" stroke="#00ee76" stroke-opacity="1" stroke-width="2.4"/>
<path clip-path="url(#clip101)" d="M1938.53 1007.39 L1938.53 1031.39 L1962.53 1031.39 L1962.53 1007.39 L1938.53 1007.39 Z" fill="#ffffff" fill-rule="evenodd" fill-opacity="1" stroke="#00ee76" stroke-opacity="1" stroke-width="2.4"/>
<path clip-path="url(#clip101)" d="M1965.16 1007.39 L1965.16 1031.39 L1989.16 1031.39 L1989.16 1007.39 L1965.16 1007.39 Z" fill="#ffffff" fill-rule="evenodd" fill-opacity="1" stroke="#00ee76" stroke-opacity="1" stroke-width="2.4"/>
<path clip-path="url(#clip101)" d="M1989.07 1007.39 L1989.07 1031.39 L2013.07 1031.39 L2013.07 1007.39 L1989.07 1007.39 Z" fill="#ffffff" fill-rule="evenodd" fill-opacity="1" stroke="#00ee76" stroke-opacity="1" stroke-width="2.4"/>
<path clip-path="url(#clip101)" d="M2010.9 1007.39 L2010.9 1031.39 L2034.9 1031.39 L2034.9 1007.39 L2010.9 1007.39 Z" fill="#ffffff" fill-rule="evenodd" fill-opacity="1" stroke="#00ee76" stroke-opacity="1" stroke-width="2.4"/>
<path clip-path="url(#clip101)" d="M2031.12 1007.39 L2031.12 1031.39 L2055.12 1031.39 L2055.12 1007.39 L2031.12 1007.39 Z" fill="#ffffff" fill-rule="evenodd" fill-opacity="1" stroke="#00ee76" stroke-opacity="1" stroke-width="2.4"/>
<path clip-path="url(#clip101)" d="M2049.53 1007.39 L2049.53 1031.39 L2073.53 1031.39 L2073.53 1007.39 L2049.53 1007.39 Z" fill="#ffffff" fill-rule="evenodd" fill-opacity="1" stroke="#00ee76" stroke-opacity="1" stroke-width="2.4"/>
<path clip-path="url(#clip101)" d="M2066.61 1007.39 L2066.61 1031.39 L2090.61 1031.39 L2090.61 1007.39 L2066.61 1007.39 Z" fill="#ffffff" fill-rule="evenodd" fill-opacity="1" stroke="#00ee76" stroke-opacity="1" stroke-width="2.4"/>
<path clip-path="url(#clip101)" d="M2082.54 1007.39 L2082.54 1031.39 L2106.54 1031.39 L2106.54 1007.39 L2082.54 1007.39 Z" fill="#ffffff" fill-rule="evenodd" fill-opacity="1" stroke="#00ee76" stroke-opacity="1" stroke-width="2.4"/>
<path clip-path="url(#clip101)" d="M2097.25 1007.39 L2097.25 1031.39 L2121.25 1031.39 L2121.25 1007.39 L2097.25 1007.39 Z" fill="#ffffff" fill-rule="evenodd" fill-opacity="1" stroke="#00ee76" stroke-opacity="1" stroke-width="2.4"/>
<path clip-path="url(#clip101)" d="M2111.24 1007.39 L2111.24 1031.39 L2135.24 1031.39 L2135.24 1007.39 L2111.24 1007.39 Z" fill="#ffffff" fill-rule="evenodd" fill-opacity="1" stroke="#00ee76" stroke-opacity="1" stroke-width="2.4"/>
<path clip-path="url(#clip101)" d="M2123.9 1007.39 L2123.9 1031.39 L2147.9 1031.39 L2147.9 1007.39 L2123.9 1007.39 Z" fill="#ffffff" fill-rule="evenodd" fill-opacity="1" stroke="#00ee76" stroke-opacity="1" stroke-width="2.4"/>
<path clip-path="url(#clip101)" d="M2136.36 1007.39 L2136.36 1031.39 L2160.36 1031.39 L2160.36 1007.39 L2136.36 1007.39 Z" fill="#ffffff" fill-rule="evenodd" fill-opacity="1" stroke="#00ee76" stroke-opacity="1" stroke-width="2.4"/>
<path clip-path="url(#clip101)" d="M2148.24 1007.39 L2148.24 1031.39 L2172.24 1031.39 L2172.24 1007.39 L2148.24 1007.39 Z" fill="#ffffff" fill-rule="evenodd" fill-opacity="1" stroke="#00ee76" stroke-opacity="1" stroke-width="2.4"/>
<path clip-path="url(#clip101)" d="M2159.48 1007.39 L2159.48 1031.39 L2183.48 1031.39 L2183.48 1007.39 L2159.48 1007.39 Z" fill="#ffffff" fill-rule="evenodd" fill-opacity="1" stroke="#00ee76" stroke-opacity="1" stroke-width="2.4"/>
<path clip-path="url(#clip101)" d="M2169.06 1007.39 L2169.06 1031.39 L2193.06 1031.39 L2193.06 1007.39 L2169.06 1007.39 Z" fill="#ffffff" fill-rule="evenodd" fill-opacity="1" stroke="#00ee76" stroke-opacity="1" stroke-width="2.4"/>
<path clip-path="url(#clip101)" d="M2179.26 1007.39 L2179.26 1031.39 L2203.26 1031.39 L2203.26 1007.39 L2179.26 1007.39 Z" fill="#ffffff" fill-rule="evenodd" fill-opacity="1" stroke="#00ee76" stroke-opacity="1" stroke-width="2.4"/>
<path clip-path="url(#clip101)" d="M2188.39 1007.39 L2188.39 1031.39 L2212.39 1031.39 L2212.39 1007.39 L2188.39 1007.39 Z" fill="#ffffff" fill-rule="evenodd" fill-opacity="1" stroke="#00ee76" stroke-opacity="1" stroke-width="2.4"/>
<path clip-path="url(#clip101)" d="M2196.92 1007.39 L2196.92 1031.39 L2220.92 1031.39 L2220.92 1007.39 L2196.92 1007.39 Z" fill="#ffffff" fill-rule="evenodd" fill-opacity="1" stroke="#00ee76" stroke-opacity="1" stroke-width="2.4"/>
<path clip-path="url(#clip101)" d="M2204.94 1007.39 L2204.94 1031.39 L2228.94 1031.39 L2228.94 1007.39 L2204.94 1007.39 Z" fill="#ffffff" fill-rule="evenodd" fill-opacity="1" stroke="#00ee76" stroke-opacity="1" stroke-width="2.4"/>
<path clip-path="url(#clip101)" d="M2213.31 1007.39 L2213.31 1031.39 L2237.31 1031.39 L2237.31 1007.39 L2213.31 1007.39 Z" fill="#ffffff" fill-rule="evenodd" fill-opacity="1" stroke="#00ee76" stroke-opacity="1" stroke-width="2.4"/>
<path clip-path="url(#clip101)" d="M2220.7 1007.39 L2220.7 1031.39 L2244.7 1031.39 L2244.7 1007.39 L2220.7 1007.39 Z" fill="#ffffff" fill-rule="evenodd" fill-opacity="1" stroke="#00ee76" stroke-opacity="1" stroke-width="2.4"/>
<path clip-path="url(#clip101)" d="M2228.16 1007.39 L2228.16 1031.39 L2252.16 1031.39 L2252.16 1007.39 L2228.16 1007.39 Z" fill="#ffffff" fill-rule="evenodd" fill-opacity="1" stroke="#00ee76" stroke-opacity="1" stroke-width="2.4"/>
<path clip-path="url(#clip101)" d="M2235.33 1007.39 L2235.33 1031.39 L2259.33 1031.39 L2259.33 1007.39 L2235.33 1007.39 Z" fill="#ffffff" fill-rule="evenodd" fill-opacity="1" stroke="#00ee76" stroke-opacity="1" stroke-width="2.4"/>
<path clip-path="url(#clip101)" d="M2242.02 1007.39 L2242.02 1031.39 L2266.02 1031.39 L2266.02 1007.39 L2242.02 1007.39 Z" fill="#ffffff" fill-rule="evenodd" fill-opacity="1" stroke="#00ee76" stroke-opacity="1" stroke-width="2.4"/>
<path clip-path="url(#clip101)" d="M2247.84 1007.39 L2247.84 1031.39 L2271.84 1031.39 L2271.84 1007.39 L2247.84 1007.39 Z" fill="#ffffff" fill-rule="evenodd" fill-opacity="1" stroke="#00ee76" stroke-opacity="1" stroke-width="2.4"/>
<path clip-path="url(#clip100)" d="M461.22 236.113 L1090.55 236.113 L1090.55 80.5926 L461.22 80.5926  Z" fill="#ffffff" fill-rule="evenodd" fill-opacity="1"/>
<polyline clip-path="url(#clip100)" style="stroke:#000000; stroke-linecap:round; stroke-linejoin:round; stroke-width:4; stroke-opacity:1; fill:none" points="461.22,236.113 1090.55,236.113 1090.55,80.5926 461.22,80.5926 461.22,236.113 "/>
<circle clip-path="url(#clip100)" cx="548.187" cy="132.433" r="20.48" fill="#ffffff" fill-rule="evenodd" fill-opacity="1" stroke="#8470ff" stroke-opacity="1" stroke-width="3.41333"/>
<path clip-path="url(#clip100)" d="M635.154 115.153 L657.006 115.153 L657.006 119.088 L639.83 119.088 L639.83 129.319 L656.288 129.319 L656.288 133.254 L639.83 133.254 L639.83 145.777 L657.423 145.777 L657.423 149.713 L635.154 149.713 L635.154 115.153 Z" fill="#000000" fill-rule="nonzero" fill-opacity="1" /><path clip-path="url(#clip100)" d="M669.136 116.426 L669.136 123.787 L677.909 123.787 L677.909 127.097 L669.136 127.097 L669.136 141.171 Q669.136 144.342 669.992 145.245 Q670.872 146.148 673.534 146.148 L677.909 146.148 L677.909 149.713 L673.534 149.713 Q668.603 149.713 666.728 147.884 Q664.853 146.032 664.853 141.171 L664.853 127.097 L661.728 127.097 L661.728 123.787 L664.853 123.787 L664.853 116.426 L669.136 116.426 Z" fill="#000000" fill-rule="nonzero" fill-opacity="1" /><path clip-path="url(#clip100)" d="M705.061 134.065 L705.061 149.713 L700.802 149.713 L700.802 134.203 Q700.802 130.523 699.367 128.694 Q697.932 126.866 695.061 126.866 Q691.612 126.866 689.622 129.065 Q687.631 131.264 687.631 135.06 L687.631 149.713 L683.348 149.713 L683.348 113.694 L687.631 113.694 L687.631 127.815 Q689.159 125.477 691.219 124.319 Q693.302 123.162 696.01 123.162 Q700.478 123.162 702.77 125.94 Q705.061 128.694 705.061 134.065 Z" fill="#000000" fill-rule="nonzero" fill-opacity="1" /><path clip-path="url(#clip100)" d="M725.339 136.68 Q720.177 136.68 718.186 137.861 Q716.195 139.041 716.195 141.889 Q716.195 144.157 717.677 145.5 Q719.182 146.819 721.751 146.819 Q725.293 146.819 727.422 144.319 Q729.575 141.796 729.575 137.629 L729.575 136.68 L725.339 136.68 M733.834 134.921 L733.834 149.713 L729.575 149.713 L729.575 145.777 Q728.117 148.139 725.941 149.273 Q723.765 150.384 720.617 150.384 Q716.635 150.384 714.274 148.162 Q711.936 145.916 711.936 142.166 Q711.936 137.791 714.853 135.569 Q717.793 133.347 723.603 133.347 L729.575 133.347 L729.575 132.93 Q729.575 129.991 727.631 128.393 Q725.709 126.773 722.214 126.773 Q719.992 126.773 717.885 127.305 Q715.779 127.838 713.834 128.903 L713.834 124.967 Q716.172 124.065 718.371 123.625 Q720.57 123.162 722.654 123.162 Q728.279 123.162 731.057 126.078 Q733.834 128.995 733.834 134.921 Z" fill="#000000" fill-rule="nonzero" fill-opacity="1" /><path clip-path="url(#clip100)" d="M764.158 134.065 L764.158 149.713 L759.899 149.713 L759.899 134.203 Q759.899 130.523 758.464 128.694 Q757.029 126.866 754.158 126.866 Q750.709 126.866 748.718 129.065 Q746.728 131.264 746.728 135.06 L746.728 149.713 L742.445 149.713 L742.445 123.787 L746.728 123.787 L746.728 127.815 Q748.255 125.477 750.316 124.319 Q752.399 123.162 755.107 123.162 Q759.575 123.162 761.867 125.94 Q764.158 128.694 764.158 134.065 Z" fill="#000000" fill-rule="nonzero" fill-opacity="1" /><path clip-path="url(#clip100)" d="M794.829 135.685 L794.829 137.768 L775.246 137.768 Q775.524 142.166 777.885 144.481 Q780.269 146.773 784.505 146.773 Q786.959 146.773 789.251 146.171 Q791.565 145.569 793.834 144.365 L793.834 148.393 Q791.542 149.365 789.135 149.875 Q786.728 150.384 784.251 150.384 Q778.047 150.384 774.413 146.773 Q770.802 143.162 770.802 137.004 Q770.802 130.639 774.228 126.912 Q777.677 123.162 783.51 123.162 Q788.741 123.162 791.774 126.541 Q794.829 129.898 794.829 135.685 M790.57 134.435 Q790.524 130.94 788.602 128.856 Q786.704 126.773 783.556 126.773 Q779.991 126.773 777.839 128.787 Q775.709 130.801 775.385 134.458 L790.57 134.435 Z" fill="#000000" fill-rule="nonzero" fill-opacity="1" /><path clip-path="url(#clip100)" d="M814.737 134.828 L827.213 134.828 L827.213 138.625 L814.737 138.625 L814.737 134.828 Z" fill="#000000" fill-rule="nonzero" fill-opacity="1" /><path clip-path="url(#clip100)" d="M853.695 145.777 L870.014 145.777 L870.014 149.713 L848.07 149.713 L848.07 145.777 Q850.732 143.023 855.315 138.393 Q859.922 133.74 861.102 132.398 Q863.347 129.875 864.227 128.139 Q865.13 126.379 865.13 124.69 Q865.13 121.935 863.185 120.199 Q861.264 118.463 858.162 118.463 Q855.963 118.463 853.51 119.227 Q851.079 119.991 848.301 121.541 L848.301 116.819 Q851.125 115.685 853.579 115.106 Q856.033 114.528 858.07 114.528 Q863.44 114.528 866.634 117.213 Q869.829 119.898 869.829 124.389 Q869.829 126.518 869.019 128.44 Q868.232 130.338 866.125 132.93 Q865.547 133.602 862.445 136.819 Q859.343 140.014 853.695 145.777 Z" fill="#000000" fill-rule="nonzero" fill-opacity="1" /><path clip-path="url(#clip100)" d="M889.829 133.301 Q886.495 133.301 884.574 135.083 Q882.676 136.865 882.676 139.99 Q882.676 143.115 884.574 144.898 Q886.495 146.68 889.829 146.68 Q893.162 146.68 895.083 144.898 Q897.005 143.092 897.005 139.99 Q897.005 136.865 895.083 135.083 Q893.185 133.301 889.829 133.301 M885.153 131.31 Q882.144 130.569 880.454 128.509 Q878.787 126.449 878.787 123.486 Q878.787 119.342 881.727 116.935 Q884.69 114.528 889.829 114.528 Q894.991 114.528 897.931 116.935 Q900.87 119.342 900.87 123.486 Q900.87 126.449 899.181 128.509 Q897.514 130.569 894.528 131.31 Q897.907 132.097 899.782 134.389 Q901.681 136.68 901.681 139.99 Q901.681 145.014 898.602 147.699 Q895.546 150.384 889.829 150.384 Q884.111 150.384 881.033 147.699 Q877.977 145.014 877.977 139.99 Q877.977 136.68 879.875 134.389 Q881.773 132.097 885.153 131.31 M883.44 123.926 Q883.44 126.611 885.107 128.116 Q886.796 129.62 889.829 129.62 Q892.838 129.62 894.528 128.116 Q896.241 126.611 896.241 123.926 Q896.241 121.241 894.528 119.736 Q892.838 118.231 889.829 118.231 Q886.796 118.231 885.107 119.736 Q883.44 121.241 883.44 123.926 Z" fill="#000000" fill-rule="nonzero" fill-opacity="1" /><path clip-path="url(#clip100)" d="M924.157 131.078 Q927.514 131.796 929.389 134.065 Q931.287 136.333 931.287 139.666 Q931.287 144.782 927.768 147.583 Q924.25 150.384 917.768 150.384 Q915.593 150.384 913.278 149.944 Q910.986 149.527 908.532 148.671 L908.532 144.157 Q910.477 145.291 912.792 145.87 Q915.106 146.449 917.63 146.449 Q922.028 146.449 924.319 144.713 Q926.634 142.977 926.634 139.666 Q926.634 136.611 924.481 134.898 Q922.352 133.162 918.532 133.162 L914.505 133.162 L914.505 129.319 L918.718 129.319 Q922.167 129.319 923.995 127.953 Q925.824 126.565 925.824 123.972 Q925.824 121.31 923.926 119.898 Q922.051 118.463 918.532 118.463 Q916.611 118.463 914.412 118.879 Q912.213 119.296 909.574 120.176 L909.574 116.009 Q912.236 115.268 914.551 114.898 Q916.889 114.528 918.949 114.528 Q924.273 114.528 927.375 116.958 Q930.477 119.366 930.477 123.486 Q930.477 126.356 928.833 128.347 Q927.19 130.315 924.157 131.078 Z" fill="#000000" fill-rule="nonzero" fill-opacity="1" /><path clip-path="url(#clip100)" d="M940.153 143.833 L945.037 143.833 L945.037 149.713 L940.153 149.713 L940.153 143.833 Z" fill="#000000" fill-rule="nonzero" fill-opacity="1" /><path clip-path="url(#clip100)" d="M965.222 118.231 Q961.611 118.231 959.782 121.796 Q957.977 125.338 957.977 132.467 Q957.977 139.574 959.782 143.139 Q961.611 146.68 965.222 146.68 Q968.856 146.68 970.662 143.139 Q972.49 139.574 972.49 132.467 Q972.49 125.338 970.662 121.796 Q968.856 118.231 965.222 118.231 M965.222 114.528 Q971.032 114.528 974.088 119.134 Q977.166 123.717 977.166 132.467 Q977.166 141.194 974.088 145.801 Q971.032 150.384 965.222 150.384 Q959.412 150.384 956.333 145.801 Q953.278 141.194 953.278 132.467 Q953.278 123.717 956.333 119.134 Q959.412 114.528 965.222 114.528 Z" fill="#000000" fill-rule="nonzero" fill-opacity="1" /><path clip-path="url(#clip100)" d="M1000.04 115.153 L1004.71 115.153 L1004.71 129.759 L1020.22 115.153 L1026.24 115.153 L1009.09 131.264 L1027.47 149.713 L1021.31 149.713 L1004.71 133.069 L1004.71 149.713 L1000.04 149.713 L1000.04 115.153 Z" fill="#000000" fill-rule="nonzero" fill-opacity="1" /><path clip-path="url(#clip100)" d="M526.244 162.33 L526.244 206.215 L570.13 206.215 L570.13 162.33 L526.244 162.33 Z" fill="#ffffff" fill-rule="evenodd" fill-opacity="1" stroke="#00ee76" stroke-opacity="1" stroke-width="4.38857"/>
<path clip-path="url(#clip100)" d="M635.154 166.993 L657.006 166.993 L657.006 170.928 L639.83 170.928 L639.83 181.159 L656.288 181.159 L656.288 185.094 L639.83 185.094 L639.83 197.617 L657.423 197.617 L657.423 201.553 L635.154 201.553 L635.154 166.993 Z" fill="#000000" fill-rule="nonzero" fill-opacity="1" /><path clip-path="url(#clip100)" d="M669.136 168.266 L669.136 175.627 L677.909 175.627 L677.909 178.937 L669.136 178.937 L669.136 193.011 Q669.136 196.182 669.992 197.085 Q670.872 197.988 673.534 197.988 L677.909 197.988 L677.909 201.553 L673.534 201.553 Q668.603 201.553 666.728 199.724 Q664.853 197.872 664.853 193.011 L664.853 178.937 L661.728 178.937 L661.728 175.627 L664.853 175.627 L664.853 168.266 L669.136 168.266 Z" fill="#000000" fill-rule="nonzero" fill-opacity="1" /><path clip-path="url(#clip100)" d="M705.061 185.905 L705.061 201.553 L700.802 201.553 L700.802 186.043 Q700.802 182.363 699.367 180.534 Q697.932 178.706 695.061 178.706 Q691.612 178.706 689.622 180.905 Q687.631 183.104 687.631 186.9 L687.631 201.553 L683.348 201.553 L683.348 165.534 L687.631 165.534 L687.631 179.655 Q689.159 177.317 691.219 176.159 Q693.302 175.002 696.01 175.002 Q700.478 175.002 702.77 177.78 Q705.061 180.534 705.061 185.905 Z" fill="#000000" fill-rule="nonzero" fill-opacity="1" /><path clip-path="url(#clip100)" d="M724.344 203.96 Q722.538 208.59 720.825 210.002 Q719.112 211.414 716.242 211.414 L712.839 211.414 L712.839 207.849 L715.339 207.849 Q717.098 207.849 718.07 207.016 Q719.043 206.182 720.223 203.08 L720.987 201.136 L710.501 175.627 L715.015 175.627 L723.117 195.905 L731.219 175.627 L735.732 175.627 L724.344 203.96 Z" fill="#000000" fill-rule="nonzero" fill-opacity="1" /><path clip-path="url(#clip100)" d="M741.612 165.534 L745.871 165.534 L745.871 201.553 L741.612 201.553 L741.612 165.534 Z" fill="#000000" fill-rule="nonzero" fill-opacity="1" /><path clip-path="url(#clip100)" d="M776.959 187.525 L776.959 189.608 L757.376 189.608 Q757.654 194.006 760.015 196.321 Q762.399 198.613 766.635 198.613 Q769.089 198.613 771.38 198.011 Q773.695 197.409 775.964 196.205 L775.964 200.233 Q773.672 201.205 771.265 201.715 Q768.857 202.224 766.38 202.224 Q760.177 202.224 756.542 198.613 Q752.931 195.002 752.931 188.844 Q752.931 182.479 756.357 178.752 Q759.806 175.002 765.64 175.002 Q770.871 175.002 773.903 178.381 Q776.959 181.738 776.959 187.525 M772.7 186.275 Q772.654 182.78 770.732 180.696 Q768.834 178.613 765.686 178.613 Q762.121 178.613 759.968 180.627 Q757.839 182.641 757.515 186.298 L772.7 186.275 Z" fill="#000000" fill-rule="nonzero" fill-opacity="1" /><path clip-path="url(#clip100)" d="M805.501 185.905 L805.501 201.553 L801.241 201.553 L801.241 186.043 Q801.241 182.363 799.806 180.534 Q798.371 178.706 795.501 178.706 Q792.052 178.706 790.061 180.905 Q788.07 183.104 788.07 186.9 L788.07 201.553 L783.788 201.553 L783.788 175.627 L788.07 175.627 L788.07 179.655 Q789.598 177.317 791.658 176.159 Q793.741 175.002 796.45 175.002 Q800.917 175.002 803.209 177.78 Q805.501 180.534 805.501 185.905 Z" fill="#000000" fill-rule="nonzero" fill-opacity="1" /><path clip-path="url(#clip100)" d="M836.172 187.525 L836.172 189.608 L816.588 189.608 Q816.866 194.006 819.227 196.321 Q821.612 198.613 825.848 198.613 Q828.301 198.613 830.593 198.011 Q832.908 197.409 835.176 196.205 L835.176 200.233 Q832.885 201.205 830.477 201.715 Q828.07 202.224 825.593 202.224 Q819.389 202.224 815.755 198.613 Q812.144 195.002 812.144 188.844 Q812.144 182.479 815.57 178.752 Q819.019 175.002 824.852 175.002 Q830.084 175.002 833.116 178.381 Q836.172 181.738 836.172 187.525 M831.912 186.275 Q831.866 182.78 829.945 180.696 Q828.047 178.613 824.899 178.613 Q821.334 178.613 819.181 180.627 Q817.051 182.641 816.727 186.298 L831.912 186.275 Z" fill="#000000" fill-rule="nonzero" fill-opacity="1" /><path clip-path="url(#clip100)" d="M856.079 186.668 L868.556 186.668 L868.556 190.465 L856.079 190.465 L856.079 186.668 Z" fill="#000000" fill-rule="nonzero" fill-opacity="1" /><path clip-path="url(#clip100)" d="M895.037 197.617 L911.356 197.617 L911.356 201.553 L889.412 201.553 L889.412 197.617 Q892.074 194.863 896.657 190.233 Q901.264 185.58 902.444 184.238 Q904.69 181.715 905.569 179.979 Q906.472 178.219 906.472 176.53 Q906.472 173.775 904.528 172.039 Q902.607 170.303 899.505 170.303 Q897.306 170.303 894.852 171.067 Q892.421 171.831 889.644 173.381 L889.644 168.659 Q892.468 167.525 894.921 166.946 Q897.375 166.368 899.412 166.368 Q904.782 166.368 907.977 169.053 Q911.171 171.738 911.171 176.229 Q911.171 178.358 910.361 180.28 Q909.574 182.178 907.468 184.77 Q906.889 185.442 903.787 188.659 Q900.685 191.854 895.037 197.617 Z" fill="#000000" fill-rule="nonzero" fill-opacity="1" /><path clip-path="url(#clip100)" d="M931.171 185.141 Q927.838 185.141 925.917 186.923 Q924.018 188.705 924.018 191.83 Q924.018 194.955 925.917 196.738 Q927.838 198.52 931.171 198.52 Q934.504 198.52 936.426 196.738 Q938.347 194.932 938.347 191.83 Q938.347 188.705 936.426 186.923 Q934.528 185.141 931.171 185.141 M926.495 183.15 Q923.486 182.409 921.796 180.349 Q920.13 178.289 920.13 175.326 Q920.13 171.182 923.069 168.775 Q926.032 166.368 931.171 166.368 Q936.333 166.368 939.273 168.775 Q942.213 171.182 942.213 175.326 Q942.213 178.289 940.523 180.349 Q938.856 182.409 935.87 183.15 Q939.25 183.937 941.125 186.229 Q943.023 188.52 943.023 191.83 Q943.023 196.854 939.944 199.539 Q936.889 202.224 931.171 202.224 Q925.454 202.224 922.375 199.539 Q919.319 196.854 919.319 191.83 Q919.319 188.52 921.218 186.229 Q923.116 183.937 926.495 183.15 M924.782 175.766 Q924.782 178.451 926.449 179.956 Q928.139 181.46 931.171 181.46 Q934.18 181.46 935.87 179.956 Q937.583 178.451 937.583 175.766 Q937.583 173.081 935.87 171.576 Q934.18 170.071 931.171 170.071 Q928.139 170.071 926.449 171.576 Q924.782 173.081 924.782 175.766 Z" fill="#000000" fill-rule="nonzero" fill-opacity="1" /><path clip-path="url(#clip100)" d="M965.5 182.918 Q968.856 183.636 970.731 185.905 Q972.629 188.173 972.629 191.506 Q972.629 196.622 969.111 199.423 Q965.592 202.224 959.111 202.224 Q956.935 202.224 954.62 201.784 Q952.328 201.367 949.875 200.511 L949.875 195.997 Q951.819 197.131 954.134 197.71 Q956.449 198.289 958.972 198.289 Q963.37 198.289 965.662 196.553 Q967.977 194.817 967.977 191.506 Q967.977 188.451 965.824 186.738 Q963.694 185.002 959.875 185.002 L955.847 185.002 L955.847 181.159 L960.06 181.159 Q963.509 181.159 965.338 179.793 Q967.166 178.405 967.166 175.812 Q967.166 173.15 965.268 171.738 Q963.393 170.303 959.875 170.303 Q957.953 170.303 955.754 170.719 Q953.555 171.136 950.916 172.016 L950.916 167.849 Q953.578 167.108 955.893 166.738 Q958.231 166.368 960.291 166.368 Q965.615 166.368 968.717 168.798 Q971.819 171.206 971.819 175.326 Q971.819 178.196 970.176 180.187 Q968.532 182.155 965.5 182.918 Z" fill="#000000" fill-rule="nonzero" fill-opacity="1" /><path clip-path="url(#clip100)" d="M981.495 195.673 L986.379 195.673 L986.379 201.553 L981.495 201.553 L981.495 195.673 Z" fill="#000000" fill-rule="nonzero" fill-opacity="1" /><path clip-path="url(#clip100)" d="M1006.56 170.071 Q1002.95 170.071 1001.12 173.636 Q999.319 177.178 999.319 184.307 Q999.319 191.414 1001.12 194.979 Q1002.95 198.52 1006.56 198.52 Q1010.2 198.52 1012 194.979 Q1013.83 191.414 1013.83 184.307 Q1013.83 177.178 1012 173.636 Q1010.2 170.071 1006.56 170.071 M1006.56 166.368 Q1012.37 166.368 1015.43 170.974 Q1018.51 175.557 1018.51 184.307 Q1018.51 193.034 1015.43 197.641 Q1012.37 202.224 1006.56 202.224 Q1000.75 202.224 997.675 197.641 Q994.62 193.034 994.62 184.307 Q994.62 175.557 997.675 170.974 Q1000.75 166.368 1006.56 166.368 Z" fill="#000000" fill-rule="nonzero" fill-opacity="1" /><path clip-path="url(#clip100)" d="M1041.38 166.993 L1046.05 166.993 L1046.05 181.599 L1061.56 166.993 L1067.58 166.993 L1050.43 183.104 L1068.81 201.553 L1062.65 201.553 L1046.05 184.909 L1046.05 201.553 L1041.38 201.553 L1041.38 166.993 Z" fill="#000000" fill-rule="nonzero" fill-opacity="1" /></svg>
