<svg xmlns="http://www.w3.org/2000/svg" xmlns:xlink="http://www.w3.org/1999/xlink" x="0" y="0" width="461.6000061035156" height="184.4499969482422" style="
        width:461.6000061035156px;
        height:184.4499969482422px;
        background: transparent;
        fill: none;
">
        <svg xmlns="http://www.w3.org/2000/svg"/>
        
        <svg xmlns="http://www.w3.org/2000/svg" class="role-diagram-draw-area"><g class="shapes-region" style="stroke: black; fill: none;"><g class="composite-shape"><path class="real" d=" M156.16,179.65 C156.16,141.24 187.3,110.09 225.72,110.09 C264.14,110.09 295.28,141.24 295.28,179.65 C295.28,218.07 264.14,249.21 225.72,249.21 C187.3,249.21 156.16,218.07 156.16,179.65 Z" style="stroke-width: 1; stroke: rgb(0, 0, 0); fill: rgb(203, 60, 51); fill-opacity: 0.77;"/></g><g class="composite-shape"><path class="real" d=" M161.47,116.64 C161.47,109.95 166.89,104.52 173.59,104.52 C180.28,104.52 185.71,109.95 185.71,116.64 C185.71,123.33 180.28,128.76 173.59,128.76 C166.89,128.76 161.47,123.33 161.47,116.64 Z" style="stroke-width: 1; stroke: rgb(0, 0, 0); fill: rgb(56, 152, 38); fill-opacity: 0.87;"/></g><g class="composite-shape"><path class="real" d=" M129.04,179.65 C129.04,126.26 172.32,82.97 225.72,82.97 C279.12,82.97 322.4,126.26 322.4,179.65 C322.4,233.05 279.12,276.34 225.72,276.34 C172.32,276.34 129.04,233.05 129.04,179.65 Z" style="stroke-width: 1; stroke: rgb(0, 0, 0); fill: none; fill-opacity: 1; stroke-dasharray: 6, 6;"/></g><g class="composite-shape"><path class="real" d=" M212.8,40.99 C212.8,34.3 218.23,28.87 224.92,28.87 C231.61,28.87 237.04,34.3 237.04,40.99 C237.04,47.69 231.61,53.11 224.92,53.11 C218.23,53.11 212.8,47.69 212.8,40.99 Z" style="stroke-width: 1; stroke: rgb(0, 0, 0); fill: rgb(64, 99, 216); fill-opacity: 0.85;"/></g><g class="composite-shape"><path class="real" d=" M294.89,165.12 C294.89,158.43 300.32,153 307.01,153 C313.71,153 319.13,158.43 319.13,165.12 C319.13,171.81 313.71,177.24 307.01,177.24 C300.32,177.24 294.89,171.81 294.89,165.12 Z" style="stroke-width: 1; stroke: rgb(0, 0, 0); fill: rgb(56, 152, 38); fill-opacity: 0.87;"/></g><g class="composite-shape"><path class="real" d=" M133.59,162.45 C133.59,155.76 139.02,150.33 145.71,150.33 C152.41,150.33 157.83,155.76 157.83,162.45 C157.83,169.15 152.41,174.57 145.71,174.57 C139.02,174.57 133.59,169.15 133.59,162.45 Z" style="stroke-width: 1; stroke: rgb(0, 0, 0); fill: rgb(56, 152, 38); fill-opacity: 0.87;"/></g><g class="composite-shape"><path class="real" d=" M268.67,116.37 C268.67,109.68 274.09,104.25 280.79,104.25 C287.48,104.25 292.91,109.68 292.91,116.37 C292.91,123.07 287.48,128.49 280.79,128.49 C274.09,128.49 268.67,123.07 268.67,116.37 Z" style="stroke-width: 1; stroke: rgb(0, 0, 0); fill: rgb(56, 152, 38); fill-opacity: 1;"/></g><g class="composite-shape"><path class="real" d=" M314.27,86.99 C314.27,80.3 319.69,74.87 326.39,74.87 C333.08,74.87 338.51,80.3 338.51,86.99 C338.51,93.69 333.08,99.11 326.39,99.11 C319.69,99.11 314.27,93.69 314.27,86.99 Z" style="stroke-width: 1; stroke: rgb(0, 0, 0); fill: rgb(149, 88, 178); fill-opacity: 1;"/></g><g class="composite-shape"><path class="real" d=" M115.07,80.86 C115.07,74.17 120.49,68.74 127.19,68.74 C133.88,68.74 139.31,74.17 139.31,80.86 C139.31,87.55 133.88,92.98 127.19,92.98 C120.49,92.98 115.07,87.55 115.07,80.86 Z" style="stroke-width: 1; stroke: rgb(0, 0, 0); fill: rgb(149, 88, 178); fill-opacity: 1;"/></g><g class="composite-shape"><path class="real" d=" M76.13,163.79 C76.13,157.1 81.56,151.67 88.25,151.67 C94.95,151.67 100.37,157.1 100.37,163.79 C100.37,170.49 94.95,175.91 88.25,175.91 C81.56,175.91 76.13,170.49 76.13,163.79 Z" style="stroke-width: 1; stroke: rgb(0, 0, 0); fill: rgb(64, 99, 216); fill-opacity: 0.85;"/></g><g class="composite-shape"><path class="real" d=" M351.73,164.33 C351.73,157.63 357.16,152.21 363.85,152.21 C370.55,152.21 375.97,157.63 375.97,164.33 C375.97,171.02 370.55,176.45 363.85,176.45 C357.16,176.45 351.73,171.02 351.73,164.33 Z" style="stroke-width: 1; stroke: rgb(0, 0, 0); fill: rgb(64, 99, 216); fill-opacity: 0.85;"/></g><g class="arrow-line"><path class="connection real" stroke-dasharray="" d="  M100.37,163.79 L130.37,163.79" style="stroke: rgb(0, 0, 0); stroke-width: 1; fill: none; fill-opacity: 1;"/><g stroke="#000" transform="matrix(-1,1.2246467991473532e-16,-1.2246467991473532e-16,-1,132.37332356770824,163.79333394368484)" style="stroke: rgb(0, 0, 0); stroke-width: 1;"><path d=" M10.93,-3.29 Q4.96,-0.45 0,0 Q4.96,0.45 10.93,3.29"/></g></g><g class="arrow-line"><path class="connection real" stroke-dasharray="" d="  M161.71,106.46 L140.06,88.98" style="stroke: rgb(0, 0, 0); stroke-width: 1; fill: none; fill-opacity: 1;"/><g stroke="#000" transform="matrix(0.7779142411730525,0.6283704587105873,-0.6283704587105873,0.7779142411730525,138.50665690104162,87.71999511718752)" style="stroke: rgb(0, 0, 0); stroke-width: 1;"><path d=" M10.93,-3.29 Q4.96,-0.45 0,0 Q4.96,0.45 10.93,3.29"/></g></g><g class="arrow-line"><path class="connection real" stroke-dasharray="" d="  M225.72,53.45 L225.72,80.71" style="stroke: rgb(0, 0, 0); stroke-width: 1; fill: none; fill-opacity: 1;"/><g stroke="#000" transform="matrix(-1.8369701987210297e-16,-1,1,-1.8369701987210297e-16,225.71999511718752,82.71332906087244)" style="stroke: rgb(0, 0, 0); stroke-width: 1;"><path d=" M10.93,-3.29 Q4.96,-0.45 0,0 Q4.96,0.45 10.93,3.29"/></g></g><g class="composite-shape"><path class="real" d=" M213.6,97.97 C213.6,91.28 219.03,85.85 225.72,85.85 C232.41,85.85 237.84,91.28 237.84,97.97 C237.84,104.67 232.41,110.09 225.72,110.09 C219.03,110.09 213.6,104.67 213.6,97.97 Z" style="stroke-width: 1; stroke: rgb(0, 0, 0); fill: rgb(56, 152, 38); fill-opacity: 1;"/></g><g class="arrow-line"><path class="connection real" stroke-dasharray="" d="  M293.71,106.99 L313.63,94.14" style="stroke: rgb(0, 0, 0); stroke-width: 1; fill: none; fill-opacity: 1;"/><g stroke="#000" transform="matrix(-0.8401882150112481,0.5422949044166031,-0.5422949044166031,-0.8401882150112481,315.30665690104166,93.05332845052081)" style="stroke: rgb(0, 0, 0); stroke-width: 1;"><path d=" M10.93,-3.29 Q4.96,-0.45 0,0 Q4.96,0.45 10.93,3.29"/></g></g><g class="arrow-line"><path class="connection real" stroke-dasharray="" d="  M351.73,164.33 L323.01,164.33" style="stroke: rgb(0, 0, 0); stroke-width: 1; fill: none; fill-opacity: 1;"/><g stroke="#000" transform="matrix(1,-2.4492935982947064e-16,2.4492935982947064e-16,1,321.0133138020835,164.32666727701817)" style="stroke: rgb(0, 0, 0); stroke-width: 1;"><path d=" M10.93,-3.29 Q4.96,-0.45 0,0 Q4.96,0.45 10.93,3.29"/></g></g><g/></g><g/><g/><g/></svg>
        <svg xmlns="http://www.w3.org/2000/svg" xmlns:xlink="http://www.w3.org/1999/xlink" width="460" height="182.85000610351562" style="width:460px;height:182.85000610351562px;font-family:LatinModern-Math, LatinModern, Asana-Math, Asana;background:transparent;"></svg>
</svg>
