<svg xmlns="http://www.w3.org/2000/svg" xmlns:xlink="http://www.w3.org/1999/xlink" x="0" y="0" width="461.6000162760417" height="184.45001220703125" style="
        width:461.6000162760417px;
        height:184.45001220703125px;
        background: #FFF;
        fill: none;
">
        
        
        <svg xmlns="http://www.w3.org/2000/svg" class="role-diagram-draw-area"><g class="shapes-region" style="stroke: black; fill: none;"><g class="composite-shape"><path class="real" d=" M235.16,180.65 C235.16,142.24 266.3,111.09 304.72,111.09 C343.14,111.09 374.28,142.24 374.28,180.65 C374.28,219.07 343.14,250.21 304.72,250.21 C266.3,250.21 235.16,219.07 235.16,180.65 Z" style="stroke-width: 1; stroke: rgb(0, 0, 0); fill: rgb(203, 60, 51); fill-opacity: 0.77;"/></g><g class="composite-shape"><path class="real" d=" M240.47,117.64 C240.47,110.95 245.89,105.52 252.59,105.52 C259.28,105.52 264.71,110.95 264.71,117.64 C264.71,124.33 259.28,129.76 252.59,129.76 C245.89,129.76 240.47,124.33 240.47,117.64 Z" style="stroke-width: 1; stroke: rgb(0, 0, 0); fill: rgb(56, 152, 38); fill-opacity: 0.87;"/></g><g class="composite-shape"><path class="real" d=" M208.04,180.65 C208.04,127.26 251.32,83.97 304.72,83.97 C358.12,83.97 401.4,127.26 401.4,180.65 C401.4,234.05 358.12,277.34 304.72,277.34 C251.32,277.34 208.04,234.05 208.04,180.65 Z" style="stroke-width: 1; stroke: rgb(0, 0, 0); fill: none; fill-opacity: 1; stroke-dasharray: 6, 6;"/></g><g class="composite-shape"><path class="real" d=" M291.8,41.99 C291.8,35.3 297.23,29.87 303.92,29.87 C310.61,29.87 316.04,35.3 316.04,41.99 C316.04,48.69 310.61,54.11 303.92,54.11 C297.23,54.11 291.8,48.69 291.8,41.99 Z" style="stroke-width: 1; stroke: rgb(0, 0, 0); fill: rgb(64, 99, 216); fill-opacity: 0.85;"/></g><g class="composite-shape"><path class="real" d=" M373.89,166.12 C373.89,159.43 379.32,154 386.01,154 C392.71,154 398.13,159.43 398.13,166.12 C398.13,172.81 392.71,178.24 386.01,178.24 C379.32,178.24 373.89,172.81 373.89,166.12 Z" style="stroke-width: 1; stroke: rgb(0, 0, 0); fill: rgb(56, 152, 38); fill-opacity: 0.87;"/></g><g class="composite-shape"><path class="real" d=" M212.59,163.45 C212.59,156.76 218.02,151.33 224.71,151.33 C231.41,151.33 236.83,156.76 236.83,163.45 C236.83,170.15 231.41,175.57 224.71,175.57 C218.02,175.57 212.59,170.15 212.59,163.45 Z" style="stroke-width: 1; stroke: rgb(0, 0, 0); fill: rgb(56, 152, 38); fill-opacity: 0.87;"/></g><g class="composite-shape"><path class="real" d=" M347.67,117.37 C347.67,110.68 353.09,105.25 359.79,105.25 C366.48,105.25 371.91,110.68 371.91,117.37 C371.91,124.07 366.48,129.49 359.79,129.49 C353.09,129.49 347.67,124.07 347.67,117.37 Z" style="stroke-width: 1; stroke: rgb(0, 0, 0); fill: rgb(56, 152, 38); fill-opacity: 1;"/></g><g class="composite-shape"><path class="real" d=" M393.27,87.99 C393.27,81.3 398.69,75.87 405.39,75.87 C412.08,75.87 417.51,81.3 417.51,87.99 C417.51,94.69 412.08,100.11 405.39,100.11 C398.69,100.11 393.27,94.69 393.27,87.99 Z" style="stroke-width: 1; stroke: rgb(0, 0, 0); fill: rgb(149, 88, 178); fill-opacity: 1;"/></g><g class="composite-shape"><path class="real" d=" M194.07,81.86 C194.07,75.17 199.49,69.74 206.19,69.74 C212.88,69.74 218.31,75.17 218.31,81.86 C218.31,88.55 212.88,93.98 206.19,93.98 C199.49,93.98 194.07,88.55 194.07,81.86 Z" style="stroke-width: 1; stroke: rgb(0, 0, 0); fill: rgb(149, 88, 178); fill-opacity: 1;"/></g><g class="composite-shape"><path class="real" d=" M155.13,164.79 C155.13,158.1 160.56,152.67 167.25,152.67 C173.95,152.67 179.37,158.1 179.37,164.79 C179.37,171.49 173.95,176.91 167.25,176.91 C160.56,176.91 155.13,171.49 155.13,164.79 Z" style="stroke-width: 1; stroke: rgb(0, 0, 0); fill: rgb(64, 99, 216); fill-opacity: 0.85;"/></g><g class="composite-shape"><path class="real" d=" M430.73,165.33 C430.73,158.63 436.16,153.21 442.85,153.21 C449.55,153.21 454.97,158.63 454.97,165.33 C454.97,172.02 449.55,177.45 442.85,177.45 C436.16,177.45 430.73,172.02 430.73,165.33 Z" style="stroke-width: 1; stroke: rgb(0, 0, 0); fill: rgb(64, 99, 216); fill-opacity: 0.85;"/></g><g class="arrow-line"><path class="connection real" stroke-dasharray="" d="  M179.37,164.79 L209.37,164.79" style="stroke: rgb(0, 0, 0); stroke-width: 1; fill: none; fill-opacity: 1;"/><g stroke="#000" transform="matrix(-1,1.2246467991473532e-16,-1.2246467991473532e-16,-1,211.37332356770824,164.79333394368484)" style="stroke: rgb(0, 0, 0); stroke-width: 1;"><path d=" M10.93,-3.29 Q4.96,-0.45 0,0 Q4.96,0.45 10.93,3.29"/></g></g><g class="arrow-line"><path class="connection real" stroke-dasharray="" d="  M240.71,107.46 L219.06,89.98" style="stroke: rgb(0, 0, 0); stroke-width: 1; fill: none; fill-opacity: 1;"/><g stroke="#000" transform="matrix(0.7779142411730525,0.6283704587105873,-0.6283704587105873,0.7779142411730525,217.50665690104162,88.71999511718752)" style="stroke: rgb(0, 0, 0); stroke-width: 1;"><path d=" M10.93,-3.29 Q4.96,-0.45 0,0 Q4.96,0.45 10.93,3.29"/></g></g><g class="arrow-line"><path class="connection real" stroke-dasharray="" d="  M304.72,54.45 L304.72,81.71" style="stroke: rgb(0, 0, 0); stroke-width: 1; fill: none; fill-opacity: 1;"/><g stroke="#000" transform="matrix(-1.8369701987210297e-16,-1,1,-1.8369701987210297e-16,304.7199951171875,83.71332906087241)" style="stroke: rgb(0, 0, 0); stroke-width: 1;"><path d=" M10.93,-3.29 Q4.96,-0.45 0,0 Q4.96,0.45 10.93,3.29"/></g></g><g class="composite-shape"><path class="real" d=" M292.6,98.97 C292.6,92.28 298.03,86.85 304.72,86.85 C311.41,86.85 316.84,92.28 316.84,98.97 C316.84,105.67 311.41,111.09 304.72,111.09 C298.03,111.09 292.6,105.67 292.6,98.97 Z" style="stroke-width: 1; stroke: rgb(0, 0, 0); fill: rgb(56, 152, 38); fill-opacity: 1;"/></g><g class="arrow-line"><path class="connection real" stroke-dasharray="" d="  M372.71,107.99 L392.63,95.14" style="stroke: rgb(0, 0, 0); stroke-width: 1; fill: none; fill-opacity: 1;"/><g stroke="#000" transform="matrix(-0.8401882150112481,0.5422949044166031,-0.5422949044166031,-0.8401882150112481,394.3066569010417,94.05332845052081)" style="stroke: rgb(0, 0, 0); stroke-width: 1;"><path d=" M10.93,-3.29 Q4.96,-0.45 0,0 Q4.96,0.45 10.93,3.29"/></g></g><g class="arrow-line"><path class="connection real" stroke-dasharray="" d="  M430.73,165.33 L402.01,165.33" style="stroke: rgb(0, 0, 0); stroke-width: 1; fill: none; fill-opacity: 1;"/><g stroke="#000" transform="matrix(1,-2.4492935982947064e-16,2.4492935982947064e-16,1,400.0133138020835,165.32666727701817)" style="stroke: rgb(0, 0, 0); stroke-width: 1;"><path d=" M10.93,-3.29 Q4.96,-0.45 0,0 Q4.96,0.45 10.93,3.29"/></g></g><g/></g><g/><g/><g/></svg>
        <svg xmlns="http://www.w3.org/2000/svg" xmlns:xlink="http://www.w3.org/1999/xlink" width="460" height="182.8499959309896" style="width:460px;height:182.8499959309896px;font-family:LatinModern-Math, LatinModern, Asana-Math, Asana;background:#FFF;"><g><g><g><g transform="matrix(1,0,0,1,2.137491861979168,39.44500406901042)"><path transform="matrix(0.025920000000000002,0,0,-0.025920000000000002,0,0)" d="M27 0L102 0L178 204L468 204L545 0L637 0L377 694L288 694ZM199 260C278 476 315 587 323 624C329 587 356 512 447 260ZM674 221C674 102 744 -11 846 -11C912 -11 960 19 994 52L994 0L1073 0L1073 722L997 722L997 401C962 429 915 456 852 456C753 456 674 353 674 221ZM752 222C752 353 839 394 897 394L899 394C910 394 942 393 973 364C991 347 994 341 994 325L994 134C994 103 947 51 887 51C833 51 752 90 752 222ZM1183 34C1258 -7 1319 -11 1353 -11C1487 -11 1516 72 1516 127C1516 192 1470 234 1429 252C1367 280 1260 267 1260 340C1260 365 1275 401 1344 401C1416 401 1448 383 1488 364L1499 430C1444 453 1409 461 1353 461C1217 461 1189 382 1189 329C1189 259 1249 220 1293 206C1324 196 1367 191 1389 184C1409 178 1445 158 1445 120C1445 93 1427 52 1352 52C1271 52 1223 86 1195 102ZM1569 221C1569 85 1674 -11 1788 -11C1902 -11 2008 84 2008 220C2008 345 1916 461 1788 461C1670 461 1569 357 1569 221ZM1647 231C1647 352 1724 399 1788 399C1852 399 1929 353 1929 231C1929 106 1855 53 1788 53C1722 53 1647 105 1647 231ZM2092 0L2167 0L2167 206C2167 352 2278 386 2337 388L2337 455C2231 453 2178 385 2162 360L2162 450L2092 450ZM2434 0L2512 0L2512 46C2546 15 2587 -11 2646 -11C2745 -11 2833 86 2833 224C2833 344 2768 455 2669 455C2638 455 2573 448 2509 397L2509 722L2434 722ZM2512 133L2512 320C2512 357 2567 394 2619 394C2673 394 2754 356 2754 223C2754 92 2668 50 2611 50C2582 50 2552 62 2529 90C2516 109 2512 107 2512 133ZM2932 226C2932 102 3019 -11 3150 -11C3213 -11 3265 11 3308 40L3302 106C3258 74 3213 51 3150 51C3074 51 3006 117 3002 220L3312 220L3312 249C3303 420 3205 461 3134 461C3028 461 2932 360 2932 226ZM3007 275C3018 324 3058 399 3134 399C3163 399 3238 386 3255 275ZM3377 221C3377 102 3447 -11 3549 -11C3615 -11 3663 19 3697 52L3697 0L3776 0L3776 722L3700 722L3700 401C3665 429 3618 456 3555 456C3456 456 3377 353 3377 221ZM3455 222C3455 353 3542 394 3600 394L3602 394C3613 394 3645 393 3676 364C3694 347 3697 341 3697 325L3697 134C3697 103 3650 51 3590 51C3536 51 3455 90 3455 222ZM3903 47C3966 7 4040 -22 4132 -22C4269 -22 4358 81 4358 189C4358 289 4288 355 4224 382C4188 397 4103 412 4074 424C4030 442 3994 482 3994 531C3994 590 4048 649 4139 649C4221 649 4263 621 4309 585L4323 668C4271 696 4221 716 4140 716C3999 716 3914 616 3914 519C3914 415 3997 351 4068 332C4155 309 4168 308 4192 299C4243 278 4278 232 4278 179C4278 114 4223 47 4132 47C4033 47 3966 92 3918 130ZM4444 221C4444 85 4549 -11 4663 -11C4777 -11 4883 84 4883 220C4883 345 4791 461 4663 461C4545 461 4444 357 4444 221ZM4522 231C4522 352 4599 399 4663 399C4727 399 4804 353 4804 231C4804 106 4730 53 4663 53C4597 53 4522 105 4522 231ZM4995 0L5070 0L5070 722L4995 722ZM5233 122C5233 70 5233 -11 5338 -11C5393 -11 5461 3 5513 48L5513 0L5589 0L5589 445L5511 445L5511 165C5511 155 5511 146 5510 136C5505 93 5466 45 5391 45C5323 45 5312 67 5311 110L5311 445L5233 445ZM5688 386L5772 386L5772 117C5772 7 5821 -11 5854 -11C5899 -11 5950 -1 6002 27L5986 86C5972 76 5941 53 5898 53C5846 53 5844 112 5844 140L5844 386L5985 386L5985 445L5844 445L5844 571L5774 571L5774 445L5688 445ZM6112 0L6187 0L6187 445L6112 445ZM6105 590L6195 590L6195 679L6105 679ZM6300 221C6300 85 6405 -11 6519 -11C6633 -11 6739 84 6739 220C6739 345 6647 461 6519 461C6401 461 6300 357 6300 221ZM6378 231C6378 352 6455 399 6519 399C6583 399 6660 353 6660 231C6660 106 6586 53 6519 53C6453 53 6378 105 6378 231ZM6850 0L6928 0L6928 240C6928 314 6953 394 7030 394C7128 394 7128 319 7128 281L7128 0L7206 0L7206 288C7206 358 7197 455 7069 455C6981 455 6937 398 6923 380L6923 450L6850 450ZM7322 623L7464 623L7582 624L7582 0L7671 0L7671 624L7788 623L7930 623L7930 689L7322 689ZM8047 0L8125 0L8125 240C8125 314 8150 394 8227 394C8325 394 8325 319 8325 281L8325 0L8403 0L8403 288C8403 349 8399 455 8266 455C8197 455 8154 422 8122 384L8122 722L8047 722ZM8518 226C8518 102 8605 -11 8736 -11C8799 -11 8851 11 8894 40L8888 106C8844 74 8799 51 8736 51C8660 51 8592 117 8588 220L8898 220L8898 249C8889 420 8791 461 8720 461C8614 461 8518 360 8518 226ZM8593 275C8604 324 8644 399 8720 399C8749 399 8824 386 8841 275ZM8958 221C8958 85 9063 -11 9177 -11C9291 -11 9397 84 9397 220C9397 345 9305 461 9177 461C9059 461 8958 357 8958 221ZM9036 231C9036 352 9113 399 9177 399C9241 399 9318 353 9318 231C9318 106 9244 53 9177 53C9111 53 9036 105 9036 231ZM9481 0L9556 0L9556 206C9556 352 9667 386 9726 388L9726 455C9620 453 9567 385 9551 360L9551 450L9481 450ZM9756 445L9943 18C9947 10 9948 6 9948 1C9948 -3 9947 -8 9944 -15C9901 -119 9893 -149 9851 -149C9834 -149 9812 -143 9778 -132L9783 -197C9807 -203 9837 -205 9856 -205C9902 -205 9931 -182 9971 -90L10188 445L10113 445C10047 281 9982 118 9980 50C9971 107 9971 134 9835 445ZM10216 0L10300 0L10300 84L10216 84ZM10337 -171C10368 -189 10409 -205 10457 -205C10508 -205 10583 -173 10583 -50L10583 445L10508 445L10508 -65C10508 -74 10508 -82 10506 -91C10499 -117 10471 -141 10430 -141C10399 -141 10377 -130 10352 -110ZM10494 590L10584 590L10584 679L10494 679ZM10746 0L10821 0L10821 722L10746 722Z" stroke="rgb(0,0,0)" stroke-opacity="1" stroke-width="8" fill="rgb(0,0,0)" fill-opacity="1"></path></g></g></g></g></svg>
</svg>
