<?xml version="1.0" encoding="UTF-8" standalone="no"?>
<svg
   xmlns:dc="http://purl.org/dc/elements/1.1/"
   xmlns:cc="http://creativecommons.org/ns#"
   xmlns:rdf="http://www.w3.org/1999/02/22-rdf-syntax-ns#"
   xmlns:svg="http://www.w3.org/2000/svg"
   xmlns="http://www.w3.org/2000/svg"
   viewBox="0 0 355 96"
   height="96"
   width="355"
   xml:space="preserve"
   id="svg2"
   version="1.1"><metadata
     id="metadata8"><rdf:RDF><cc:Work
         rdf:about=""><dc:format>image/svg+xml</dc:format><dc:type
           rdf:resource="http://purl.org/dc/dcmitype/StillImage" /></cc:Work></rdf:RDF></metadata><defs
     id="defs6"><clipPath
       id="clipPath18"
       clipPathUnits="userSpaceOnUse"><path
         style="clip-rule:evenodd"
         id="path16"
         d="M 0,7.629e-6 H 266.25 V 72.000008 H 0 Z" /></clipPath><clipPath
       id="clipPath28"
       clipPathUnits="userSpaceOnUse"><path
         style="clip-rule:evenodd"
         id="path26"
         d="m 190.5,0.71656 h 75.75 v 69.783 H 190.5 Z" /></clipPath><clipPath
       id="clipPath38"
       clipPathUnits="userSpaceOnUse"><path
         id="path36"
         d="M 0,0 H 96.523 V 89.721 H 0 Z" /></clipPath><clipPath
       id="clipPath52"
       clipPathUnits="userSpaceOnUse"><path
         style="clip-rule:evenodd"
         id="path50"
         d="m 48.144,-0.63365 h 79.5 v 42 h -79.5 z" /></clipPath><clipPath
       id="clipPath62"
       clipPathUnits="userSpaceOnUse"><path
         style="clip-rule:evenodd"
         id="path60"
         d="m 45.144,-0.63364 h 85.5 v 45 h -85.5 z" /></clipPath><clipPath
       id="clipPath76"
       clipPathUnits="userSpaceOnUse"><path
         style="clip-rule:evenodd"
         id="path74"
         d="m 33.144,-0.63365 h 109.5 v 57.75 h -109.5 z" /></clipPath><clipPath
       id="clipPath108"
       clipPathUnits="userSpaceOnUse"><path
         style="clip-rule:evenodd"
         id="path106"
         d="M -41.856,117.87 H 417.14 v -594 H -41.856" /></clipPath><clipPath
       id="clipPath120"
       clipPathUnits="userSpaceOnUse"><path
         style="clip-rule:evenodd"
         id="path118"
         d="M -41.856,117.87 H 417.14 v -594 H -41.856" /></clipPath><clipPath
       id="clipPath134"
       clipPathUnits="userSpaceOnUse"><path
         style="clip-rule:evenodd"
         id="path132"
         d="M 3.967e-6,0 H 266.25 V 72 H 3.967e-6 Z" /></clipPath></defs><g
     transform="matrix(1.3333333,0,0,-1.3333333,0,96)"
     id="g10"><g
       id="g12"><g
         clip-path="url(#clipPath18)"
         id="g14"><path
           id="path20"
           style="fill:#ffffff;fill-opacity:1;fill-rule:evenodd;stroke:none"
           d="m 0,-0.033775 h 266.25 v 72.034 H 0 Z" /></g></g><g
       id="g22"><g
         clip-path="url(#clipPath28)"
         id="g24"><g
           transform="matrix(1.0521,0,-1.88e-7,0.9692,190.5,0.71655)"
           id="g30"><g
             transform="scale(0.74594,0.80249)"
             id="g32"><g
               clip-path="url(#clipPath38)"
               id="g34"><path
                 id="path40"
                 style="fill:#ffffff;fill-opacity:1;fill-rule:nonzero;stroke:none"
                 d="m -37.4,-475.94 h 459 v 589.35 h -459 z" /><path
                 id="path42"
                 style="fill:#ffffff;fill-opacity:1;fill-rule:nonzero;stroke:none"
                 d="m -37.4,-165.11 h 459 v 278.52 h -459 z" /><path
                 id="path44"
                 style="fill:#ffffff;fill-opacity:1;fill-rule:nonzero;stroke:none"
                 d="m -37.4,-0.2264 h 459 v 101.94 h -459 z" /><g
                 id="g46"><g
                   clip-path="url(#clipPath52)"
                   id="g48"><path
                     id="path54"
                     style="fill:#cb3c33;fill-opacity:0.76471001;fill-rule:nonzero;stroke:none"
                     d="m 49.589,1.5548 c 0,21.4132 17.347,38.7802 38.748,38.7802 21.403,0 38.743,-17.367 38.743,-38.7802 0,-21.4188 -17.34,-38.7798 -38.743,-38.7798 -21.401,0 -38.748,17.361 -38.748,38.7798 z" /></g></g><g
                 id="g56"><g
                   clip-path="url(#clipPath62)"
                   id="g58"><path
                     id="path64"
                     style="fill:none;stroke:#000000;stroke-width:0.55751002;stroke-linecap:butt;stroke-linejoin:miter;stroke-miterlimit:10;stroke-dasharray:none;stroke-opacity:1"
                     d="m 49.589,1.5547 c 0,21.4133 17.346,38.7803 38.748,38.7803 21.403,0 38.743,-17.367 38.743,-38.7803 0,-21.4187 -17.34,-38.7797 -38.743,-38.7797 -21.402,0 -38.748,17.361 -38.748,38.7797 z" /></g></g><path
                 id="path66"
                 style="fill:#389825;fill-opacity:0.87058997;fill-rule:nonzero;stroke:none"
                 d="m 52.545,36.685 c 0,3.729 3.02,6.756 6.753,6.756 3.726,0 6.75,-3.027 6.75,-6.756 0,-3.73 -3.024,-6.759 -6.75,-6.759 -3.733,0 -6.753,3.029 -6.753,6.759 z" /><path
                 id="path68"
                 style="fill:none;stroke:#000000;stroke-width:0.55751002;stroke-linecap:butt;stroke-linejoin:miter;stroke-miterlimit:10;stroke-dasharray:none;stroke-opacity:1"
                 d="m 52.545,36.685 c 0,3.729 3.02,6.756 6.753,6.756 3.726,0 6.75,-3.027 6.75,-6.756 0,-3.73 -3.024,-6.759 -6.75,-6.759 -3.733,0 -6.753,3.029 -6.753,6.759 z" /><g
                 id="g70"><g
                   clip-path="url(#clipPath76)"
                   id="g72"><path
                     id="path78"
                     style="fill:#000000;fill-opacity:1;fill-rule:nonzero;stroke:none"
                     d="m 34.615,8.2726 c 0.138,1.113 0.308,2.2204 0.515,3.3224 l 0.549,-0.103 C 35.473,10.403 35.304,9.3068 35.169,8.2051 Z m 1.236,6.6094 c 0.276,1.087 0.584,2.162 0.926,3.228 l 0.531,-0.172 c -0.34,-1.055 -0.645,-2.118 -0.915,-3.194 z m 2.051,6.399 c 0.408,1.042 0.85,2.073 1.321,3.09 l 0.504,-0.234 c -0.466,-1.005 -0.902,-2.028 -1.306,-3.059 z m 2.83,6.093 c 0.536,0.984 1.102,1.954 1.697,2.907 L 42.9,29.984 c -0.588,-0.943 -1.148,-1.901 -1.678,-2.877 z m 3.569,5.701 c 0.653,0.911 1.335,1.805 2.045,2.675 l 0.43,-0.351 c -0.7,-0.861 -1.377,-1.746 -2.022,-2.649 z m 4.248,5.218 c 0.759,0.823 1.544,1.623 2.352,2.4 l 0.387,-0.405 c -0.803,-0.767 -1.579,-1.559 -2.332,-2.373 z m 4.851,4.65 c 0.855,0.726 1.734,1.423 2.634,2.094 l 0.334,-0.448 C 55.477,43.927 54.607,43.235 53.76,42.518 Z m 5.394,4.019 c 0.94,0.615 1.896,1.198 2.871,1.752 l 0.276,-0.486 C 60.976,47.68 60.03,47.103 59.098,46.496 Z m 5.841,3.316 c 1.008,0.493 2.031,0.953 3.068,1.38 l 0.211,-0.515 c -1.026,-0.422 -2.036,-0.876 -3.036,-1.366 z m 6.209,2.567 c 1.06,0.36 2.129,0.688 3.211,0.984 L 74.201,53.29 C 73.131,53 72.074,52.675 71.025,52.315 Z m 6.486,1.769 c 1.093,0.226 2.194,0.416 3.298,0.575 l 0.08,-0.551 C 79.612,54.48 78.525,54.292 77.441,54.067 Z m 6.642,0.947 c 1.116,0.088 2.235,0.143 3.357,0.164 l 0.009,-0.557 c -1.111,-0.02 -2.218,-0.076 -3.323,-0.164 z m 6.741,0.123 c 1.116,-0.05 2.229,-0.132 3.337,-0.249 l -0.059,-0.554 c -1.096,0.114 -2.197,0.196 -3.304,0.246 z m 6.673,-0.703 c 1.108,-0.188 2.204,-0.408 3.294,-0.663 l -0.13,-0.541 c -1.075,0.251 -2.162,0.468 -3.254,0.653 z m 6.534,-1.527 c 1.08,-0.322 2.14,-0.679 3.19,-1.069 l -0.19,-0.522 c -1.04,0.384 -2.1,0.739 -3.16,1.058 z m 6.3,-2.332 c 1.03,-0.454 2.04,-0.937 3.03,-1.456 L 113,49.171 c -0.99,0.513 -1.99,0.993 -3,1.441 z m 5.97,-3.099 c 0.95,-0.578 1.89,-1.184 2.82,-1.82 l -0.32,-0.46 c -0.91,0.63 -1.84,1.231 -2.79,1.802 z m 5.53,-3.818 c 0.88,-0.691 1.74,-1.412 2.58,-2.156 l -0.37,-0.419 c -0.83,0.738 -1.68,1.45 -2.55,2.139 z m 5.02,-4.471 c 0.79,-0.793 1.56,-1.614 2.3,-2.457 l -0.42,-0.366 c -0.74,0.831 -1.49,1.643 -2.27,2.431 z m 4.43,-5.053 c 0.69,-0.891 1.35,-1.799 1.98,-2.731 l -0.46,-0.313 c -0.62,0.92 -1.28,1.822 -1.95,2.701 z m 3.78,-5.567 c 0.57,-0.966 1.11,-1.948 1.62,-2.947 l -0.49,-0.252 c -0.51,0.988 -1.04,1.96 -1.61,2.915 z m 3.06,-5.988 c 0.44,-1.028 0.86,-2.068 1.24,-3.12 l -0.53,-0.19 c -0.37,1.039 -0.78,2.071 -1.22,3.088 z m 2.28,-6.319 c 0.32,-1.076 0.6,-2.162 0.85,-3.255 l -0.55,-0.123 c -0.24,1.084 -0.52,2.156 -0.83,3.22 z m 1.48,-6.551 c 0.18,-1.1104 0.33,-2.2264 0.44,-3.3454 l -0.56,-0.0563 c -0.11,1.1108 -0.25,2.2155 -0.43,3.3107 z m 0.66,-6.6882 c 0.03,-0.6712 0.04,-1.3425 0.04,-2.013 0,-0.4597 -0.01,-0.92021 -0.02,-1.37695 l -0.56,0.015 c 0.02,0.45375 0.02,0.90745 0.02,1.36195 0,0.6653 -0.01,1.3298 -0.04,1.9921 z m -0.16,-6.7447 c -0.1,-1.119 -0.23,-2.232 -0.4,-3.3428 l -0.55,0.0825 c 0.16,1.0988 0.29,2.1998 0.39,3.3105 z m -1,-6.6443 c -0.23,-1.0988 -0.5,-2.1888 -0.8,-3.2688 l -0.54,0.149 c 0.3,1.069 0.57,2.15 0.8,3.2368 z m -1.81,-6.4778 c -0.37,-1.057 -0.77,-2.101 -1.2,-3.134 l -0.51,0.217 c 0.42,1.022 0.82,2.056 1.19,3.102 z m -2.6,-6.196 c -0.5,-1.005 -1.03,-1.992 -1.59,-2.962 l -0.48,0.278 c 0.55,0.962 1.08,1.94 1.57,2.933 z m -3.35,-5.821 c -0.62,-0.938 -1.27,-1.855 -1.95,-2.751 l -0.44,0.334 c 0.67,0.891 1.31,1.796 1.92,2.724 z m -4.06,-5.373 c -0.72,-0.853 -1.48,-1.682 -2.26,-2.488 l -0.4,0.39 c 0.77,0.797 1.52,1.617 2.24,2.458 z m -4.67,-4.829 c -0.83,-0.756 -1.69,-1.485 -2.56,-2.188 l -0.35,0.436 c 0.87,0.695 1.71,1.419 2.53,2.166 z m -5.25,-4.215 c -0.91,-0.648 -1.85,-1.266 -2.8,-1.854 l -0.29,0.474 c 0.94,0.583 1.86,1.195 2.77,1.837 z m -5.71,-3.534 c -0.99,-0.527 -2,-1.025 -3.01,-1.491 l -0.23,0.51 c 1,0.46 1.99,0.952 2.97,1.473 z m -6.11,-2.791 c -1.05,-0.402 -2.11,-0.771 -3.18,-1.105 l -0.16,0.53 c 1.05,0.334 2.1,0.698 3.14,1.096 z m -6.41,-2.007 c -1.09,-0.27 -2.182,-0.501 -3.287,-0.701 l -0.099,0.549 c 1.092,0.195 2.176,0.427 3.256,0.691 z m -6.611,-1.196 c -1.108,-0.129 -2.221,-0.225 -3.341,-0.287 l -0.029,0.557 c 1.105,0.061 2.206,0.155 3.305,0.284 z m -6.718,-0.369 c -1.125,0.009 -2.248,0.05 -3.367,0.126 l 0.038,0.557 c 1.108,-0.077 2.218,-0.117 3.331,-0.123 z m -6.707,0.457 c -1.113,0.147 -2.214,0.326 -3.313,0.539 l 0.109,0.548 c 1.083,-0.214 2.176,-0.389 3.275,-0.533 z m -6.594,1.283 c -1.081,0.282 -2.157,0.598 -3.22,0.947 l 0.176,0.53 c 1.052,-0.346 2.112,-0.659 3.185,-0.937 z m -6.378,2.095 c -1.043,0.416 -2.069,0.865 -3.082,1.342 l 0.237,0.504 c 1.005,-0.475 2.022,-0.917 3.05,-1.327 z m -6.07,2.874 c -0.982,0.542 -1.946,1.114 -2.892,1.717 l 0.298,0.469 c 0.938,-0.595 1.893,-1.161 2.863,-1.696 z m -5.672,3.61 c -0.909,0.659 -1.794,1.348 -2.661,2.062 l 0.355,0.431 c 0.858,-0.709 1.734,-1.389 2.634,-2.042 z m -5.186,4.286 c -0.817,0.764 -1.611,1.556 -2.382,2.37 l 0.407,0.383 c 0.762,-0.808 1.548,-1.59 2.356,-2.349 z m -4.611,4.886 c -0.721,0.862 -1.412,1.746 -2.077,2.652 l 0.451,0.328 c 0.656,-0.894 1.342,-1.77 2.054,-2.622 z m -3.982,5.427 c -0.606,0.942 -1.183,1.904 -1.728,2.882 l 0.486,0.273 c 0.539,-0.97 1.11,-1.919 1.711,-2.854 z m -3.275,5.868 c -0.484,1.01 -0.937,2.036 -1.357,3.075 l 0.516,0.212 c 0.416,-1.031 0.864,-2.045 1.345,-3.047 z m -2.52,6.231 c -0.354,1.063 -0.676,2.136 -0.964,3.216 l 0.54,0.144 c 0.284,-1.069 0.6,-2.133 0.951,-3.184 z m -1.725,6.5006 c -0.22,1.0957 -0.404,2.1975 -0.554,3.3075 l 0.554,0.0765 c 0.146,-1.0988 0.331,-2.1915 0.548,-3.2753 z m -0.903,6.6532 c -0.082,1.1168 -0.128,2.23879 -0.143,3.36379 l 0.559,0.00826 c 0.012,-1.116 0.059,-2.22605 0.141,-3.33375 z m -0.146,4.014 c 0,1.128 0.035,2.253 0.103,3.375 L 34.861,4.8946 C 34.794,3.7846 34.758,2.6708 34.758,1.5548 Z" /></g></g><path
                 id="path80"
                 style="fill:#4062d8;fill-opacity:0.85097997;fill-rule:nonzero;stroke:none"
                 d="m 81.138,78.86 c 0,3.73 3.024,6.756 6.751,6.756 3.726,0 6.753,-3.026 6.753,-6.756 0,-3.735 -3.027,-6.758 -6.753,-6.758 -3.727,0 -6.751,3.023 -6.751,6.758 z" /><path
                 id="path82"
                 style="fill:none;stroke:#000000;stroke-width:0.55751002;stroke-linecap:butt;stroke-linejoin:miter;stroke-miterlimit:10;stroke-dasharray:none;stroke-opacity:1"
                 d="m 81.138,78.86 c 0,3.73 3.024,6.756 6.751,6.756 3.726,0 6.753,-3.026 6.753,-6.756 0,-3.735 -3.027,-6.758 -6.753,-6.758 -3.727,0 -6.751,3.023 -6.751,6.758 z" /><path
                 id="path84"
                 style="fill:#389825;fill-opacity:0.87058997;fill-rule:nonzero;stroke:none"
                 d="m 37.014,11.144 c 0,3.729 3.027,6.759 6.753,6.759 3.733,0 6.751,-3.03 6.751,-6.759 0,-3.7354 -3.018,-6.756 -6.751,-6.756 -3.726,0 -6.753,3.0206 -6.753,6.756 z" /><path
                 id="path86"
                 style="fill:none;stroke:#000000;stroke-width:0.55751002;stroke-linecap:butt;stroke-linejoin:miter;stroke-miterlimit:10;stroke-dasharray:none;stroke-opacity:1"
                 d="m 37.014,11.144 c 0,3.729 3.027,6.759 6.753,6.759 3.733,0 6.751,-3.03 6.751,-6.759 0,-3.7354 -3.018,-6.756 -6.751,-6.756 -3.726,0 -6.753,3.0206 -6.753,6.756 z" /><path
                 id="path88"
                 style="fill:#9458b1;fill-opacity:1;fill-rule:nonzero;stroke:none"
                 d="m 26.699,56.633 c 0,3.729 3.02,6.756 6.75,6.756 3.726,0 6.753,-3.027 6.753,-6.756 0,-3.732 -3.027,-6.759 -6.753,-6.759 -3.73,0 -6.75,3.027 -6.75,6.759 z" /><path
                 id="path90"
                 style="fill:none;stroke:#000000;stroke-width:0.55751002;stroke-linecap:butt;stroke-linejoin:miter;stroke-miterlimit:10;stroke-dasharray:none;stroke-opacity:1"
                 d="m 26.699,56.633 c 0,3.729 3.02,6.756 6.75,6.756 3.726,0 6.753,-3.027 6.753,-6.756 0,-3.732 -3.027,-6.759 -6.753,-6.759 -3.73,0 -6.75,3.027 -6.75,6.759 z" /><path
                 id="path92"
                 style="fill:#4062d8;fill-opacity:0.85097997;fill-rule:nonzero;stroke:none"
                 d="m 5.0077,10.397 c 0,3.729 3.0263,6.759 6.7533,6.759 3.729,0 6.75,-3.03 6.75,-6.759 0,-3.7354 -3.021,-6.7561 -6.75,-6.7561 -3.727,0 -6.7533,3.0207 -6.7533,6.7561 z" /><path
                 id="path94"
                 style="fill:none;stroke:#000000;stroke-width:0.55751002;stroke-linecap:butt;stroke-linejoin:miter;stroke-miterlimit:10;stroke-dasharray:none;stroke-opacity:1"
                 d="m 5.0077,10.397 c 0,3.729 3.0263,6.759 6.7533,6.759 3.729,0 6.75,-3.03 6.75,-6.759 0,-3.7354 -3.021,-6.7561 -6.75,-6.7561 -3.727,0 -6.7533,3.0207 -6.7533,6.7561 z" /><path
                 id="path96"
                 style="fill:none;stroke:#000000;stroke-width:0.55751002;stroke-linecap:butt;stroke-linejoin:miter;stroke-miterlimit:10;stroke-dasharray:none;stroke-opacity:1"
                 d="m 18.511,10.397 h 16.71" /><path
                 id="path98"
                 style="fill:none;stroke:#000000;stroke-width:0.55751002;stroke-linecap:butt;stroke-linejoin:miter;stroke-miterlimit:10;stroke-dasharray:none;stroke-opacity:1"
                 d="m 30.25,8.5598 c 2.218,1.0576 4.245,1.6672 6.088,1.8342 -1.843,0.17 -3.87,0.779 -6.088,1.837" /><path
                 id="path100"
                 style="fill:none;stroke:#000000;stroke-width:0.55751002;stroke-linecap:butt;stroke-linejoin:miter;stroke-miterlimit:10;stroke-dasharray:none;stroke-opacity:1"
                 d="M 52.679,42.36 40.621,52.104" /><g
                 id="g102"><g
                   clip-path="url(#clipPath108)"
                   id="g104"><path
                     id="path110"
                     style="fill:none;stroke:#000000;stroke-width:0.55751002;stroke-linecap:butt;stroke-linejoin:miter;stroke-miterlimit:10;stroke-dasharray:none;stroke-opacity:1"
                     d="m 45.642,50.404 c -2.387,0.575 -4.35,1.374 -5.888,2.403 1.327,-1.289 2.522,-3.041 3.586,-5.256" /></g></g><path
                 id="path112"
                 style="fill:none;stroke:#000000;stroke-width:0.55751002;stroke-linecap:butt;stroke-linejoin:miter;stroke-miterlimit:10;stroke-dasharray:none;stroke-opacity:1"
                 d="M 88.337,71.914 V 56.715" /><g
                 id="g114"><g
                   clip-path="url(#clipPath120)"
                   id="g116"><path
                     id="path122"
                     style="fill:none;stroke:#000000;stroke-width:0.55751002;stroke-linecap:butt;stroke-linejoin:miter;stroke-miterlimit:10;stroke-dasharray:none;stroke-opacity:1"
                     d="m 86.503,61.693 c 1.054,-2.221 1.667,-4.251 1.834,-6.094 0.167,1.843 0.776,3.873 1.831,6.094" /></g></g><path
                 id="path124"
                 style="fill:#389825;fill-opacity:1;fill-rule:nonzero;stroke:none"
                 d="m 81.584,47.094 c 0,3.729 3.026,6.756 6.753,6.756 3.726,0 6.75,-3.027 6.75,-6.756 0,-3.736 -3.024,-6.759 -6.75,-6.759 -3.727,0 -6.753,3.023 -6.753,6.759 z" /><path
                 id="path126"
                 style="fill:none;stroke:#000000;stroke-width:0.55751002;stroke-linecap:butt;stroke-linejoin:miter;stroke-miterlimit:10;stroke-dasharray:none;stroke-opacity:1"
                 d="m 81.584,47.094 c 0,3.729 3.026,6.756 6.753,6.756 3.726,0 6.75,-3.027 6.75,-6.756 0,-3.736 -3.024,-6.759 -6.75,-6.759 -3.727,0 -6.753,3.023 -6.753,6.759 z" /></g></g></g></g></g><g
       id="g128"><g
         clip-path="url(#clipPath134)"
         id="g130"><text
           id="text138"
           style="font-variant:normal;font-weight:normal;font-size:44.72499847px;font-family:Ubuntu;-inkscape-font-specification:Ubuntu-Regular;writing-mode:lr-tb;fill:#000000;fill-opacity:1;fill-rule:nonzero;stroke:none"
           transform="matrix(1,0,0,-1,2,7.875)"><tspan
             id="tspan136"
             y="0"
             x="0 22.586124 45.932575 71.604729 97.053253 134.66698 160.33913 171.65456">Langmuir</tspan></text>
</g></g></g></svg>